<?xml version="1.0" encoding="UTF-8" standalone="no"?>
<!-- Created with Inkscape (http://www.inkscape.org/) -->

<svg
   xmlns:dc="http://purl.org/dc/elements/1.1/"
   xmlns:cc="http://creativecommons.org/ns#"
   xmlns:rdf="http://www.w3.org/1999/02/22-rdf-syntax-ns#"
   xmlns:svg="http://www.w3.org/2000/svg"
   xmlns="http://www.w3.org/2000/svg"
   xmlns:sodipodi="http://sodipodi.sourceforge.net/DTD/sodipodi-0.dtd"
   xmlns:inkscape="http://www.inkscape.org/namespaces/inkscape"
   width="170.53333mm"
   height="124.64484mm"
   viewBox="0 0 170.53332 124.64484"
   version="1.1"
   id="svg4680"
   inkscape:version="0.92.2 (unknown)"
   sodipodi:docname="bair_white.svg">
  <defs
     id="defs4674">
    <clipPath
       clipPathUnits="userSpaceOnUse"
       id="clipPath5269">
      <rect
         style="fill:#1f27c1;fill-opacity:1;stroke:#fcfcfc;stroke-width:0.29462761;stroke-opacity:1"
         id="rect5271"
         width="237.92488"
         height="174.88766"
         x="-119.70896"
         y="25.770464" />
    </clipPath>
  </defs>
  <sodipodi:namedview
     id="base"
     pagecolor="#ffffff"
     bordercolor="#666666"
     borderopacity="1.0"
     inkscape:pageopacity="0.0"
     inkscape:pageshadow="2"
     inkscape:zoom="0.35"
     inkscape:cx="263.61237"
     inkscape:cy="159.74102"
     inkscape:document-units="mm"
     inkscape:current-layer="layer1"
     showgrid="false"
     inkscape:window-width="1276"
     inkscape:window-height="1401"
     inkscape:window-x="3200"
     inkscape:window-y="18"
     inkscape:window-maximized="0"
     fit-margin-top="0"
     fit-margin-left="0"
     fit-margin-right="0"
     fit-margin-bottom="0"
     inkscape:lockguides="false" />
  <metadata
     id="metadata4677">
    <rdf:RDF>
      <cc:Work
         rdf:about="">
        <dc:format>image/svg+xml</dc:format>
        <dc:type
           rdf:resource="http://purl.org/dc/dcmitype/StillImage" />
        <dc:title></dc:title>
      </cc:Work>
    </rdf:RDF>
  </metadata>
  <g
     inkscape:label="Layer 1"
     inkscape:groupmode="layer"
     id="layer1"
     transform="translate(70.695692,-66.453315)">
    <path
       id="path5240"
       transform="matrix(0.26458333,0,0,0.26458333,-70.624859,67.058614)"
       style="fill:#ffffff;fill-opacity:1;stroke:#ffffff;stroke-width:1.8897638;stroke-miterlimit:4;stroke-dasharray:none;stroke-opacity:1"
       d="m 498.61523,0 -8.91796,11.5 c -4.90543,6.325002 -9.88236,11.820059 -11.0586,12.210938 C 477.46243,24.101849 454.9,28.05988 428.5,32.507812 402.1,36.95575 369.95454,42.389943 357.06445,44.582031 l -23.4375,3.984375 -9.26757,8.966797 C 319.26164,62.464768 314.47453,66.5 313.72266,66.5 c -0.75188,0 -18.20962,-2.696288 -38.79493,-5.992188 -20.58534,-3.295894 -38.77774,-6.008319 -40.42773,-6.023437 -1.64999,-0.01659 -31.297,5.481187 -65.88281,12.216797 L 105.73438,78.947266 60.283203,125.72461 C 14.8966,172.43454 14.825927,172.5 10.730469,172.5 5.6575859,172.5 2,175.53324 2,179.74023 c 0,4.11474 1.4995188,6.38886 5.0175781,7.61524 5.6867149,1.9824 10.3183159,-1.46088 10.4218749,-7.74805 0.05545,-3.36744 1.23666,-4.97668 12.060547,-16.41992 6.6,-6.97765 12.337502,-12.68724 12.75,-12.6875 0.41246,-2.3e-4 0.75,4.57384 0.75,10.16406 v 10.16406 L 30.300781,183.66406 C 18.047855,196.04753 17.451152,196.5 13.410156,196.5 c -5.6728045,0 -8.8105466,2.60806 -8.8105466,7.32227 0,6.38517 5.7763196,10.08707 11.2890626,7.23632 C 19.133434,209.38067 20,207.71786 20,203.18359 c 0,-2.67133 1.637808,-4.79313 10.734375,-13.91797 5.903093,-5.92141 11.078129,-10.76562 11.5,-10.76562 0.421757,0 0.773818,4.38749 0.785156,9.75 l 0.01953,9.75 -11.732421,11.25 c -9.962911,9.55344 -12.215485,11.25 -14.9375,11.25 -4.589367,0 -6.245089,0.85945 -7.9277348,4.11328 -1.8826577,3.64067 -1.0007918,7.30203 2.4042968,9.98047 h 0.002 c 5.466293,4.29982 12.799266,-0.23924 11.847656,-7.33398 C 22.19673,223.542 22.36408,223.32229 34.345749,211.95898 L 46.5,200.43164 47,172.53125 47.5,144.63086 76.330078,114.81445 C 92.186103,98.416194 105.95816,84.426694 106.93555,83.724609 c 1.27653,-0.916951 59.44348,-13.120292 62.97851,-13.21289 0.78157,-0.02045 -13.32139,14.537616 -47.34375,48.871091 -33.304801,33.60929 -34.153879,34.37755 -37.824216,34.20899 -7.610192,-0.34972 -11.588099,8.15608 -6.291016,13.45312 3.340725,3.34076 7.014192,3.14206 10.740234,-0.58398 2.502161,-2.50231 2.932176,-3.58139 2.429688,-6.09375 -0.584088,-2.92056 1.249103,-4.94765 42.50586,-46.95508 35.24738,-35.888769 43.7805,-44.074139 46.74414,-44.847657 7.75502,-2.024012 44.96532,-8.982581 51.125,-9.560547 l 6.5,-0.609375 -59.5,59.027349 -59.5,59.02929 -4.67578,-0.59375 c -4.11409,-0.52301 -4.9858,-0.28565 -7.25,1.97852 -4.7565,4.75653 -2.50085,11.99529 4.13672,13.27734 2.68641,0.51889 3.70577,0.12431 6.25,-2.41992 1.75653,-1.7565 3.03906,-4.08876 3.03906,-5.52539 0,-1.96018 12.64507,-15.01588 59.75,-61.69141 32.8625,-32.562918 60.65001,-59.794539 61.75,-60.513669 1.6495,-1.078375 3.46476,-1.069353 10.35352,0.05078 4.59394,0.746986 8.54332,1.549187 8.77539,1.78125 0.37186,0.371868 -59.10945,59.732749 -102.66797,102.460939 -13.92352,13.65812 -15.9003,15.24515 -19,15.27539 -4.10351,0.0378 -6.5097,1.65327 -7.89649,5.30078 -2.10708,5.542 3.06359,11.45839 8.89453,10.17774 C 144.93701,195.13601 147,192.03243 147,186.92383 v -4.13281 l 60.46875,-59.69727 c 58.9234,-58.173047 60.55097,-59.683646 63.75,-59.162109 1.80552,0.294311 5.95134,0.99378 9.21484,1.552734 3.26351,0.558954 6.18851,1.015625 6.49805,1.015625 0.87209,0 -106.70177,107.52901 -122.13086,122.08008 L 151.10156,201.5 H 126.44531 101.78906 L 98.818359,199 c -7.206387,-6.06376 -16.532283,0.26417 -13.197265,8.95508 0.915364,2.38545 5.984765,4.68282 8.783203,3.98047 1.331074,-0.33408 3.587719,-1.91893 5.015625,-3.52149 L 102.01562,205.5 h 25.70704 25.70703 l 32.53515,-32.24805 c 17.89459,-17.73656 49.24724,-48.83454 69.67188,-69.10547 34.59704,-34.336676 37.33146,-36.81702 40,-36.289058 1.57538,0.31166 5.11328,0.866563 7.86328,1.232422 2.75,0.365896 5.38844,0.89011 5.86328,1.166015 0.47485,0.275906 -10.09654,11.469028 -23.49219,24.873047 C 262.5993,118.41526 261.34676,119.5 257.71289,119.5 c -7.78813,0 -11.51259,8.29018 -6.13867,13.66406 2.13237,2.13249 3.19068,2.47331 6.17969,1.98828 5.01947,-0.81456 6.60613,-2.77776 6.76562,-8.3789 L 264.6543,122 298.87109,88.015625 c 18.81869,-18.691313 34.98291,-34.416557 35.92188,-34.945313 1.74426,-0.982143 27.43789,-5.610718 28.03711,-5.050781 0.18172,0.169814 -13.31828,13.72776 -30,30.128907 C 316.14835,94.549579 293.913,116.41311 283.41797,126.73438 L 264.33594,145.5 H 249.48828 234.64062 L 212,168 c -17.61865,17.50976 -23.20289,22.5 -25.18359,22.5 -1.39987,0 -3.7325,0.93232 -5.18164,2.07227 -3.72223,2.92788 -3.72223,8.92758 0,11.85546 3.3733,2.65335 6.39093,2.62658 9.84179,-0.0879 2.46191,-1.93663 2.70042,-2.65362 2.29102,-6.91406 l -0.45703,-4.75195 21.60351,-21.58789 L 236.51758,149.5 h 14.72851 14.72657 l 51.13867,-50.25 c 28.1255,-27.637531 52.31925,-50.987821 53.76367,-51.888672 2.70339,-1.685972 106.60562,-19.714685 107.64258,-18.677734 0.29239,0.292422 0.8128,3.540891 1.15625,7.21875 0.50502,5.408126 0.92961,6.623564 2.22461,6.359375 1.32618,-0.270614 1.5558,-1.608604 1.33398,-7.792969 L 482.96484,27 491.73242,15.5 c 8.48854,-11.1336184 8.90008,-11.509443 12.92383,-11.8027344 2.28588,-0.1666015 5.61583,0.074684 7.40039,0.5371094 2.72587,0.7063559 3.45936,1.5540478 4.58008,5.3027344 1.91683,6.4115526 1.72618,8.1344606 -1.75586,15.9218746 C 512.0039,31.893177 511.62544,35.5 513.82617,35.5 515.17463,35.5 522,19.715766 522,16.597656 522,12.90434 519.13716,3.3202504 517.53711,1.6582031 516.67435,0.76203955 513.31577,0.26365194 507.42969,0.15820312 Z m 31.22071,8.5 c -1.66945,0 -1.94456,0.4350709 -1.42774,2.25 1.89764,6.664063 1.79939,7.642971 -1.29687,13.054688 C 525.39993,26.795876 524,29.646313 524,30.138672 c 0,0.492321 6.54662,3.301677 14.54688,6.242187 l 14.54492,5.345703 4.70508,7.427735 C 560.38407,53.240155 565.65,61.348164 569.5,67.169922 l 7,10.583984 15.5,7.263672 c 13.88926,6.507855 15.63219,7.095065 16.77148,5.652344 1.12032,-1.418684 -0.18693,-2.292577 -11,-7.353516 -6.74926,-3.158929 -13.8243,-6.548913 -15.72265,-7.53125 -2.66338,-1.378204 -5.9954,-5.752219 -14.59375,-19.158203 -6.12856,-9.55525 -11.87315,-17.781785 -12.76563,-18.28125 -0.89248,-0.499464 -5.80063,-2.428527 -10.90625,-4.287109 -5.10561,-1.858583 -10.54209,-3.867577 -12.08008,-4.462891 l -2.79492,-1.082031 2.54492,-4.34375 C 534.27217,19.359566 534.47435,17.748759 532.94727,12.25 532.17247,9.4600661 531.3757,8.5 529.83594,8.5 Z M 232.57812,35.554688 168.53906,47.558594 C 133.31761,54.160748 103.37499,59.801593 102,60.09375 100.42636,60.428314 83.752025,76.305778 57,102.94336 l -42.5,42.31836 -3.693359,-0.48438 c -3.0050286,-0.3936 -4.1689925,-0.007 -6.2500004,2.07422 -3.97855706,3.97856 -3.0430941,10.7063 1.7578125,12.64063 3.7840629,1.52466 5.7511739,1.09453 8.7617189,-1.91602 C 17.137035,155.51531 18,153.67098 18,151.32227 c 0,-3.05564 3.466464,-6.79695 41.880859,-45.20313 L 101.76172,64.246094 164.63086,52.294922 C 199.20874,45.721568 229.75002,40.327618 232.5,40.3125 c 4.80631,-0.02903 64.12747,8.838329 65.72266,9.824219 0.4279,0.264453 0.77734,1.354347 0.77734,2.421875 0,3.059263 3.58365,5.941406 7.38867,5.941406 4.93064,0 8.01172,-2.883723 8.01172,-7.5 0,-6.410721 -5.41329,-9.070807 -12.92773,-6.353516 -2.6568,0.960681 -8.48054,0.318544 -36.03125,-3.972656 z M 306.4043,48 c 3.58571,0 5.55498,2.639946 3.66601,4.916016 -1.64253,1.978998 -5.94554,2.071006 -6.68554,0.142578 C 302.22865,50.045781 303.44905,48 306.4043,48 Z m 87.20508,1.818359 c -4.94479,0.116249 -9.9077,5.134052 -7.51758,10.904297 2.31253,5.582967 8.04631,6.351366 13.25586,1.777344 2.97283,-2.610142 4.17964,-2.999493 9.28515,-2.984375 3.22739,0.0084 6.3475,0.345931 6.93555,0.75 C 416.72431,61.059931 434,85.183976 434,86.003906 434,86.277015 414.55645,86.5 390.79297,86.5 h -43.20508 l -37.08789,37 -37.08789,37 h -10.32422 c -10.04549,0 -10.41569,-0.081 -13.74023,-3 -4.24755,-3.72937 -8.14943,-3.90391 -11.33985,-0.50781 -3.27564,3.48673 -3.11664,8.15758 0.38086,11.16601 3.60703,3.10266 7.08771,2.96612 10.40625,-0.4082 2.59525,-2.63887 3.20674,-2.77023 15.09766,-3.25 L 276.2832,164 312.39258,127.24414 348.5,90.486328 l 10.75,0.0078 c 5.9125,0.004 10.75,0.403317 10.75,0.886718 0,0.483364 -3.2625,3.941068 -7.25,7.683594 -3.9875,3.74249 -21.65628,20.8182 -39.26367,37.94727 l -32.01367,31.14453 -27.98633,6.92187 -27.98633,6.92383 -17.49805,16.25 -17.49804,16.25 -17.00196,0.0254 L 166.5,214.55469 149.15625,231.27734 131.8125,248 l -0.54883,15.54883 c -0.38075,10.77037 -0.19793,16.20676 0.59766,17.69336 0.63167,1.18031 8.78788,7.50074 18.12305,14.04492 l 16.97265,11.89844 20.40235,0.67773 c 11.62275,0.38642 21.4217,0.28919 22.77148,-0.22656 1.3031,-0.49792 11.59413,-8.40041 22.86914,-17.56055 l 20.5,-16.65429 0.29492,8.28906 c 0.16241,4.55924 0.0636,9.2099 -0.21875,10.33594 -0.43737,1.74469 -22.85739,19.66737 -35.90625,28.70312 l -3.9707,2.75 -19.59961,-0.125 c -10.77974,-0.0683 -22.62978,-0.40569 -26.33399,-0.75 L 161.03125,322 132.09961,299.68945 C 116.1875,287.41895 102.90524,276.6944 102.58398,275.85742 102.26269,275.02045 102,273.28034 102,271.99023 102,269.21546 97.706173,265.5 94.5,265.5 c -1.226683,0 -3.41605,0.93236 -4.865234,2.07227 C 87.6024,269.17093 87,270.52661 87,273.5 c 0,5.37936 3.790139,8.40278 9.484375,7.56641 3.982825,-0.585 4.257045,-0.40388 33.716795,22.26757 l 29.70117,22.85743 9.79883,0.64843 c 5.38927,0.35694 17.08522,0.65131 25.99024,0.6543 8.90505,0.003 16.38367,0.34336 16.61914,0.75586 0.23561,0.41254 -0.80843,12.21267 -2.32032,26.22266 -2.32985,21.58938 -3.0203,25.62934 -4.53125,26.5 C 197.09073,385.7948 198.49762,396.5 207.5,396.5 c 6.82798,0 9.64601,-6.7135 5.61719,-13.38281 -1.85847,-3.0765 -1.84696,-3.46361 0.96289,-29.11719 1.56627,-14.30003 2.86587,-26.3047 2.88476,-26.67773 0.0458,-0.8679 14.25483,-11.93467 14.72266,-11.4668 0.19291,0.19291 -2.81046,23.65319 -6.67578,52.13476 -5.51766,40.65684 -6.77175,52.09312 -5.83594,53.22071 0.65556,0.78988 8.62717,5.01519 17.71484,9.38867 9.08773,4.37348 16.87287,8.50223 17.30079,9.17578 0.42791,0.67359 0.78541,2.23708 0.79297,3.47461 0.0376,5.52809 8.28377,8.28331 13.10546,4.37891 3.28135,-2.65716 3.20892,-8.65806 -0.13672,-11.36719 -1.95566,-1.58366 -3.39481,-1.86896 -7.16992,-1.42188 -4.3632,0.51678 -5.97166,-0.0389 -21.13672,-7.29882 -9.02838,-4.32216 -16.64162,-8.23871 -16.91601,-8.70118 -0.93657,-1.57761 13.76499,-106.02586 15.16015,-107.70703 1.54836,-1.86565 14.54767,-11.63281 15.48243,-11.63281 0.34537,0 0.62695,5.40653 0.62695,12.01562 0,10.70752 0.60605,14.9289 5.55859,38.75 3.05692,14.70339 6.14719,27.63439 6.86719,28.73438 0.71996,1.09999 13.95827,18.36268 29.41797,38.36133 24.25377,31.37461 27.96377,36.62825 27.06445,38.30859 -1.43396,2.67942 -0.19307,7.51705 2.39258,9.32813 l 0.002,0.002 c 3.4549,2.41988 8.23065,1.90915 10.625,-1.13477 4.22767,-5.3746 1.39251,-11.80426 -5.71093,-12.95312 -3.48183,-0.56311 -5.04631,-2.31623 -24.7168,-27.69727 -11.55001,-14.90305 -24.52036,-31.69105 -28.82422,-37.30664 l -7.82617,-10.20898 -5.42383,-26.8418 L 258,322.01758 v -39.63672 c 0,-30.50287 0.288,-39.86705 1.25,-40.64453 0.6875,-0.55567 17.67333,-7.62589 37.74609,-15.71094 20.0728,-8.08505 36.98663,-14.99931 37.58594,-15.36328 0.59932,-0.36416 8.41734,-8.41202 17.37305,-17.88477 l 16.2832,-17.22265 4.49024,0.19531 c 3.79977,0.16539 4.86133,-0.23192 6.88281,-2.58203 3.05914,-3.55654 3.03508,-7.11137 -0.0664,-10.21289 C 374.28135,157.69156 366,161.3349 366,168.91406 c 0,2.68124 -2.24461,5.52341 -15.25,19.3086 -8.3875,8.89039 -16.40574,17.0578 -17.81836,18.15039 -1.41263,1.09258 -18.7376,8.5047 -38.5,16.4707 L 258.5,237.32812 l -0.29297,-8.08398 c -0.2053,-5.66082 0.0945,-8.43649 1,-9.25586 0.71127,-0.64358 15.21007,-6.75332 32.2207,-13.57812 L 322.35742,194 374.58008,142.25 426.80273,90.5 h 8.59961 c 4.72923,0 8.60503,0.337502 8.61524,0.75 0.01,0.412498 -11.92974,12.45001 -26.5332,26.75 l -26.55079,26 0.0332,14.50586 0.0332,14.50391 -21.10938,21.77343 c -11.60969,11.97464 -22.97224,23.02197 -25.25,24.55078 -2.27768,1.52886 -11.34062,5.42647 -20.14062,8.66016 -8.8,3.23373 -16.36706,6.186 -16.81641,6.56055 -0.44935,0.37459 -0.0741,6.1235 0.83399,12.77539 l 1.65039,12.09375 -7.19141,13.05273 -7.19336,13.05274 8.13086,60.73632 c 4.47153,33.40494 8.11952,61.78988 8.10742,63.07813 -0.012,1.28825 -0.92148,3.48634 -2.02148,4.88477 -2.73766,3.48037 -2.5553,7.80796 0.45508,10.81836 3.94164,3.94158 9.5991,3.18424 12.08203,-1.61719 2.18355,-4.22253 1.83306,-5.71971 -2.29688,-9.8086 l -3.75976,-3.72265 -8.30078,-61.76953 -8.30274,-61.77149 7.1875,-12.9707 7.18555,-12.9707 -1.45312,-10.97852 c -1.03602,-7.82884 -1.1437,-11.23348 -0.37305,-11.87305 C 313.54071,236.63756 324,232.32639 324,232.79297 c 0,0.14449 0.92472,6.77442 2.05469,14.73437 L 328.10938,262 l -8.05469,15.65625 c -6.00342,11.66891 -8.05149,16.63459 -8.03907,19.5 0.009,2.11442 3.77687,33.06478 8.3711,68.77734 8.29741,64.49862 8.34049,64.95712 6.58203,68.88477 -2.00924,4.48777 -1.13928,8.9854 2.07031,10.70312 5.41939,2.90038 11.96094,-0.4276 11.96094,-6.08593 0,-4.26463 -1.45361,-6.54907 -4.94336,-7.76563 -1.84921,-0.64463 -3.17787,-1.92223 -3.48828,-3.35547 C 331.57637,423.73442 316,300.76287 316,297.51172 c 0,-2.21488 2.71238,-8.54353 8.10742,-18.91992 L 332.21289,263 330,247.18945 c -1.21688,-8.69593 -2.05121,-15.93721 -1.85547,-16.09179 0.19574,-0.15455 4.72156,-2.03993 10.05859,-4.18946 L 347.9082,223 371.45312,198.81641 395,174.63086 v -14.67969 -14.67969 l 19.25,-18.66015 C 444.09777,97.678483 451.75765,90.5 452.78711,90.5 c 0.52363,0 1.46657,2.58748 2.09375,5.75 4.21664,21.26192 27.11514,34.37136 47.80664,27.36719 4.33853,-1.46865 7.47584,-1.91929 10.5,-1.50781 5.82422,0.79247 9.8125,-2.14522 9.8125,-7.22657 0,-4.18503 -3.7043,-8.38281 -7.39844,-8.38281 -3.3985,0 -7.33478,3.76829 -8.35547,8 -0.73255,3.03711 -1.49845,3.73521 -5.79492,5.26758 -7.57826,2.70285 -18.48782,1.92749 -25.33789,-1.80078 C 464.44989,111.61878 457.41669,99.581922 458.25586,87.40625 459.45568,69.997859 471.98412,57.478252 489,56.681641 c 10.556,-0.494136 17.03253,1.930877 18.23438,6.828125 1.03797,4.229707 4.9767,7.990234 8.36718,7.990234 3.69414,0 7.39844,-4.195826 7.39844,-8.380859 0,-5.081348 -3.98828,-8.019092 -9.8125,-7.226563 -3.02352,0.411402 -6.16239,-0.03819 -10.5,-1.505859 -7.85907,-2.6592 -19.74093,-2.242681 -26.94727,0.945312 -9.97494,4.412788 -18.45052,15.051001 -20.83007,26.146485 L 453.83398,86.5 h -6.74218 c -7.97233,0 -7.11155,0.744246 -19.08399,-16.5 -4.58229,-6.6 -9.02029,-12.562466 -9.86133,-13.25 -0.92872,-0.759156 -4.54978,-1.25 -9.22265,-1.25 -7.02942,0 -7.83081,-0.207398 -9.27539,-2.412109 -1.54816,-2.362796 -3.79148,-3.322372 -6.03906,-3.269532 z m -0.125,3.955079 c 2.98626,0.148813 4.76903,4.074709 2.3164,6.527343 -1.79987,1.799849 -4.59817,1.445582 -5.76172,-0.728515 -1.30715,-2.442444 -0.41866,-4.817289 2.10156,-5.617188 0.46698,-0.148214 0.91714,-0.2029 1.34376,-0.18164 z m 121.70507,5.929687 c 2.46823,0.165242 4.85394,2.919318 3.19922,5.546875 -1.50203,2.385109 -3.81849,2.67758 -5.76758,0.728516 -1.96362,-1.963654 -2.00121,-2.576346 -0.30468,-4.896485 0.65145,-0.890919 1.50368,-1.308668 2.3789,-1.376953 0.16411,-0.0128 0.32959,-0.01277 0.49414,-0.002 z m -25.03711,4.767578 c -3.06162,0.02386 -6.05263,0.482564 -8.50195,1.417969 -8.93005,3.410419 -15.66179,13.518996 -15.64062,23.486328 0.0193,9.147931 7.31243,19.46665 16.12695,22.81641 5.51462,2.09571 15.89758,1.0645 21.33008,-2.11914 15.84453,-9.28551 16.06057,-31.915244 0.40234,-42.277348 -3.31401,-2.193118 -8.61409,-3.36399 -13.7168,-3.324219 z M 490.5918,68.5 c 6.69238,0 9.3162,1.01839 14.36328,5.578125 10.65968,9.63035 7.92262,26.945805 -5.26953,33.332035 -14.58469,7.0603 -31.03882,-4.50478 -29.37305,-20.644535 C 471.41763,76.057883 479.80874,68.5 490.5918,68.5 Z m -0.41407,9 c -3.64498,0 -4.94627,0.569336 -7.77734,3.400391 C 479.62196,83.678835 479,85.060661 479,88.464844 c 0,5.215861 1.26473,7.614668 5.31445,10.083984 10.19468,6.216112 21.67067,-4.441393 16.19141,-15.037109 C 498.3538,79.350081 495.1762,77.5 490.17773,77.5 Z m 76.37696,0.152344 c -1.86348,0.03084 -4.95855,0.584074 -9.55469,1.246094 -6.44157,0.927831 -8.42767,1.574122 -8.20312,2.664062 0.1629,0.791017 1.92558,5.599991 3.91796,10.6875 1.99237,5.087509 3.88346,9.24597 4.20313,9.24219 0.31966,-0.004 3.42583,-5.404467 6.90039,-12.000002 4.97317,-9.440235 6.83598,-11.907701 2.73633,-11.839844 z m -442.87696,7.447265 c -5.14008,0 -7.67773,2.667793 -7.67773,8.06836 0,4.343962 -0.0804,4.440398 -25.5,30.585941 L 65,149.98242 v 26.48047 26.48242 l -16.25,15.48438 c -8.937524,8.51595 -20.854592,20.01745 -26.482422,25.56054 l -10.232422,10.08008 0.517578,6.46485 c 0.284448,3.55585 2.074277,38.18984 3.978516,76.96484 1.904202,38.775 3.71465,71.58323 4.023438,72.90625 0.308631,1.32306 3.673186,9.33507 7.476562,17.80469 6.126236,13.64198 6.847709,15.88817 6.326172,19.69336 -0.673134,4.911 0.709396,8.26885 3.957031,9.60937 h 0.002 C 43.619869,459.70285 49,456.11343 49,450.38477 c 0,-4.25636 -2.947106,-7.87399 -6.4375,-7.90039 -1.13382,-0.008 -2.602444,-0.35902 -3.263672,-0.7793 -0.661228,-0.42032 -4.332527,-7.73466 -8.158203,-16.25391 L 24.183594,409.96094 20.59375,338.98047 c -1.974425,-39.03954 -3.683994,-74.07335 -3.800781,-77.85352 l -0.212891,-6.87304 5.164063,-4.62696 C 24.584607,247.08212 60.937254,212.59996 102.52734,173 c 66.58398,-63.39786 75.99717,-72.01079 78.79493,-72.08789 5.04294,-0.13909 5.4854,-0.29027 7.63867,-2.601563 6.82938,-7.330469 -4.52917,-17.332164 -11.625,-10.236328 -2.08672,2.086639 -2.46907,3.218265 -2.01953,5.988281 0.55101,3.395679 0.24896,3.708993 -50.18555,51.67773 -27.907503,26.54314 -51.953519,49.35022 -53.435548,50.6836 L 69,198.84766 v -23.70508 -23.70703 l 24.605469,-25.2168 C 117.20654,102.03024 118.38046,100.98709 122.35547,100.68359 127.65032,100.27918 131,97.27641 131,92.935547 c 0,-4.683251 -2.94682,-7.835938 -7.32227,-7.835938 z m -0.36328,3.601563 c 1.70338,-0.0751 3.18555,1.708855 3.18555,4.408203 0,2.350677 -0.4739,2.946744 -2.53711,3.1875 -1.39559,0.162746 -2.8581,-0.02607 -3.25,-0.417969 -1.27124,-1.271244 -0.7541,-5.100424 0.87109,-6.449218 0.57015,-0.473169 1.16268,-0.703481 1.73047,-0.728516 z m 59.50586,0.871094 c 0.17136,-0.01296 0.34104,-0.01063 0.50781,0.0039 2.89146,0.252726 4.98534,4.490182 2.08985,6.607422 -2.32014,1.696403 -2.93283,1.658928 -4.89649,-0.304688 -1.94906,-1.949102 -1.65659,-4.265556 0.72852,-5.767578 0.52551,-0.330941 1.05623,-0.50017 1.57031,-0.539062 z M 377.06055,90.5 h 21.55273 c 11.85408,0 21.40405,0.345695 21.2207,0.769531 C 419.65065,91.69333 397,114.30724 369.5,141.52148 l -50,49.48047 -29.5,11.86914 c -16.22502,6.52781 -30.0625,12.0875 -30.75,12.35547 -0.92666,0.36121 -1.24566,-1.28575 -1.23438,-6.36914 0.008,-3.77136 0.3806,-7.43529 0.82813,-8.14062 0.44757,-0.7053 12.7048,-6.13784 27.23633,-12.07227 14.53151,-5.93442 27.35615,-11.29323 28.5,-11.91015 1.14385,-0.61698 8.40175,-7.67198 16.1289,-15.67774 C 343.71459,147.58206 345.02701,146.5 348.37891,146.5 353.0038,146.5 356,143.63915 356,139.22266 c 0,-6.55015 -5.36308,-10.13763 -10.88672,-7.28125 -3.40474,1.76065 -4.11328,3.30332 -4.11328,8.96093 0,4.13889 -0.34733,4.57977 -14.75,18.71875 L 311.5,174.10156 285,184.74023 c -14.57499,5.85147 -27.39997,10.7833 -28.5,10.96094 -1.89078,0.30561 -2.01378,1.20681 -2.27344,16.4961 L 253.95117,228.36914 233.3457,245.43555 212.74023,262.5 h -11.85156 c -13.6077,0 -12.66902,0.7854 -13.13281,-11 L 187.5,245 l -10.08984,-0.2832 -10.08985,-0.28321 -5.41015,3.70508 c -2.97578,2.03747 -7.77268,5.44136 -10.66016,7.56445 L 146,259.5625 v 12.91016 c 0,7.10018 -0.38246,13.14483 -0.84961,13.43359 -1.44903,0.8956 -9.12226,-5.44683 -9.78516,-8.08789 -0.34544,-1.37662 -0.41105,-8.12099 -0.14648,-14.98828 l 0.48047,-12.48633 8.3789,-8.42187 8.37696,-8.42188 h 29.6543 29.65429 l 4.51563,-3.75 c 2.48284,-2.06249 7.24977,-6.08464 10.59375,-8.9375 5.38023,-4.59016 6.4086,-5.09326 8.93359,-4.36914 3.38324,0.97032 8.57295,-0.88624 9.54297,-3.41406 2.79545,-7.28482 -3.55049,-13.69187 -10.80469,-10.90821 -1.92654,0.73932 -4.54492,5.48277 -4.54492,8.23438 0,1.9477 -14.26264,15.69028 -18.68359,18.00195 C 208.61378,229.77074 158,229.97823 158,228.57617 c 0,-0.50748 2.41064,-2.98245 5.35742,-5.5 L 168.71484,218.5 h 16.6875 16.6875 L 215.2207,206.25 C 239.54491,183.55927 233.58211,186.82669 265,178.97461 l 27.5,-6.87305 5.95312,-5.55078 c 3.2747,-3.05295 22.30169,-21.41328 42.28126,-40.80078 z m 240.01562,4 C 615.88482,94.5 615,95.14898 615,96.021484 c 0,0.836296 1.85982,8.950846 4.13281,18.033206 2.273,9.08239 3.91016,16.73449 3.63867,17.00586 -0.27146,0.27148 -8.09378,0.0835 -17.38281,-0.41993 -15.37697,-0.83329 -17.89705,-1.24485 -28.14844,-4.58203 -6.19271,-2.01594 -11.70521,-3.38949 -12.25,-3.05273 -2.79223,1.72568 -0.0586,3.41493 11.25977,6.95703 10.23278,3.20236 14.30839,3.94936 24.75,4.54297 6.875,0.39069 15.65,0.66318 19.5,0.60352 7.64277,-0.11864 7.83544,-0.3336 6.16797,-6.84961 -0.62042,-2.42442 0.22332,-3.7706 7.31641,-11.68165 C 638.39343,111.66063 642,107.41956 642,107.15234 642,106.14472 619.06115,94.5 617.07617,94.5 Z m -101.62109,16.17578 c 0.1089,-0.002 0.21144,0.004 0.30859,0.0234 2.47913,0.48877 3.90918,3.51161 2.625,5.55078 -0.60614,0.96249 -1.7882,1.88599 -2.625,2.05078 C 514.20921,118.60746 511,116.04632 511,114.5 c 0,-1.44967 2.82161,-3.78986 4.45508,-3.82422 z m -258.25586,12.90039 c 2.7485,0.13826 4.92008,3.872 2.76172,6.47266 C 259.29816,130.8474 257.96529,131.5 257,131.5 c -3.97886,0 -5.21235,-5.20632 -1.75,-7.38672 0.64967,-0.40913 1.31495,-0.56901 1.94922,-0.53711 z m 220.82226,8.98828 c -1.80237,-0.0679 -3.59546,0.50953 -4.99609,1.91016 -3.12573,3.12571 -3.50519,6.51184 -1.15625,10.3125 2.25391,3.6469 2.29301,3.28374 -1.95703,17.86523 l -1.9375,6.65039 -14.10742,5.64649 c -7.75888,3.10454 -14.34137,5.41073 -14.62696,5.125 -0.50237,-0.50238 0.81391,-5.85742 4.84375,-19.70508 1.60157,-5.50341 2.41687,-6.83417 4.79297,-7.81836 2.80458,-1.16171 5.12305,-4.63369 5.12305,-7.67383 0,-2.51334 -5.58312,-7.37695 -8.46875,-7.37695 -5.7594,0 -9.57796,7.91072 -6.0625,12.55859 0.8075,1.06761 1.48261,2.94053 1.5,4.16211 0.0317,2.21643 -6.32239,26.42515 -7.38867,28.15039 -0.30932,0.50053 -8.69514,4.1676 -18.63477,8.15039 -11.83938,4.74403 -18.55196,7.97595 -19.46484,9.36914 -0.7664,1.16966 -14.51897,32.27175 -30.56055,69.11719 -16.04158,36.84545 -29.49595,67.35414 -29.89844,67.79688 -0.61018,0.67113 -3.27148,-26.01429 -3.27148,-32.80274 0,-1.15328 6.62213,-15.79974 14.7168,-32.54883 8.09467,-16.749 14.9528,-31.23787 15.24023,-32.19726 0.28741,-0.9594 2.30219,-2.27821 4.47656,-2.92969 4.67092,-1.39944 6.81641,-4.06725 6.81641,-8.47656 0,-2.27127 -0.76749,-3.80854 -2.63477,-5.27734 -6.87947,-5.41138 -14.83678,0.28471 -12.28711,8.79492 1.12922,3.76902 0.90133,4.34745 -14.10937,35.73242 -10.63674,22.23972 -15.39187,33.26323 -15.69922,36.40039 -1.14848,11.72292 13.14964,128.49163 15.95899,130.33203 0.69884,0.45778 10.94648,4.75895 22.77148,9.55664 20.0443,8.13241 21.61811,8.95463 23.24219,12.16602 0.95811,1.89452 2.50689,4.00781 3.4414,4.69531 2.75398,2.02605 7.17023,1.48602 9.86133,-1.20508 6.47965,-6.47966 -1.28882,-16.31297 -9.52344,-12.05469 -3.18659,1.64788 -3.24937,1.6295 -23.85937,-6.56054 -11.36461,-4.51612 -21.37843,-8.93509 -22.25391,-9.82031 -1.18058,-1.19381 -3.04371,-12.15399 -7.21093,-42.42774 l -5.61915,-40.81836 13.53126,-31.18164 c 7.44212,-17.14976 13.91981,-31.57834 14.39257,-32.0625 0.48517,-0.49682 5.47496,8.34501 11.45703,20.29883 l 10.59766,21.17773 -2.39258,14.70313 c -2.05349,12.61644 -2.21252,15.19762 -1.11914,18.20117 0.70076,1.92499 8.53485,18.53283 17.4082,36.90625 14.60164,30.23441 16.03792,33.6795 15.12891,36.28711 -2.02097,5.79734 2.98182,11.6112 8.87695,10.31641 6.19748,-1.3612 8.28542,-9.59958 3.40625,-13.4375 -1.44916,-1.13995 -3.84725,-2.07227 -5.33007,-2.07227 -2.55639,0 -3.57045,-1.8177 -19.57422,-35.11133 -10.58194,-22.01427 -16.80598,-36.09623 -16.6836,-37.75 0.10735,-1.45077 1.15358,-8.50206 2.32422,-15.66797 l 2.12891,-13.02929 -11.61524,-23.21289 C 371.22708,288.96146 366,278.02508 366,277.42383 c 0,-2.33394 15.40458,-36.51637 17.16992,-38.09961 2.1628,-1.93969 11.6781,-5.3102 12.54492,-4.44336 0.32189,0.3219 -3.06666,9.42399 -7.53125,20.22656 l -8.11914,19.64063 10.09375,21.62695 c 5.55148,11.8941 10.70807,23.06365 11.45899,24.82227 1.22947,2.87939 1.05932,4.49489 -1.71485,16.24023 l -3.08007,13.04297 11.21484,23.46484 11.2168,23.46485 -1.61133,4.02343 c -2.61178,6.52751 0.43821,11.4668 7.08008,11.4668 6.90908,0 10.0656,-9.06236 4.64257,-13.32812 -1.44916,-1.13991 -3.24594,-2.07227 -3.99218,-2.07227 -1.36534,0 -6.88706,-10.47173 -18.19336,-34.5 l -6.11719,-13 2.13867,-9.25 c 1.17594,-5.08751 2.40277,-9.25 2.72656,-9.25 0.32377,0 3.91618,7.20662 7.98438,16.01367 6.57933,14.24334 7.26925,16.29273 6.24219,18.54688 -1.66097,3.64543 -1.43484,5.8136 0.91797,8.80468 1.59866,2.03237 2.95435,2.63477 5.92773,2.63477 4.38533,0 8,-3.4696 8,-7.67969 0,-2.93268 -4.15448,-7.32031 -6.93164,-7.32031 -1.11232,0 -2.67752,-1.01251 -3.47852,-2.25 C 422.31042,356.72839 385,275.97442 385,274.5625 c 0,-2.32373 16.1506,-40.54257 17.83594,-42.20703 1.51258,-1.4939 51.11577,-20.23775 51.78515,-19.56836 0.15722,0.15719 -3.67634,46.39516 -8.51953,102.75 -4.8432,56.35483 -8.62289,102.96606 -8.39844,103.58008 0.22451,0.61398 8.82166,3.46128 19.10352,6.32812 10.28186,2.86685 21.06523,5.88535 23.96289,6.70899 4.45975,1.26765 5.48801,2.02422 6.70117,4.92773 1.35894,3.2524 4.62465,5.41797 8.17188,5.41797 0.83151,0 2.87875,-1.36899 4.55078,-3.04102 2.54423,-2.54426 2.9388,-3.56358 2.41992,-6.25 -1.17901,-6.10405 -6.92505,-8.41061 -12.59961,-5.05859 -2.70583,1.5984 -3.49979,1.45454 -25.14453,-4.57422 -12.29352,-3.42414 -22.57254,-6.44774 -22.8418,-6.71679 -0.48415,-0.48416 0.9013,-17.55808 11.46875,-141.35938 5.29468,-62.02908 5.47188,-63.5402 7.71094,-65.19922 1.26069,-0.93411 17.13988,-12.58967 35.28711,-25.90234 l 32.99609,-24.20508 42.50391,-6.82227 c 23.37777,-3.75193 42.84336,-6.83058 43.25586,-6.8457 1.01136,-0.0339 0.95794,-2.779 -0.0664,-3.41211 -0.449,-0.27749 -20.27559,2.59893 -44.05859,6.39063 l -43.24219,6.89257 -6.6914,4.91211 c -39.80754,29.22346 -59.89065,43.90829 -60.86914,44.50391 -1.83519,1.11704 -74.69826,27.6456 -75.02735,27.31641 -0.40845,-0.40842 11.39877,-27.51133 13.14844,-30.18164 1.02439,-1.56344 11.31979,-6.08988 36.24414,-15.93555 19.14719,-7.56359 35.33382,-14.26157 35.9707,-14.88281 0.63689,-0.62121 2.12838,-4.7289 3.31446,-9.12891 3.4733,-12.88486 4.10255,-14.5 5.65039,-14.5 2.62574,0 6.37695,-4.70595 6.37695,-8 0,-4.5124 -4.0133,-7.78623 -7.97852,-7.93555 z m -129.16601,2.23633 c 0.76251,-0.0299 1.35422,0.47479 2.3125,1.6582 1.36891,1.69055 1.55835,2.68638 0.7832,4.13477 -0.98377,1.83817 -4.91221,2.61322 -6.28515,1.24023 -1.47523,-1.47518 -0.56871,-5.31509 1.51757,-6.43164 0.69635,-0.37267 1.21437,-0.58361 1.67188,-0.60156 z m 129.33398,1.90234 c 2.46823,0.16524 4.85394,2.91932 3.19922,5.54688 -1.50203,2.38511 -3.81849,2.67762 -5.76758,0.72852 -1.96362,-1.96362 -2.00121,-2.57635 -0.30468,-4.89649 0.65145,-0.89092 1.50368,-1.30867 2.3789,-1.37695 0.16411,-0.0128 0.32959,-0.013 0.49414,-0.002 z m -32.67383,5.07032 c 0.42662,-0.0213 0.87677,0.0334 1.34376,0.18164 2.52023,0.7999 3.40871,3.17474 2.10156,5.61719 -1.16355,2.17409 -3.96185,2.52836 -5.76172,0.72851 -2.45263,-2.45263 -0.66988,-6.37855 2.3164,-6.52734 z M 9.8007812,148.57617 c 0.6342688,-0.0319 1.2995538,0.12603 1.9492188,0.53516 2.385109,1.50202 2.677618,3.81847 0.728516,5.76758 -2.008252,2.0081 -3.8653937,2.06656 -5.4394535,0.16992 -2.1583583,-2.60069 0.013221,-6.33439 2.7617187,-6.47266 z M 84.164062,157.5 c 0.970659,0 2.231434,0.86973 2.800782,1.93359 1.338784,2.50156 1.321964,2.63503 -0.53711,4.49414 -1.87903,1.87911 -3.598783,2.00282 -5.228515,0.37305 C 78.68742,161.78902 80.557151,157.5 84.164062,157.5 Z m 159.025388,1.20312 c 2.46823,0.16524 4.85393,2.91932 3.19922,5.54688 -1.50202,2.38511 -3.81851,2.67758 -5.76758,0.72852 -1.96373,-1.96366 -2.0012,-2.57635 -0.30468,-4.89649 0.65145,-0.89092 1.50368,-1.30867 2.3789,-1.37695 0.16411,-0.0128 0.32959,-0.013 0.49414,-0.002 z m 130.99024,5.86915 c 0.51408,0.0389 1.0448,0.20811 1.57031,0.53906 2.38511,1.50202 2.6776,3.81851 0.72852,5.76758 -1.96364,1.96373 -2.57635,2.0012 -4.89649,0.30468 -2.89549,-2.11724 -0.80161,-6.35469 2.08985,-6.60742 0.16677,-0.0146 0.33645,-0.0165 0.50781,-0.004 z M 8.9550781,176.62695 c 0.2215188,0.008 0.4624936,0.0284 0.7285157,0.0606 3.8438552,0.46031 5.1996352,3.17873 2.8691402,5.75391 -2.19685,2.42747 -2.5900366,2.48419 -5.0097652,0.71484 -1.3701922,-1.00176 -1.6646721,-2.03863 -1.15625,-4.06445 0.486042,-1.93657 1.0177279,-2.51966 2.5683593,-2.46485 z m 103.8457019,2.94922 c 0.63427,-0.0319 1.29955,0.12603 1.94922,0.53516 2.38511,1.50202 2.67762,3.81851 0.72852,5.76758 -2.00822,2.00813 -3.8654,2.06656 -5.43946,0.16992 -2.15839,-2.60069 0.0132,-6.33439 2.76172,-6.47266 z m 25.96289,4.96485 c 0.73799,-0.0283 1.60779,0.16482 2.6543,0.5664 1.86425,0.71539 2.09724,4.47893 0.38281,6.19336 -1.70128,1.70128 -3.2255,1.49219 -5.22461,-0.7168 -1.38387,-1.52915 -1.51049,-2.3381 -0.62109,-4 0.71367,-1.33348 1.57862,-1.99574 2.80859,-2.04296 z m 47.65821,10.25 c 3.04859,0.1241 4.86715,4.02154 2.3789,6.50976 -2.47582,2.47586 -5.80078,0.8614 -5.80078,-2.8164 0,-1.99329 0.61612,-3.04534 2.04883,-3.5 0.47675,-0.15132 0.93752,-0.21109 1.37305,-0.19336 z m -93.500005,5.71875 c 2.714637,0.0481 4.942668,3.37725 2.501953,6.07421 -1.976995,2.18453 -2.269557,2.23629 -4.673828,0.83594 -2.02114,-1.17721 -2.291367,-3.98015 -0.550781,-5.7207 0.857716,-0.85772 1.817777,-1.2055 2.722656,-1.18945 z m -80.779297,0.082 c 3.567956,-0.0272 5.305313,5.06334 1.923828,6.87304 -2.525556,1.35164 -2.455701,1.36716 -4.6191404,-1.02343 -2.0832751,-2.30196 -1.1116054,-5.16985 1.9570314,-5.77344 0.253164,-0.0498 0.500417,-0.0744 0.738281,-0.0762 z m 226.189452,4.90234 c 1.65651,0.003 3.24085,1.13222 3.47852,3.18945 0.44027,3.81094 -2.79453,5.45978 -5.85157,2.98438 -1.91641,-1.55184 -2.05886,-2.11392 -1.02539,-4.04492 0.777,-1.45183 2.11004,-2.13102 3.39844,-2.12891 z m -114.63672,12.56055 c -2.1365,-0.0207 -4.36525,0.72683 -5.98242,2.24609 -2.27505,2.13725 -3.00954,2.19922 -25.748046,2.19922 H 68.560547 L 50.279297,240.7793 32,259.06055 l 0.05664,6.46875 c 0.03129,3.5585 1.533808,36.17072 3.33789,72.4707 l 3.279297,66 -2.835937,3.04688 c -3.839622,4.12451 -3.927547,9.45123 -0.203125,12.38085 1.449185,1.13991 3.638588,2.07227 4.865234,2.07227 1.226683,0 3.41605,-0.93236 4.865234,-2.07227 3.659528,-2.87871 3.639201,-8.26979 -0.04492,-12.11523 -2.675446,-2.79254 -2.680494,-2.82819 -3.951171,-27.55469 -0.69978,-13.61722 -1.293856,-28.64446 -1.320313,-33.39453 L 40,337.72656 l 11.835938,-12.88281 11.833984,-12.88477 4.523437,0.35938 c 3.949644,0.31415 4.792403,0.0162 6.664063,-2.36328 2.697373,-3.42913 2.719053,-6.45302 0.07031,-9.82031 -4.466759,-5.67856 -13.897314,-2.10498 -13.957031,5.28906 C 60.945504,308.54576 59.661212,310.39592 50.847656,320 45.295644,326.05 40.414803,331.13196 40,331.29297 c -0.414841,0.16089 -1.07912,-4.45582 -1.474609,-10.25781 l -0.71875,-10.54883 17.871093,-18.24219 C 65.506396,282.21025 78.233958,269.1625 83.962891,263.25 c 9.839017,-10.15423 10.641438,-10.75101 14.476562,-10.78125 4.678037,-0.0367 7.059987,-1.52348 8.496097,-5.30078 2.06581,-5.43341 -3.16072,-11.57806 -8.677738,-10.20117 C 93.792343,238.08127 92,240.36169 92,244.92773 c 0,4.02857 -0.578094,4.71763 -26.75,31.89258 -31.19365,32.38919 -27.595922,32.06357 -28.726562,2.60352 L 35.791016,260.33203 52.369141,243.66602 68.947266,227 l 22.4375,-0.30273 c 19.589144,-0.26412 22.608754,-0.0985 23.777344,1.29882 3.52021,4.20938 5.45281,5.50391 8.21289,5.50391 6.49871,0 9.96574,-7.88842 5.75391,-13.08984 -1.25277,-1.54708 -3.29709,-2.33474 -5.4336,-2.35547 z m -0.38086,3.64648 c 1.70338,-0.0751 3.18555,1.70886 3.18555,4.40821 0,2.35062 -0.4739,2.94479 -2.53711,3.18554 -1.39559,0.16275 -2.8581,-0.0241 -3.25,-0.41601 -1.27124,-1.27125 -0.7541,-5.10042 0.87109,-6.44922 0.57015,-0.47317 1.16268,-0.70348 1.73047,-0.72852 z m -108.115231,2.875 c 2.748506,0.13827 4.920102,3.87197 2.761719,6.47266 -1.57406,1.89675 -3.431202,1.83833 -5.439454,-0.16992 -1.949064,-1.94907 -1.656593,-4.26556 0.728516,-5.76758 0.649665,-0.40913 1.314948,-0.56707 1.949219,-0.53516 z m 349.990231,0.12695 c 2.46823,0.16524 4.85394,2.91932 3.19922,5.54688 -1.50203,2.38511 -3.81849,2.67762 -5.76758,0.72852 -1.96362,-1.96362 -2.00121,-2.57635 -0.30468,-4.89649 0.65145,-0.89092 1.50368,-1.30867 2.3789,-1.37695 0.16411,-0.0128 0.32959,-0.013 0.49414,-0.002 z M 253.41602,234.5 c 0.32058,0 0.58203,2.53391 0.58203,5.63086 0,5.31269 -0.24068,5.8648 -4.25,9.75 -4.67671,4.53192 -36.56889,31.08247 -40.67383,33.86133 -2.14522,1.45217 -4.92456,1.74622 -16.63867,1.75 l -14.0625,0.008 -2.875,-3 c -3.60518,-3.76297 -8.17531,-4.03954 -11.32617,-0.68555 -4.33512,4.6145 -1.84771,12.06789 4.43164,13.2793 2.52937,0.48797 3.7609,0.0235 6.63281,-2.49805 l 3.52539,-3.0957 h 15.00781 15.00781 l 21.36133,-17.64648 c 11.74829,-9.70602 21.92188,-18.0867 22.60938,-18.62305 0.97727,-0.76229 1.24546,0.74258 1.22656,6.89648 l -0.0234,7.87305 -22.57226,18.25 -22.57227,18.25 -8.1543,-0.21484 c -4.48475,-0.11827 -13.49458,-0.35859 -20.02148,-0.53321 l -11.86719,-0.31836 -9.38281,-6.54101 -9.38281,-6.54297 v -14.34375 -14.3457 l 6.98437,-5.08008 c 3.84159,-2.79413 7.19858,-5.08008 7.45899,-5.08008 0.26025,0 0.60499,3.48749 0.76562,7.75 l 0.29102,7.75 23.63281,-0.0586 c 20.4455,-0.0503 23.9819,-0.28691 26.21484,-1.75 1.41956,-0.93015 10.43408,-8.21604 20.03321,-16.19141 9.59916,-7.97537 17.71622,-14.5 18.03711,-14.5 z m -181.07227,1.25391 c -0.61579,-0.0433 -1.239842,0.006 -1.861328,0.16211 -6.395754,1.6052 -8.545089,8.61119 -4.027344,13.1289 4.413165,4.41321 11.727754,2.45541 13.033203,-3.48828 1.022419,-4.65512 -2.834004,-9.49986 -7.144531,-9.80273 z m -0.800781,4.02734 c 0.430591,-0.0197 0.886081,0.0379 1.357422,0.1875 2.508245,0.79608 3.650286,4.16458 2.060547,6.08008 -1.463434,1.76341 -4.13365,1.88002 -5.761719,0.25195 -2.468575,-2.46857 -0.670392,-6.38176 2.34375,-6.51953 z M 277.5,240.59961 c -1.59683,0 -3.19376,0.65787 -4.86523,1.97266 -3.79004,2.9811 -3.64681,8.28735 0.33398,12.39453 l 2.96875,3.06445 7.57422,55.35547 c 4.16576,30.44587 7.42272,55.80816 7.23828,56.36133 -0.1844,0.55313 -3.04646,-3.00805 -6.36133,-7.91407 l -6.02734,-8.91992 -2.7461,-22.5957 -2.74414,-22.59766 2.56446,-2.56445 c 3.35909,-3.35913 3.40293,-7.90762 0.10937,-11.20117 -3.94163,-3.94163 -9.59911,-3.18425 -12.08203,1.61719 -2.13324,4.12524 -1.85141,5.49288 2.01758,9.77539 l 3.48242,3.85351 2.51758,20.89844 c 1.38516,11.49475 2.75174,21.90589 3.03515,23.13477 0.28351,1.22886 4.3963,7.93896 9.14063,14.91015 10.10574,14.84893 11.24728,18.12846 7.74805,22.28711 -4.11511,4.89048 -2.86001,11.35332 2.5957,13.35938 h 0.002 c 2.85479,1.04968 4.74178,0.70034 7.36524,-1.36329 3.93281,-3.09354 3.64848,-8.26731 -0.70703,-12.88476 L 297.32031,386 l -6.71875,-49.37109 -6.7207,-49.37305 5.81055,-10.0957 c 5.23861,-9.10266 6.1532,-10.1658 9.28711,-10.79883 8.76208,-1.76995 9.51171,-13.49773 0.98242,-15.3711 -5.97834,-1.31304 -11.24734,4.98208 -8.9043,10.63868 1.0249,2.4743 0.6939,3.55312 -3.17187,10.34765 -4.98112,8.75479 -4.97527,8.76024 -6.86719,-5.73047 l -1.27344,-9.75586 2.62891,-2.0664 c 3.71467,-2.9235 3.71248,-8.92591 -0.008,-11.85156 -1.67147,-1.31479 -3.2684,-1.97266 -4.86523,-1.97266 z m -177.984375,0.17383 c 0.426621,-0.0213 0.876765,0.0334 1.343755,0.18164 2.52021,0.7999 3.40871,3.17474 2.10156,5.61719 -1.16357,2.17409 -3.961835,2.52836 -5.761721,0.72851 -2.452635,-2.45263 -0.669938,-6.37852 2.316406,-6.52734 z m 177.968755,4 c 2.98634,0.14881 4.769,4.07471 2.3164,6.52734 -1.77214,1.77211 -3.50021,1.46501 -5.16797,-0.91601 -1.76016,-2.51301 -1.188,-4.57408 1.50781,-5.42969 0.467,-0.14822 0.91713,-0.2029 1.34376,-0.18164 z m 130.83203,3.18945 c -0.78229,-0.0111 -1.28599,0.0173 -1.41602,0.0977 -0.49538,0.30618 -0.90039,1.1692 -0.90039,1.91797 0,0.94537 2.06256,1.57384 6.75,2.05664 3.7125,0.38237 9.45,1.03647 12.75,1.45312 3.3,0.41669 6.35149,0.81485 6.78125,0.88477 0.98624,0.16002 2.15647,-2.76738 1.40625,-3.51758 -0.73401,-0.73401 -19.8951,-2.81459 -25.37109,-2.89258 z m -109.83203,6.81055 c 2.98626,0.14881 4.76903,4.07471 2.3164,6.52734 -1.79987,1.79989 -4.59815,1.44558 -5.76172,-0.72851 -1.30715,-2.44245 -0.41865,-4.81729 2.10156,-5.61719 0.46698,-0.14822 0.91714,-0.2029 1.34376,-0.18164 z M 52.5,257.5 c -1.226683,0 -3.41605,0.93232 -4.865234,2.07227 -3.72223,2.92788 -3.72223,8.92754 0,11.85546 C 49.08395,272.56764 51.273317,273.5 52.5,273.5 c 1.226646,0 3.41605,-0.93236 4.865234,-2.07227 C 59.3976,269.82907 60,268.47339 60,265.5 60,262.52665 59.3976,261.17089 57.365234,259.57227 55.91605,258.43232 53.726646,257.5 52.5,257.5 Z m -0.126953,4.29883 c 3.336039,-5.2e-4 5.156841,3.77281 2.427734,6.50195 C 54.140762,268.96076 53.104989,269.5 52.5,269.5 c -3.43714,0 -4.853337,-6.4354 -1.640625,-7.45508 0.529602,-0.16809 1.037095,-0.24602 1.513672,-0.24609 z m 357.111333,0.78125 c -2.68307,0.0625 -3.49895,0.61313 -3.29688,1.66992 0.2744,1.43509 2.13314,1.9481 10.32422,2.85156 15.7574,1.73783 17.69239,1.6988 17.30078,-0.35156 -0.27064,-1.41694 -2.14104,-1.97122 -9.82422,-2.91406 -7.27091,-0.89222 -11.82089,-1.31832 -14.5039,-1.25586 z m -314.980474,7.18945 c 0.42512,-0.0218 0.874504,0.034 1.339844,0.18164 2.538482,0.80568 3.373272,4.18923 1.496094,6.06641 -1.794709,1.79463 -3.532852,1.89094 -5.140625,0.2832 -2.446583,-2.44658 -0.671153,-6.37827 2.304687,-6.53125 z M 405.75,277.52148 c -1.30274,-0.0363 -0.81037,3.97362 0.5,4.07227 0.6875,0.0517 5.975,0.6648 11.75,1.36133 14.75937,1.78019 14,1.80421 14,-0.45508 0,-1.09999 -0.3375,-2.01235 -0.75,-2.03125 -0.4125,-0.0172 -6.15,-0.68217 -12.75,-1.47852 -6.6,-0.79634 -12.3375,-1.45741 -12.75,-1.46875 z m -236.04688,6.09375 c 1.11306,-0.002 2.22898,0.43814 2.95118,1.42579 1.12263,1.53717 1.11966,2.1689 -0.0254,3.89648 -2.56131,3.8646 -6.62696,2.56415 -6.62696,-2.11914 0,-1.96793 1.84613,-3.19908 3.70117,-3.20313 z M 92.388672,295.5 c -6.740296,0 -9.896051,7.70186 -5.203125,12.69727 l 2.185547,2.32617 -15.222656,40.3789 -15.222657,40.37891 2.746094,24.35937 2.748047,24.36133 -2.28125,4.71289 c -2.017777,4.16818 -2.129983,5.03257 -0.960938,7.47071 0.726993,1.51619 2.447236,3.33614 3.822266,4.04492 5.09023,2.6239 11,-1.15196 11,-7.02735 0,-3.1927 -3.310498,-7.70312 -5.654297,-7.70312 -1.725505,0 -1.878026,-0.83872 -4.820312,-26.76367 l -2.527344,-22.26563 4.4375,-12.23632 C 80.348152,344.62095 93.20604,311.88248 94.626953,311 c 4.788321,-2.97381 5.773437,-4.33843 5.773437,-8 0,-4.61628 -3.081098,-7.5 -8.011718,-7.5 z m 177.800778,0.20312 c 2.46823,0.16524 4.85393,2.91932 3.19922,5.54688 -1.50202,2.38511 -3.81851,2.67762 -5.76758,0.72852 -1.96373,-1.96362 -2.0012,-2.57635 -0.30468,-4.89649 0.65145,-0.89092 1.50368,-1.30867 2.3789,-1.37695 0.16411,-0.0128 0.32959,-0.0129 0.49414,-0.002 z m 144.38672,2.26368 c -2.06135,-0.0229 -3.53822,0.0949 -3.85156,0.4082 -1.3002,1.3002 -0.79538,2.46517 9.91211,22.875 4.11174,7.83749 8.08977,14.25 8.83984,14.25 1.76003,0 2.21822,-2.49327 3.63086,-19.8125 0.67881,-8.32233 0.79511,-14.6739 0.2793,-15.17578 -1.17062,-1.13902 -12.6265,-2.47624 -18.81055,-2.54492 z M 92.404297,300 c 3.585864,0 5.554986,2.63995 3.666015,4.91602 -1.642539,1.97899 -5.945553,2.071 -6.685546,0.14257 C 88.228646,302.04578 89.449046,300 92.404297,300 Z m -24.134766,1.66211 c 0.163606,0.002 0.33326,0.0122 0.507813,0.0332 3.352781,0.40437 5.052981,3.09997 3.292968,5.22071 -1.818552,2.19133 -5.795828,2.02331 -6.52539,-0.2754 -0.92328,-2.90893 0.27052,-5.00525 2.724609,-4.97851 z M 116.68945,306.5 c -6.4295,0 -9.17645,5.24279 -6.55078,12.50391 1.05721,2.92376 -0.004,6.02514 -14.999998,43.83398 -14.27229,35.98416 -16.138414,41.35173 -16.13086,46.42578 0.01198,9.06599 1.826965,22.50453 3.220704,23.84766 0.699515,0.67415 9.371465,4.59375 19.271484,8.71094 24.75904,10.29668 23.5,9.63207 23.5,12.38281 0,1.31172 1.10507,3.48983 2.45508,4.83984 1.54722,1.54723 3.59657,2.45508 5.54492,2.45508 3.76173,0 8,-3.87849 8,-7.32031 0,-2.87335 -3.26432,-7.31243 -6.02148,-8.1875 -1.08348,-0.3439 -3.44522,-0.0914 -5.24805,0.56054 -3.06331,1.10771 -4.60836,0.64104 -23.58008,-7.13867 -11.165475,-4.57863 -20.694647,-9.05995 -21.175781,-9.95898 -0.481171,-0.89908 -1.183942,-6.81641 -1.5625,-13.14844 l -0.6875,-11.51367 16.259766,-40.72266 C 113.25636,328.32607 115.56678,323.20817 117.87305,322.22852 122.57988,320.22915 124,318.40261 124,314.3457 124,309.47064 121.23294,306.5 116.68945,306.5 Z M 116.5,311 c 2.37116,0 3.06803,0.4828 3.32617,2.30469 0.17972,1.26776 -0.21153,2.95528 -0.87109,3.75 -0.65957,0.79472 -1.76479,1.44531 -2.45508,1.44531 -1.97541,0 -3.68409,-2.66972 -3.32617,-5.19531 C 113.43212,311.4828 114.12884,311 116.5,311 Z m -48.175781,11.53516 c -2.021614,-0.0781 -4.129306,0.6801 -5.869141,2.41992 -3.986003,3.986 -3.060048,9.59842 2.044922,12.39062 3.287887,1.79834 5.486581,1.32006 8.693359,-1.88672 2.544038,-2.54422 2.938776,-3.56358 2.419922,-6.25 -0.790582,-4.09306 -3.919707,-6.54362 -7.289062,-6.67382 z m -0.523438,4.04101 c 0.634273,-0.0319 1.299547,0.12603 1.949219,0.53516 2.385109,1.50202 2.677618,3.81847 0.728516,5.76758 -2.008215,2.0081 -3.865394,2.06656 -5.439454,0.16992 -2.158383,-2.60069 0.0132,-6.33439 2.761719,-6.47266 z m 90.546879,3.02149 c -1.79189,0.079 -3.62022,1.02256 -5.42383,2.82617 -4.64323,4.64322 -3.56928,7.78156 4.81836,14.07617 1.38395,1.03861 6.49943,14.59269 16.6289,44.0625 C 182.41737,413.97153 189,434.07845 189,435.24609 c 0,1.16765 -0.40333,3.18537 -0.89648,4.48243 -1.18791,3.12442 1.07765,8.50236 4.10546,9.74609 5.3469,2.1964 10.79102,-1.31213 10.79102,-6.95508 0,-4.18462 -2.95194,-7.63489 -7,-8.18164 -2.34833,-0.31718 -3.43031,-3.03504 -17.83594,-44.80664 -14.87353,-43.12853 -15.28815,-44.55039 -13.75,-47.1543 2.27585,-3.85266 1.96388,-7.58889 -0.86914,-10.42187 -1.65122,-1.65124 -3.40538,-2.43646 -5.19726,-2.35742 z m 0.13672,4.17578 c 2.98634,0.14882 4.76904,4.07474 2.3164,6.52734 -1.79989,1.79989 -4.59815,1.44562 -5.76172,-0.72851 -1.30715,-2.44245 -0.41865,-4.81729 2.10156,-5.61719 0.467,-0.14822 0.91713,-0.2029 1.34376,-0.18164 z m 22.86523,6.83398 c -1.70481,0.0347 -3.36541,0.81854 -4.89453,2.34766 -3.81173,3.81173 -3.38361,8.73584 1.05469,12.12109 3.31472,2.52824 4.03564,4.28739 12.95703,31.6836 8.95283,27.49285 9.37033,29.15549 7.99023,31.82421 -2.73377,5.28658 -1.6564,9.49025 2.94336,11.48047 5.4994,2.37944 10.61417,-0.96773 10.58399,-6.92578 -0.0199,-4.06832 -1.10221,-5.66859 -5.1211,-7.57812 -3.19317,-1.51718 -3.53765,-2.33874 -12.625,-29.99414 l -9.34375,-28.4336 2.20117,-2.97461 c 2.96969,-4.01669 2.73427,-8.54706 -0.59179,-11.4082 -1.70117,-1.4634 -3.44949,-2.17726 -5.1543,-2.14258 z m 0.2793,3.89258 c 1.40356,0 4.37109,2.71568 4.37109,4 0,0.47142 -0.708,1.56343 -1.57227,2.42773 -0.8643,0.86427 -2.12308,1.57227 -2.79882,1.57227 -1.72396,0 -3.62891,-2.09958 -3.62891,-4 0,-1.90046 1.90495,-4 3.62891,-4 z m -124.101566,3 c -2.47166,0 -7.206735,2.72198 -7.90625,4.54492 -1.247471,3.25081 -0.564126,6.60193 1.833984,9 C 53.002303,362.59218 55.051616,363.5 57,363.5 c 3.855383,0 8,-3.90169 8,-7.53125 C 65,353.03047 60.1201,347.5 57.527344,347.5 Z m -0.927735,4.15234 c 3.028725,-0.10929 5.828268,4.02138 3.201172,6.64844 C 59.1408,358.9608 57.879987,359.5 57,359.5 c -3.670224,0 -5.311736,-4.66757 -2.470703,-7.02539 0.65953,-0.54736 1.371376,-0.79704 2.070312,-0.82227 z M 426.48438,366.5 c 2.70064,0 4.96286,2.39117 4.18359,4.42188 -1.02075,2.66001 -4.3482,3.75333 -6.09766,2.0039 -2.65546,-2.65546 -1.53269,-6.42578 1.91407,-6.42578 z M 207.2168,385.1582 c 0.13947,-0.009 0.27925,-0.008 0.41797,0.002 2.40447,0.16942 4.60016,3.03387 3.35351,5.36328 -1.01412,1.8949 -4.92686,2.70595 -6.32226,1.31054 -1.39541,-1.39536 -0.58436,-5.30814 1.31054,-6.32226 0.40317,-0.21578 0.82183,-0.32757 1.24024,-0.35352 z m 89.15625,7.64063 c 3.33604,-5e-4 5.15686,3.77281 2.42773,6.50195 -0.66002,0.65998 -1.69579,1.19922 -2.30078,1.19922 -3.43714,0 -4.85334,-6.4354 -1.64062,-7.45508 0.52955,-0.16808 1.03709,-0.24602 1.51367,-0.24609 z m 127.26172,8.85156 c 0.18737,-0.003 0.38044,0.009 0.58007,0.0391 2.93338,0.43813 4.58184,3.32473 3.17383,5.56055 -1.57072,2.49437 -3.7319,2.63348 -5.77929,0.37109 -2.14788,-2.37337 -0.78524,-5.92864 2.02539,-5.9707 z M 40.628906,409.5 c 1.403566,0 4.371094,2.71572 4.371094,4 0,0.47146 -0.708001,1.56347 -1.572266,2.42773 C 42.563432,416.79204 41.304648,417.5 40.628906,417.5 38.90495,417.5 37,415.40046 37,413.5 c 0,-1.90042 1.90495,-4 3.628906,-4 z m 274.914064,6.28125 c 0.43059,-0.0197 0.88608,0.0379 1.35742,0.1875 2.50824,0.79612 3.65029,4.16454 2.06055,6.08008 -1.46343,1.76341 -4.13365,1.88002 -5.76172,0.25195 -2.46857,-2.46857 -0.6704,-6.38173 2.34375,-6.51953 z m -111.43555,3.86914 c 0.22765,-0.001 0.46321,0.0107 0.70899,0.0391 2.06951,0.2391 2.75527,0.92466 2.99414,2.99414 0.4543,3.93238 -3.01393,5.61303 -5.81055,2.81641 -2.6218,-2.6218 -1.30724,-5.83273 2.10742,-5.84961 z m 233.67774,7.85742 C 435.38335,427.49768 434,430.58039 434,435.94531 v 4.57813 l 17.25,-0.63867 c 24.57498,-0.91087 25.0389,-2.45111 2.56641,-8.50977 -7.87448,-2.123 -15.0881,-3.86341 -16.03125,-3.86719 z m -17.02149,3.03321 c 0.73799,-0.0283 1.60779,0.16482 2.6543,0.5664 1.86423,0.71535 2.09725,4.47889 0.38281,6.19336 -1.70128,1.70128 -3.22553,1.49215 -5.22461,-0.7168 -1.38388,-1.52919 -1.51052,-2.3381 -0.62109,-4 0.71366,-1.33351 1.57862,-1.99575 2.80859,-2.04296 z m 74.03711,0.0351 c 0.63427,-0.0319 1.29955,0.12603 1.94922,0.53516 2.38511,1.50206 2.67761,3.81847 0.72852,5.76758 -2.00823,2.00813 -3.86539,2.06656 -5.43946,0.16992 -2.15837,-2.60069 0.0132,-6.33439 2.76172,-6.47266 z m -280.5,2.73438 c -3.08171,-0.0405 -3.16402,1.79351 -3.80273,6.05273 -0.50873,3.39251 -0.31879,4.79565 0.75781,5.58399 0.90784,0.66466 6.9119,0.92466 16.2832,0.70507 25.20344,-0.59059 25.44731,-2.65709 1.07032,-9.10742 -7.69985,-2.03743 -11.91171,-3.20287 -14.3086,-3.23437 z m 119.16797,2.29687 c 0.19132,0.004 0.3881,0.0187 0.58789,0.0469 1.9722,0.2784 2.44336,0.9248 2.44336,3.3457 0,2.51082 -0.43831,3.05127 -2.68359,3.31055 -1.83793,0.21233 -3.00632,-0.29669 -3.71094,-1.61328 -1.35101,-2.5244 0.49346,-5.14397 3.36328,-5.08985 z m -70.93555,3.00196 c 2.83099,-0.0497 4.71048,2.56676 3.39258,5.02929 -1.18144,2.20751 -5.7427,2.50021 -6.54101,0.41992 -1.02709,-2.67662 0.10375,-5.05469 2.57031,-5.40429 0.19651,-0.0279 0.38939,-0.0416 0.57812,-0.0449 z M 195.5,439 c 2.37116,0 3.06803,0.48284 3.32617,2.30469 0.17972,1.2678 -0.21153,2.95528 -0.87109,3.75 -0.65957,0.79472 -1.76475,1.44531 -2.45508,1.44531 -1.97537,0 -3.68409,-2.66968 -3.32617,-5.19531 C 192.43208,439.48284 193.12884,439 195.5,439 Z m 150.10742,4.67188 c -0.0782,0.003 -0.12802,0.0147 -0.14844,0.0351 -0.88253,0.88252 -2.43344,11.0262 -1.83398,11.99609 0.85579,1.38471 33.93187,0.64134 35.36719,-0.79492 0.78891,-0.78943 0.73476,-1.38594 -0.19922,-2.15039 -1.47121,-1.20416 -30.76238,-9.18251 -33.18555,-9.08593 z m -260.738279,1.30468 c -0.295097,-0.0149 -0.549393,-0.0137 -0.767579,0.004 -0.581822,0.0459 -0.905394,0.20283 -1.0625,0.45703 -1.13612,1.83836 -2.15128,10.07323 -1.392578,11.30078 0.851037,1.37703 34.072236,0.44148 35.513676,-1 1.8043,-1.80427 -2.81596,-3.74708 -18.492191,-7.77734 -7.668514,-1.97153 -11.733153,-2.88022 -13.798828,-2.98438 z m -16.777344,0.65821 c 0.704576,0.003 1.48908,0.15143 2.326172,0.47265 1.864214,0.71535 2.097244,4.47889 0.382812,6.19336 -1.780044,1.78001 -3.503432,1.46322 -5.197265,-0.95508 -2.122184,-3.02984 -0.564884,-5.72556 2.488281,-5.71093 z m -26.251953,1.01562 c 3.165531,-5.6e-4 4.554357,2.8432 2.55664,5.69531 -1.753058,2.50284 -3.654252,2.75413 -5.351562,0.70899 -2.067326,-2.49098 -0.882153,-6.01639 2.138672,-6.36524 0.226351,-0.0262 0.445214,-0.039 0.65625,-0.0391 z m 91.255856,3.25781 c 0.45098,-0.0233 0.89045,0.033 1.29297,0.1875 2.12738,0.81634 3.02296,4.20517 1.57227,5.95313 -2.35881,2.8422 -6.96094,1.04868 -6.96094,-2.71289 0,-1.71769 2.14145,-3.32675 4.0957,-3.42774 z m 264.54297,0.0371 c 0.20794,-0.0127 0.4217,-0.007 0.63867,0.0156 0.57859,0.0611 1.18432,0.25134 1.79493,0.57812 2.1741,1.16357 2.52838,3.96183 0.72851,5.76172 -2.803,2.80301 -7.53142,0.0757 -6.3457,-3.66016 0.52493,-1.65387 1.72802,-2.60613 3.18359,-2.69531 z m -67.31445,4.95117 c 0.46627,0.0353 0.96858,0.22506 1.5918,0.5586 2.31038,1.23647 2.72952,4.00091 0.88476,5.8457 C 332.14078,461.96084 330.88,462.5 330,462.5 c -1.86261,0 -4,-1.89418 -4,-3.54492 0,-0.62975 0.86177,-1.9248 1.91602,-2.87891 0.95573,-0.86492 1.63107,-1.23847 2.4082,-1.17969 z"
       inkscape:connector-curvature="0" />
  </g>
</svg>
