<?xml version="1.0" encoding="utf-8"?>
<!-- Generator: Adobe Illustrator 19.0.0, SVG Export Plug-In . SVG Version: 6.00 Build 0)  -->
<svg version="1.1" id="Layer_1" xmlns="http://www.w3.org/2000/svg" xmlns:xlink="http://www.w3.org/1999/xlink" x="0px" y="0px"
	 viewBox="0 0 400.5 302" style="enable-background:new 0 0 400.5 302;" xml:space="preserve">
<style type="text/css">
	
		.st0{clip-path:url(#SVGID_2_);fill:none;stroke:#CCCCCC;stroke-width:0.8;stroke-linecap:round;stroke-linejoin:round;stroke-miterlimit:10;}
	.st1{clip-path:url(#SVGID_4_);fill:#262626;}
	
		.st2{clip-path:url(#SVGID_6_);fill:none;stroke:#CCCCCC;stroke-width:0.8;stroke-linecap:round;stroke-linejoin:round;stroke-miterlimit:10;}
	.st3{clip-path:url(#SVGID_8_);fill:#262626;}
	
		.st4{clip-path:url(#SVGID_10_);fill:none;stroke:#CCCCCC;stroke-width:0.8;stroke-linecap:round;stroke-linejoin:round;stroke-miterlimit:10;}
	.st5{fill:#262626;}
	.st6{clip-path:url(#SVGID_12_);fill:#262626;}
	
		.st7{clip-path:url(#SVGID_14_);fill:none;stroke:#CCCCCC;stroke-width:0.8;stroke-linecap:round;stroke-linejoin:round;stroke-miterlimit:10;}
	.st8{clip-path:url(#SVGID_16_);fill:#262626;}
	
		.st9{clip-path:url(#SVGID_18_);fill:none;stroke:#CCCCCC;stroke-width:0.8;stroke-linecap:round;stroke-linejoin:round;stroke-miterlimit:10;}
	.st10{clip-path:url(#SVGID_20_);fill:#262626;}
	
		.st11{clip-path:url(#SVGID_22_);fill:none;stroke:#CCCCCC;stroke-width:0.8;stroke-linecap:round;stroke-linejoin:round;stroke-miterlimit:10;}
	.st12{clip-path:url(#SVGID_24_);fill:#262626;}
	
		.st13{clip-path:url(#SVGID_26_);fill:none;stroke:#CCCCCC;stroke-width:0.8;stroke-linecap:round;stroke-linejoin:round;stroke-miterlimit:10;}
	.st14{clip-path:url(#SVGID_28_);fill:#262626;}
	
		.st15{clip-path:url(#SVGID_30_);fill:none;stroke:#CCCCCC;stroke-width:0.8;stroke-linecap:round;stroke-linejoin:round;stroke-miterlimit:10;}
	.st16{clip-path:url(#SVGID_32_);fill:#262626;}
	
		.st17{clip-path:url(#SVGID_34_);fill:none;stroke:#CCCCCC;stroke-width:0.8;stroke-linecap:round;stroke-linejoin:round;stroke-miterlimit:10;}
	.st18{clip-path:url(#SVGID_36_);fill:#262626;}
	
		.st19{clip-path:url(#SVGID_38_);fill:none;stroke:#CCCCCC;stroke-width:0.8;stroke-linecap:round;stroke-linejoin:round;stroke-miterlimit:10;}
	.st20{clip-path:url(#SVGID_40_);fill:#262626;}
	
		.st21{clip-path:url(#SVGID_42_);fill:none;stroke:#CCCCCC;stroke-width:0.8;stroke-linecap:round;stroke-linejoin:round;stroke-miterlimit:10;}
	.st22{clip-path:url(#SVGID_44_);fill:#262626;}
	
		.st23{clip-path:url(#SVGID_46_);fill:none;stroke:#CCCCCC;stroke-width:0.8;stroke-linecap:round;stroke-linejoin:round;stroke-miterlimit:10;}
	.st24{clip-path:url(#SVGID_48_);fill:#262626;}
	
		.st25{clip-path:url(#SVGID_50_);fill:none;stroke:#CCCCCC;stroke-width:0.8;stroke-linecap:round;stroke-linejoin:round;stroke-miterlimit:10;}
	.st26{clip-path:url(#SVGID_52_);fill:#262626;}
	
		.st27{clip-path:url(#SVGID_54_);fill:none;stroke:#CCCCCC;stroke-width:0.8;stroke-linecap:round;stroke-linejoin:round;stroke-miterlimit:10;}
	.st28{clip-path:url(#SVGID_56_);fill:#262626;}
	
		.st29{clip-path:url(#SVGID_58_);fill:none;stroke:#CCCCCC;stroke-width:0.8;stroke-linecap:round;stroke-linejoin:round;stroke-miterlimit:10;}
	.st30{clip-path:url(#SVGID_60_);fill:#262626;}
	.st31{fill:none;stroke:#1F77B4;stroke-width:1.5;stroke-linecap:round;stroke-linejoin:round;stroke-miterlimit:10;}
	
		.st32{clip-path:url(#SVGID_62_);fill:none;stroke:#FF7F0E;stroke-width:1.5;stroke-linejoin:round;stroke-miterlimit:10;stroke-dasharray:5.55,2.4;}
	
		.st33{clip-path:url(#SVGID_62_);fill:none;stroke:#2CA02C;stroke-width:1.5;stroke-linejoin:round;stroke-miterlimit:10;stroke-dasharray:5.55,2.4;}
	.st34{fill:none;stroke:#CCCCCC;stroke-width:0.8;stroke-linecap:square;stroke-miterlimit:10;}
	.st35{clip-path:url(#SVGID_64_);fill:#FFFFFF;}
	.st36{clip-path:url(#SVGID_64_);fill:none;stroke:#FFFFFF;stroke-miterlimit:10;}
	.st37{clip-path:url(#SVGID_64_);fill:#262626;}
	
		.st38{clip-path:url(#SVGID_64_);fill:none;stroke:#1F77B4;stroke-width:1.5;stroke-linecap:round;stroke-linejoin:round;stroke-miterlimit:10;}
	
		.st39{clip-path:url(#SVGID_64_);fill:none;stroke:#FF7F0E;stroke-width:1.5;stroke-linejoin:round;stroke-miterlimit:10;stroke-dasharray:5.55,2.4;}
	
		.st40{clip-path:url(#SVGID_64_);fill:none;stroke:#2CA02C;stroke-width:1.5;stroke-linejoin:round;stroke-miterlimit:10;stroke-dasharray:5.55,2.4;}
</style>
<g>
	<defs>
		<rect id="SVGID_1_" x="37.4" y="4.8" width="357.1" height="266.1"/>
	</defs>
	<clipPath id="SVGID_2_">
		<use xlink:href="#SVGID_1_"  style="overflow:visible;"/>
	</clipPath>
	<line class="st0" x1="53.6" y1="270.9" x2="53.6" y2="4.8"/>
</g>
<g>
	<defs>
		<rect id="SVGID_3_" width="400.5" height="302"/>
	</defs>
	<clipPath id="SVGID_4_">
		<use xlink:href="#SVGID_3_"  style="overflow:visible;"/>
	</clipPath>
	<path class="st1" d="M52.1,281.5c0,1.2,0.1,2,0.4,2.4c0.3,0.4,0.6,0.6,1,0.6c0.4,0,0.7-0.2,1-0.6c0.3-0.4,0.4-1.2,0.4-2.4
		c0-1.2-0.1-2-0.4-2.4c-0.3-0.4-0.6-0.6-1-0.6c-0.4,0-0.7,0.2-1,0.5C52.3,279.5,52.1,280.3,52.1,281.5 M51.2,281.5
		c0-0.8,0.1-1.5,0.3-2c0.2-0.5,0.4-0.9,0.8-1.2c0.3-0.3,0.8-0.4,1.3-0.4c0.4,0,0.7,0.1,1,0.2c0.3,0.2,0.5,0.4,0.7,0.7
		c0.2,0.3,0.3,0.6,0.5,1.1c0.1,0.4,0.2,1,0.2,1.7c0,0.8-0.1,1.5-0.3,2c-0.2,0.5-0.4,0.9-0.8,1.2c-0.3,0.3-0.8,0.4-1.3,0.4
		c-0.7,0-1.2-0.2-1.6-0.7C51.5,283.8,51.2,282.9,51.2,281.5"/>
</g>
<g>
	<defs>
		<rect id="SVGID_5_" x="37.4" y="4.8" width="357.1" height="266.1"/>
	</defs>
	<clipPath id="SVGID_6_">
		<use xlink:href="#SVGID_5_"  style="overflow:visible;"/>
	</clipPath>
	<line class="st2" x1="96.9" y1="270.9" x2="96.9" y2="4.8"/>
</g>
<g>
	<defs>
		<rect id="SVGID_7_" width="400.5" height="302"/>
	</defs>
	<clipPath id="SVGID_8_">
		<use xlink:href="#SVGID_7_"  style="overflow:visible;"/>
	</clipPath>
	<path class="st3" d="M96.3,284.2v0.8h-4.7c0-0.2,0-0.4,0.1-0.6c0.1-0.3,0.3-0.6,0.6-1c0.3-0.3,0.7-0.7,1.2-1.1
		c0.8-0.6,1.3-1.1,1.6-1.5c0.3-0.4,0.4-0.7,0.4-1.1c0-0.3-0.1-0.6-0.4-0.9c-0.3-0.2-0.6-0.4-1-0.4c-0.4,0-0.8,0.1-1,0.4
		c-0.3,0.3-0.4,0.6-0.4,1.1l-0.9-0.1c0.1-0.7,0.3-1.2,0.7-1.5c0.4-0.4,0.9-0.5,1.6-0.5s1.2,0.2,1.6,0.6c0.4,0.4,0.6,0.9,0.6,1.4
		c0,0.3-0.1,0.6-0.2,0.8c-0.1,0.3-0.3,0.6-0.6,0.9c-0.3,0.3-0.7,0.7-1.3,1.3c-0.5,0.4-0.9,0.7-1,0.9c-0.1,0.2-0.3,0.3-0.4,0.5H96.3"
		/>
	<path class="st3" d="M98.2,281.5c0,1.2,0.1,2,0.4,2.4c0.3,0.4,0.6,0.6,1,0.6c0.4,0,0.7-0.2,1-0.6c0.3-0.4,0.4-1.2,0.4-2.4
		c0-1.2-0.1-2-0.4-2.4c-0.3-0.4-0.6-0.6-1-0.6c-0.4,0-0.7,0.2-1,0.5C98.3,279.5,98.2,280.3,98.2,281.5 M97.3,281.5
		c0-0.8,0.1-1.5,0.3-2c0.2-0.5,0.4-0.9,0.8-1.2c0.3-0.3,0.8-0.4,1.3-0.4c0.4,0,0.7,0.1,1,0.2c0.3,0.2,0.5,0.4,0.7,0.7
		c0.2,0.3,0.3,0.6,0.5,1.1c0.1,0.4,0.2,1,0.2,1.7c0,0.8-0.1,1.5-0.3,2c-0.2,0.5-0.4,0.9-0.8,1.2c-0.3,0.3-0.8,0.4-1.3,0.4
		c-0.7,0-1.2-0.2-1.6-0.7C97.5,283.8,97.3,282.9,97.3,281.5"/>
</g>
<g>
	<defs>
		<rect id="SVGID_9_" x="37.4" y="4.8" width="357.1" height="266.1"/>
	</defs>
	<clipPath id="SVGID_10_">
		<use xlink:href="#SVGID_9_"  style="overflow:visible;"/>
	</clipPath>
	<line class="st4" x1="140.2" y1="270.9" x2="140.2" y2="4.8"/>
</g>
<path class="st5" d="M137.8,282.5v-3.2l-2.2,3.2H137.8z M137.8,285v-1.7h-3.1v-0.8l3.3-4.6h0.7v4.6h1v0.8h-1v1.7H137.8"/>
<g>
	<defs>
		<rect id="SVGID_11_" width="400.5" height="302"/>
	</defs>
	<clipPath id="SVGID_12_">
		<use xlink:href="#SVGID_11_"  style="overflow:visible;"/>
	</clipPath>
	<path class="st6" d="M141.5,281.5c0,1.2,0.1,2,0.4,2.4c0.3,0.4,0.6,0.6,1,0.6c0.4,0,0.7-0.2,1-0.6c0.3-0.4,0.4-1.2,0.4-2.4
		c0-1.2-0.1-2-0.4-2.4c-0.3-0.4-0.6-0.6-1-0.6c-0.4,0-0.7,0.2-1,0.5C141.6,279.5,141.5,280.3,141.5,281.5 M140.6,281.5
		c0-0.8,0.1-1.5,0.3-2c0.2-0.5,0.4-0.9,0.8-1.2c0.3-0.3,0.8-0.4,1.3-0.4c0.4,0,0.7,0.1,1,0.2c0.3,0.2,0.5,0.4,0.7,0.7
		c0.2,0.3,0.3,0.6,0.5,1.1c0.1,0.4,0.2,1,0.2,1.7c0,0.8-0.1,1.5-0.3,2c-0.2,0.5-0.4,0.9-0.8,1.2c-0.3,0.3-0.8,0.4-1.3,0.4
		c-0.7,0-1.2-0.2-1.6-0.7C140.8,283.8,140.6,282.9,140.6,281.5"/>
</g>
<g>
	<defs>
		<rect id="SVGID_13_" x="37.4" y="4.8" width="357.1" height="266.1"/>
	</defs>
	<clipPath id="SVGID_14_">
		<use xlink:href="#SVGID_13_"  style="overflow:visible;"/>
	</clipPath>
	<line class="st7" x1="183.5" y1="270.9" x2="183.5" y2="4.8"/>
</g>
<g>
	<defs>
		<rect id="SVGID_15_" width="400.5" height="302"/>
	</defs>
	<clipPath id="SVGID_16_">
		<use xlink:href="#SVGID_15_"  style="overflow:visible;"/>
	</clipPath>
	<path class="st8" d="M179.3,282.7c0,0.3,0.1,0.6,0.2,0.9c0.1,0.3,0.3,0.5,0.5,0.6c0.2,0.1,0.5,0.2,0.7,0.2c0.4,0,0.7-0.2,0.9-0.5
		c0.3-0.3,0.4-0.7,0.4-1.2c0-0.5-0.1-0.9-0.4-1.2c-0.3-0.3-0.6-0.4-1-0.4c-0.4,0-0.7,0.1-1,0.4C179.4,281.9,179.3,282.3,179.3,282.7
		 M182.9,279.6l-0.9,0.1c-0.1-0.3-0.2-0.6-0.3-0.8c-0.2-0.2-0.5-0.4-0.9-0.4c-0.3,0-0.5,0.1-0.7,0.2c-0.3,0.2-0.5,0.5-0.7,0.9
		c-0.2,0.4-0.3,0.9-0.3,1.7c0.2-0.3,0.5-0.5,0.8-0.7c0.3-0.2,0.6-0.2,1-0.2c0.6,0,1.1,0.2,1.5,0.7c0.4,0.4,0.6,1,0.6,1.7
		c0,0.4-0.1,0.9-0.3,1.3c-0.2,0.4-0.5,0.7-0.8,0.9c-0.3,0.2-0.7,0.3-1.2,0.3c-0.7,0-1.3-0.3-1.8-0.8c-0.5-0.5-0.7-1.4-0.7-2.7
		c0-1.4,0.3-2.4,0.8-3c0.4-0.5,1-0.8,1.8-0.8c0.6,0,1,0.2,1.4,0.5C182.6,278.6,182.8,279.1,182.9,279.6"/>
	<path class="st8" d="M184.8,281.5c0,1.2,0.1,2,0.4,2.4c0.3,0.4,0.6,0.6,1,0.6c0.4,0,0.7-0.2,1-0.6c0.3-0.4,0.4-1.2,0.4-2.4
		c0-1.2-0.1-2-0.4-2.4c-0.3-0.4-0.6-0.6-1-0.6c-0.4,0-0.7,0.2-1,0.5C184.9,279.5,184.8,280.3,184.8,281.5 M183.9,281.5
		c0-0.8,0.1-1.5,0.3-2c0.2-0.5,0.4-0.9,0.8-1.2c0.3-0.3,0.8-0.4,1.3-0.4c0.4,0,0.7,0.1,1,0.2c0.3,0.2,0.5,0.4,0.7,0.7
		c0.2,0.3,0.3,0.6,0.5,1.1c0.1,0.4,0.2,1,0.2,1.7c0,0.8-0.1,1.5-0.3,2c-0.2,0.5-0.4,0.9-0.8,1.2c-0.3,0.3-0.8,0.4-1.3,0.4
		c-0.7,0-1.2-0.2-1.6-0.7C184.1,283.8,183.9,282.9,183.9,281.5"/>
</g>
<g>
	<defs>
		<rect id="SVGID_17_" x="37.4" y="4.8" width="357.1" height="266.1"/>
	</defs>
	<clipPath id="SVGID_18_">
		<use xlink:href="#SVGID_17_"  style="overflow:visible;"/>
	</clipPath>
	<line class="st9" x1="226.7" y1="270.9" x2="226.7" y2="4.8"/>
</g>
<g>
	<defs>
		<rect id="SVGID_19_" width="400.5" height="302"/>
	</defs>
	<clipPath id="SVGID_20_">
		<use xlink:href="#SVGID_19_"  style="overflow:visible;"/>
	</clipPath>
	<path class="st10" d="M222.5,283c0,0.3,0.1,0.5,0.2,0.7c0.1,0.2,0.3,0.4,0.5,0.6c0.2,0.1,0.5,0.2,0.8,0.2c0.4,0,0.8-0.1,1-0.4
		c0.3-0.3,0.4-0.6,0.4-1c0-0.4-0.1-0.8-0.4-1c-0.3-0.3-0.6-0.4-1.1-0.4c-0.4,0-0.8,0.1-1,0.4C222.6,282.2,222.5,282.6,222.5,283
		 M222.8,279.7c0,0.3,0.1,0.6,0.3,0.8c0.2,0.2,0.5,0.3,0.9,0.3c0.3,0,0.6-0.1,0.8-0.3c0.2-0.2,0.3-0.5,0.3-0.8
		c0-0.3-0.1-0.6-0.3-0.8c-0.2-0.2-0.5-0.3-0.8-0.3c-0.3,0-0.6,0.1-0.8,0.3C222.9,279.1,222.8,279.4,222.8,279.7 M222.9,281.2
		c-0.4-0.1-0.6-0.3-0.8-0.6c-0.2-0.2-0.3-0.5-0.3-0.9c0-0.5,0.2-0.9,0.6-1.3c0.4-0.4,0.9-0.5,1.5-0.5s1.1,0.2,1.5,0.6
		c0.4,0.4,0.6,0.8,0.6,1.3c0,0.3-0.1,0.6-0.3,0.9c-0.2,0.3-0.4,0.4-0.8,0.6c0.4,0.1,0.8,0.4,1,0.7c0.2,0.3,0.3,0.7,0.3,1.1
		c0,0.6-0.2,1.1-0.6,1.5c-0.4,0.4-1,0.6-1.7,0.6c-0.7,0-1.3-0.2-1.7-0.6c-0.4-0.4-0.6-0.9-0.6-1.6c0-0.5,0.1-0.9,0.3-1.2
		C222.2,281.5,222.5,281.3,222.9,281.2"/>
	<path class="st10" d="M228.1,281.5c0,1.2,0.1,2,0.4,2.4c0.3,0.4,0.6,0.6,1,0.6c0.4,0,0.7-0.2,1-0.6c0.3-0.4,0.4-1.2,0.4-2.4
		c0-1.2-0.1-2-0.4-2.4c-0.3-0.4-0.6-0.6-1-0.6c-0.4,0-0.7,0.2-1,0.5C228.2,279.5,228.1,280.3,228.1,281.5 M227.2,281.5
		c0-0.8,0.1-1.5,0.3-2c0.2-0.5,0.4-0.9,0.8-1.2c0.3-0.3,0.8-0.4,1.3-0.4c0.4,0,0.7,0.1,1,0.2c0.3,0.2,0.5,0.4,0.7,0.7
		c0.2,0.3,0.3,0.6,0.5,1.1c0.1,0.4,0.2,1,0.2,1.7c0,0.8-0.1,1.5-0.3,2c-0.2,0.5-0.4,0.9-0.8,1.2c-0.3,0.3-0.8,0.4-1.3,0.4
		c-0.7,0-1.2-0.2-1.6-0.7C227.4,283.8,227.2,282.9,227.2,281.5"/>
</g>
<g>
	<defs>
		<rect id="SVGID_21_" x="37.4" y="4.8" width="357.1" height="266.1"/>
	</defs>
	<clipPath id="SVGID_22_">
		<use xlink:href="#SVGID_21_"  style="overflow:visible;"/>
	</clipPath>
	<line class="st11" x1="270" y1="270.9" x2="270" y2="4.8"/>
</g>
<g>
	<defs>
		<rect id="SVGID_23_" width="400.5" height="302"/>
	</defs>
	<clipPath id="SVGID_24_">
		<use xlink:href="#SVGID_23_"  style="overflow:visible;"/>
	</clipPath>
	<path class="st12" d="M265.4,285h-0.9v-5.6c-0.2,0.2-0.5,0.4-0.8,0.6c-0.3,0.2-0.6,0.3-0.9,0.5v-0.9c0.5-0.2,0.9-0.5,1.3-0.8
		c0.4-0.3,0.6-0.6,0.8-1h0.6V285"/>
	<path class="st12" d="M268.6,281.5c0,1.2,0.1,2,0.4,2.4c0.3,0.4,0.6,0.6,1,0.6c0.4,0,0.7-0.2,1-0.6c0.3-0.4,0.4-1.2,0.4-2.4
		c0-1.2-0.1-2-0.4-2.4c-0.3-0.4-0.6-0.6-1-0.6c-0.4,0-0.7,0.2-1,0.5C268.7,279.5,268.6,280.3,268.6,281.5 M267.7,281.5
		c0-0.8,0.1-1.5,0.3-2c0.2-0.5,0.4-0.9,0.8-1.2c0.3-0.3,0.8-0.4,1.3-0.4c0.4,0,0.7,0.1,1,0.2c0.3,0.2,0.5,0.4,0.7,0.7
		c0.2,0.3,0.3,0.6,0.5,1.1c0.1,0.4,0.2,1,0.2,1.7c0,0.8-0.1,1.5-0.3,2c-0.2,0.5-0.4,0.9-0.8,1.2c-0.3,0.3-0.8,0.4-1.3,0.4
		c-0.7,0-1.2-0.2-1.6-0.7C267.9,283.8,267.7,282.9,267.7,281.5"/>
	<path class="st12" d="M274.1,281.5c0,1.2,0.1,2,0.4,2.4c0.3,0.4,0.6,0.6,1,0.6c0.4,0,0.7-0.2,1-0.6c0.3-0.4,0.4-1.2,0.4-2.4
		c0-1.2-0.1-2-0.4-2.4c-0.3-0.4-0.6-0.6-1-0.6c-0.4,0-0.7,0.2-1,0.5C274.3,279.5,274.1,280.3,274.1,281.5 M273.2,281.5
		c0-0.8,0.1-1.5,0.3-2c0.2-0.5,0.4-0.9,0.8-1.2c0.3-0.3,0.8-0.4,1.3-0.4c0.4,0,0.7,0.1,1,0.2c0.3,0.2,0.5,0.4,0.7,0.7
		c0.2,0.3,0.3,0.6,0.5,1.1c0.1,0.4,0.2,1,0.2,1.7c0,0.8-0.1,1.5-0.3,2c-0.2,0.5-0.4,0.9-0.8,1.2c-0.3,0.3-0.8,0.4-1.3,0.4
		c-0.7,0-1.2-0.2-1.6-0.7C273.5,283.8,273.2,282.9,273.2,281.5"/>
</g>
<g>
	<defs>
		<rect id="SVGID_25_" x="37.4" y="4.8" width="357.1" height="266.1"/>
	</defs>
	<clipPath id="SVGID_26_">
		<use xlink:href="#SVGID_25_"  style="overflow:visible;"/>
	</clipPath>
	<line class="st13" x1="313.3" y1="270.9" x2="313.3" y2="4.8"/>
</g>
<g>
	<defs>
		<rect id="SVGID_27_" width="400.5" height="302"/>
	</defs>
	<clipPath id="SVGID_28_">
		<use xlink:href="#SVGID_27_"  style="overflow:visible;"/>
	</clipPath>
	<path class="st14" d="M308.7,285h-0.9v-5.6c-0.2,0.2-0.5,0.4-0.8,0.6c-0.3,0.2-0.7,0.3-0.9,0.5v-0.9c0.5-0.2,0.9-0.5,1.3-0.8
		c0.4-0.3,0.6-0.6,0.8-1h0.6V285"/>
	<path class="st14" d="M315.6,284.2v0.8h-4.7c0-0.2,0-0.4,0.1-0.6c0.1-0.3,0.3-0.6,0.6-1c0.3-0.3,0.6-0.7,1.1-1.1
		c0.8-0.6,1.3-1.1,1.6-1.5c0.3-0.4,0.4-0.7,0.4-1.1c0-0.3-0.1-0.6-0.4-0.9c-0.3-0.2-0.6-0.4-1-0.4c-0.4,0-0.8,0.1-1,0.4
		c-0.3,0.3-0.4,0.6-0.4,1.1l-0.9-0.1c0.1-0.7,0.3-1.2,0.7-1.5c0.4-0.4,1-0.5,1.6-0.5c0.7,0,1.2,0.2,1.6,0.6c0.4,0.4,0.6,0.9,0.6,1.4
		c0,0.3-0.1,0.6-0.2,0.8c-0.1,0.3-0.3,0.6-0.6,0.9c-0.3,0.3-0.7,0.7-1.3,1.3c-0.5,0.4-0.9,0.7-1,0.9c-0.1,0.2-0.3,0.3-0.4,0.5H315.6
		"/>
	<path class="st14" d="M317.4,281.5c0,1.2,0.1,2,0.4,2.4c0.3,0.4,0.6,0.6,1,0.6c0.4,0,0.7-0.2,1-0.6c0.3-0.4,0.4-1.2,0.4-2.4
		c0-1.2-0.1-2-0.4-2.4c-0.3-0.4-0.6-0.6-1-0.6c-0.4,0-0.7,0.2-1,0.5C317.6,279.5,317.4,280.3,317.4,281.5 M316.5,281.5
		c0-0.8,0.1-1.5,0.3-2c0.2-0.5,0.4-0.9,0.8-1.2c0.3-0.3,0.8-0.4,1.3-0.4c0.4,0,0.7,0.1,1,0.2c0.3,0.2,0.5,0.4,0.7,0.7
		c0.2,0.3,0.3,0.6,0.5,1.1c0.1,0.4,0.2,1,0.2,1.7c0,0.8-0.1,1.5-0.3,2c-0.2,0.5-0.4,0.9-0.8,1.2c-0.3,0.3-0.8,0.4-1.3,0.4
		c-0.7,0-1.2-0.2-1.6-0.7C316.7,283.8,316.5,282.9,316.5,281.5"/>
</g>
<g>
	<defs>
		<rect id="SVGID_29_" x="37.4" y="4.8" width="357.1" height="266.1"/>
	</defs>
	<clipPath id="SVGID_30_">
		<use xlink:href="#SVGID_29_"  style="overflow:visible;"/>
	</clipPath>
	<line class="st15" x1="356.6" y1="270.9" x2="356.6" y2="4.8"/>
</g>
<g>
	<defs>
		<rect id="SVGID_31_" width="400.5" height="302"/>
	</defs>
	<clipPath id="SVGID_32_">
		<use xlink:href="#SVGID_31_"  style="overflow:visible;"/>
	</clipPath>
	<path class="st16" d="M352,285h-0.9v-5.6c-0.2,0.2-0.5,0.4-0.8,0.6c-0.3,0.2-0.7,0.3-0.9,0.5v-0.9c0.5-0.2,0.9-0.5,1.3-0.8
		c0.4-0.3,0.6-0.6,0.8-1h0.6V285"/>
	<path class="st16" d="M357,282.5v-3.2l-2.2,3.2H357z M357,285v-1.7h-3.1v-0.8l3.3-4.6h0.7v4.6h1v0.8h-1v1.7H357"/>
	<path class="st16" d="M360.7,281.5c0,1.2,0.1,2,0.4,2.4c0.3,0.4,0.6,0.6,1,0.6c0.4,0,0.7-0.2,1-0.6c0.3-0.4,0.4-1.2,0.4-2.4
		c0-1.2-0.1-2-0.4-2.4c-0.3-0.4-0.6-0.6-1-0.6c-0.4,0-0.7,0.2-1,0.5C360.8,279.5,360.7,280.3,360.7,281.5 M359.8,281.5
		c0-0.8,0.1-1.5,0.3-2c0.2-0.5,0.4-0.9,0.8-1.2c0.3-0.3,0.8-0.4,1.3-0.4c0.4,0,0.7,0.1,1,0.2c0.3,0.2,0.5,0.4,0.7,0.7
		c0.2,0.3,0.3,0.6,0.5,1.1c0.1,0.4,0.2,1,0.2,1.7c0,0.8-0.1,1.5-0.3,2c-0.2,0.5-0.4,0.9-0.8,1.2c-0.3,0.3-0.8,0.4-1.3,0.4
		c-0.7,0-1.2-0.2-1.6-0.7C360,283.8,359.8,282.9,359.8,281.5"/>
	<polygon class="st16" points="200,298.2 200,291 205.2,291 205.2,291.9 201,291.9 201,294.1 204.9,294.1 204.9,294.9 201,294.9 
		201,297.3 205.4,297.3 205.4,298.2 	"/>
	<path class="st16" d="M207.4,295.6c0,0.7,0.1,1.2,0.4,1.5c0.3,0.3,0.6,0.5,1,0.5c0.4,0,0.7-0.2,1-0.5c0.3-0.3,0.4-0.8,0.4-1.5
		c0-0.7-0.1-1.2-0.4-1.5c-0.3-0.3-0.6-0.5-1-0.5c-0.4,0-0.7,0.2-1,0.5C207.5,294.4,207.4,295,207.4,295.6 M206.6,300.2V293h0.8v0.7
		c0.2-0.3,0.4-0.5,0.6-0.6c0.2-0.1,0.5-0.2,0.9-0.2c0.4,0,0.8,0.1,1.2,0.3c0.3,0.2,0.6,0.5,0.8,1c0.2,0.4,0.3,0.9,0.3,1.4
		c0,0.5-0.1,1-0.3,1.4c-0.2,0.4-0.5,0.8-0.8,1s-0.7,0.3-1.1,0.3c-0.3,0-0.6-0.1-0.8-0.2c-0.2-0.1-0.4-0.3-0.6-0.5v2.5H206.6"/>
	<path class="st16" d="M212.7,295.6c0,0.7,0.1,1.2,0.4,1.5c0.3,0.3,0.6,0.5,1.1,0.5c0.4,0,0.8-0.2,1.1-0.5c0.3-0.3,0.4-0.8,0.4-1.5
		c0-0.6-0.1-1.1-0.4-1.5c-0.3-0.3-0.7-0.5-1.1-0.5c-0.4,0-0.8,0.2-1.1,0.5C212.8,294.4,212.7,294.9,212.7,295.6 M211.8,295.6
		c0-1,0.3-1.7,0.8-2.1c0.4-0.4,1-0.6,1.6-0.6c0.7,0,1.3,0.2,1.8,0.7c0.4,0.5,0.7,1.1,0.7,1.9c0,0.7-0.1,1.2-0.3,1.6
		c-0.2,0.4-0.5,0.7-0.9,0.9c-0.4,0.2-0.8,0.3-1.3,0.3c-0.7,0-1.3-0.2-1.8-0.7C212,297.1,211.8,296.5,211.8,295.6"/>
	<path class="st16" d="M221.1,296.3l0.9,0.1c-0.1,0.6-0.3,1.1-0.7,1.4c-0.4,0.3-0.9,0.5-1.4,0.5c-0.7,0-1.3-0.2-1.7-0.7
		c-0.4-0.5-0.6-1.1-0.6-2c0-0.6,0.1-1,0.3-1.5c0.2-0.4,0.5-0.7,0.8-0.9c0.4-0.2,0.8-0.3,1.2-0.3c0.6,0,1,0.1,1.4,0.4
		c0.4,0.3,0.6,0.7,0.7,1.2l-0.8,0.1c-0.1-0.3-0.2-0.6-0.4-0.8c-0.2-0.2-0.5-0.3-0.8-0.3c-0.5,0-0.8,0.2-1.1,0.5
		c-0.3,0.3-0.4,0.8-0.4,1.5c0,0.7,0.1,1.2,0.4,1.5c0.3,0.3,0.6,0.5,1.1,0.5c0.3,0,0.6-0.1,0.9-0.3C220.9,297,221,296.7,221.1,296.3"
		/>
	<path class="st16" d="M222.7,298.2V291h0.9v2.6c0.4-0.5,0.9-0.7,1.6-0.7c0.4,0,0.7,0.1,1,0.2c0.3,0.1,0.5,0.4,0.6,0.6
		c0.1,0.3,0.2,0.7,0.2,1.2v3.3H226v-3.3c0-0.4-0.1-0.8-0.3-1c-0.2-0.2-0.5-0.3-0.8-0.3c-0.3,0-0.5,0.1-0.7,0.2
		c-0.2,0.1-0.4,0.3-0.5,0.6c-0.1,0.2-0.1,0.5-0.1,0.9v2.8H222.7"/>
	<path class="st16" d="M227.9,296.6l0.9-0.1c0,0.4,0.2,0.6,0.4,0.8s0.5,0.3,0.9,0.3c0.4,0,0.7-0.1,0.9-0.2c0.2-0.2,0.3-0.4,0.3-0.6
		c0-0.2-0.1-0.3-0.3-0.5c-0.1-0.1-0.4-0.2-0.9-0.3c-0.6-0.2-1.1-0.3-1.3-0.4s-0.4-0.3-0.6-0.5c-0.1-0.2-0.2-0.4-0.2-0.7
		c0-0.2,0-0.4,0.2-0.6c0.1-0.2,0.3-0.4,0.4-0.5c0.1-0.1,0.3-0.2,0.6-0.3c0.2-0.1,0.5-0.1,0.8-0.1c0.4,0,0.8,0.1,1.1,0.2
		s0.5,0.3,0.7,0.5c0.1,0.2,0.2,0.5,0.3,0.8l-0.9,0.1c0-0.3-0.2-0.5-0.3-0.6c-0.2-0.1-0.4-0.2-0.8-0.2c-0.4,0-0.7,0.1-0.9,0.2
		c-0.2,0.1-0.3,0.3-0.3,0.5c0,0.1,0,0.2,0.1,0.3c0.1,0.1,0.2,0.2,0.3,0.2c0.1,0,0.3,0.1,0.8,0.2c0.6,0.2,1.1,0.3,1.3,0.4
		c0.2,0.1,0.4,0.3,0.6,0.5c0.1,0.2,0.2,0.5,0.2,0.8c0,0.3-0.1,0.6-0.3,0.8c-0.2,0.3-0.4,0.5-0.7,0.6c-0.3,0.1-0.7,0.2-1.1,0.2
		c-0.7,0-1.2-0.1-1.5-0.4C228.2,297.6,228,297.2,227.9,296.6"/>
</g>
<g>
	<defs>
		<rect id="SVGID_33_" x="37.4" y="4.8" width="357.1" height="266.1"/>
	</defs>
	<clipPath id="SVGID_34_">
		<use xlink:href="#SVGID_33_"  style="overflow:visible;"/>
	</clipPath>
	<line class="st17" x1="37.4" y1="250.1" x2="394.5" y2="250.1"/>
</g>
<g>
	<defs>
		<rect id="SVGID_35_" width="400.5" height="302"/>
	</defs>
	<clipPath id="SVGID_36_">
		<use xlink:href="#SVGID_35_"  style="overflow:visible;"/>
	</clipPath>
	<path class="st18" d="M20.2,253.7h-0.9v-5.6c-0.2,0.2-0.5,0.4-0.8,0.6c-0.3,0.2-0.6,0.3-0.9,0.5v-0.9c0.5-0.2,0.9-0.5,1.3-0.8
		c0.4-0.3,0.6-0.6,0.8-1h0.6V253.7"/>
	<rect x="22.9" y="252.7" class="st18" width="1" height="1"/>
	<path class="st18" d="M29.8,252.8v0.8h-4.7c0-0.2,0-0.4,0.1-0.6c0.1-0.3,0.3-0.6,0.6-0.9c0.3-0.3,0.6-0.7,1.1-1.1
		c0.8-0.6,1.3-1.1,1.6-1.5c0.3-0.4,0.4-0.7,0.4-1.1c0-0.3-0.1-0.6-0.4-0.9c-0.3-0.2-0.6-0.4-1-0.4c-0.4,0-0.8,0.1-1,0.4
		c-0.3,0.3-0.4,0.6-0.4,1.1l-0.9-0.1c0.1-0.7,0.3-1.2,0.7-1.5c0.4-0.4,1-0.5,1.6-0.5c0.7,0,1.2,0.2,1.6,0.6s0.6,0.9,0.6,1.4
		c0,0.3-0.1,0.6-0.2,0.8c-0.1,0.3-0.3,0.6-0.6,0.9c-0.3,0.3-0.7,0.7-1.4,1.3c-0.5,0.4-0.9,0.7-1,0.9c-0.1,0.2-0.3,0.3-0.4,0.5H29.8"
		/>
</g>
<g>
	<defs>
		<rect id="SVGID_37_" x="37.4" y="4.8" width="357.1" height="266.1"/>
	</defs>
	<clipPath id="SVGID_38_">
		<use xlink:href="#SVGID_37_"  style="overflow:visible;"/>
	</clipPath>
	<line class="st19" x1="37.4" y1="211" x2="394.5" y2="211"/>
</g>
<g>
	<defs>
		<rect id="SVGID_39_" width="400.5" height="302"/>
	</defs>
	<clipPath id="SVGID_40_">
		<use xlink:href="#SVGID_39_"  style="overflow:visible;"/>
	</clipPath>
	<path class="st20" d="M20.2,214.5h-0.9v-5.6c-0.2,0.2-0.5,0.4-0.8,0.6c-0.3,0.2-0.6,0.3-0.9,0.4v-0.9c0.5-0.2,0.9-0.5,1.3-0.8
		c0.4-0.3,0.6-0.6,0.8-1h0.6V214.5"/>
	<rect x="22.9" y="213.5" class="st20" width="1" height="1"/>
	<path class="st20" d="M28,212v-3.2l-2.2,3.2H28z M28,214.5v-1.7h-3.1V212l3.3-4.6h0.7v4.6h1v0.8h-1v1.7H28"/>
</g>
<g>
	<defs>
		<rect id="SVGID_41_" x="37.4" y="4.8" width="357.1" height="266.1"/>
	</defs>
	<clipPath id="SVGID_42_">
		<use xlink:href="#SVGID_41_"  style="overflow:visible;"/>
	</clipPath>
	<line class="st21" x1="37.4" y1="171.8" x2="394.5" y2="171.8"/>
</g>
<g>
	<defs>
		<rect id="SVGID_43_" width="400.5" height="302"/>
	</defs>
	<clipPath id="SVGID_44_">
		<use xlink:href="#SVGID_43_"  style="overflow:visible;"/>
	</clipPath>
	<path class="st22" d="M20.2,175.4h-0.9v-5.6c-0.2,0.2-0.5,0.4-0.8,0.6c-0.3,0.2-0.6,0.3-0.9,0.5V170c0.5-0.2,0.9-0.5,1.3-0.8
		c0.4-0.3,0.6-0.6,0.8-1h0.6V175.4"/>
	<rect x="22.9" y="174.4" class="st22" width="1" height="1"/>
	<path class="st22" d="M26.2,173.1c0,0.3,0.1,0.6,0.2,0.9c0.1,0.3,0.3,0.5,0.5,0.6c0.2,0.1,0.5,0.2,0.7,0.2c0.4,0,0.7-0.2,1-0.5
		c0.3-0.3,0.4-0.7,0.4-1.2c0-0.5-0.1-0.9-0.4-1.2c-0.3-0.3-0.6-0.4-1-0.4c-0.4,0-0.7,0.1-1,0.4C26.3,172.3,26.2,172.6,26.2,173.1
		 M29.8,170l-0.9,0.1c-0.1-0.3-0.2-0.6-0.3-0.8c-0.2-0.2-0.5-0.4-0.9-0.4c-0.3,0-0.5,0.1-0.7,0.2c-0.3,0.2-0.5,0.5-0.7,0.9
		c-0.2,0.4-0.3,0.9-0.3,1.7c0.2-0.3,0.5-0.5,0.8-0.7c0.3-0.2,0.6-0.2,1-0.2c0.6,0,1.1,0.2,1.5,0.6c0.4,0.4,0.6,1,0.6,1.7
		c0,0.4-0.1,0.9-0.3,1.3c-0.2,0.4-0.5,0.7-0.8,0.9c-0.3,0.2-0.7,0.3-1.1,0.3c-0.7,0-1.3-0.3-1.8-0.8c-0.5-0.5-0.7-1.4-0.7-2.7
		c0-1.4,0.3-2.4,0.8-3c0.4-0.5,1-0.8,1.8-0.8c0.6,0,1,0.2,1.4,0.5C29.5,169,29.7,169.5,29.8,170"/>
</g>
<g>
	<defs>
		<rect id="SVGID_45_" x="37.4" y="4.8" width="357.1" height="266.1"/>
	</defs>
	<clipPath id="SVGID_46_">
		<use xlink:href="#SVGID_45_"  style="overflow:visible;"/>
	</clipPath>
	<line class="st23" x1="37.4" y1="132.7" x2="394.5" y2="132.7"/>
</g>
<g>
	<defs>
		<rect id="SVGID_47_" width="400.5" height="302"/>
	</defs>
	<clipPath id="SVGID_48_">
		<use xlink:href="#SVGID_47_"  style="overflow:visible;"/>
	</clipPath>
	<path class="st24" d="M20.2,136.3h-0.9v-5.6c-0.2,0.2-0.5,0.4-0.8,0.6s-0.6,0.3-0.9,0.4v-0.9c0.5-0.2,0.9-0.5,1.3-0.8
		c0.4-0.3,0.6-0.6,0.8-1h0.6V136.3"/>
	<rect x="22.9" y="135.3" class="st24" width="1" height="1"/>
	<path class="st24" d="M26.1,134.2c0,0.3,0.1,0.5,0.2,0.7c0.1,0.2,0.3,0.4,0.5,0.6c0.2,0.1,0.5,0.2,0.8,0.2c0.4,0,0.8-0.1,1-0.4
		c0.3-0.3,0.4-0.6,0.4-1s-0.1-0.8-0.4-1c-0.3-0.3-0.6-0.4-1.1-0.4s-0.8,0.1-1,0.4C26.2,133.5,26.1,133.8,26.1,134.2 M26.4,130.9
		c0,0.3,0.1,0.6,0.3,0.8c0.2,0.2,0.5,0.3,0.9,0.3c0.3,0,0.6-0.1,0.8-0.3c0.2-0.2,0.3-0.5,0.3-0.8c0-0.3-0.1-0.6-0.3-0.8
		c-0.2-0.2-0.5-0.3-0.8-0.3c-0.3,0-0.6,0.1-0.8,0.3C26.5,130.4,26.4,130.6,26.4,130.9 M26.6,132.4c-0.4-0.1-0.6-0.3-0.8-0.6
		c-0.2-0.2-0.3-0.5-0.3-0.9c0-0.5,0.2-0.9,0.6-1.3c0.4-0.4,0.9-0.5,1.5-0.5c0.6,0,1.1,0.2,1.5,0.6c0.4,0.4,0.6,0.8,0.6,1.3
		c0,0.3-0.1,0.6-0.3,0.9c-0.2,0.3-0.4,0.4-0.8,0.6c0.4,0.1,0.8,0.4,1,0.7c0.2,0.3,0.3,0.7,0.3,1.1c0,0.6-0.2,1.1-0.6,1.5
		c-0.4,0.4-1,0.6-1.7,0.6c-0.7,0-1.3-0.2-1.7-0.6c-0.4-0.4-0.6-0.9-0.6-1.6c0-0.5,0.1-0.9,0.4-1.2C25.8,132.8,26.1,132.5,26.6,132.4
		"/>
</g>
<g>
	<defs>
		<rect id="SVGID_49_" x="37.4" y="4.8" width="357.1" height="266.1"/>
	</defs>
	<clipPath id="SVGID_50_">
		<use xlink:href="#SVGID_49_"  style="overflow:visible;"/>
	</clipPath>
	<line class="st25" x1="37.4" y1="93.6" x2="394.5" y2="93.6"/>
</g>
<g>
	<defs>
		<rect id="SVGID_51_" width="400.5" height="302"/>
	</defs>
	<clipPath id="SVGID_52_">
		<use xlink:href="#SVGID_51_"  style="overflow:visible;"/>
	</clipPath>
	<path class="st26" d="M21.5,96.3v0.8h-4.7c0-0.2,0-0.4,0.1-0.6c0.1-0.3,0.3-0.6,0.6-0.9c0.3-0.3,0.6-0.7,1.1-1.1
		c0.8-0.6,1.3-1.1,1.6-1.5c0.3-0.4,0.4-0.7,0.4-1.1s-0.1-0.6-0.4-0.9s-0.6-0.4-1-0.4c-0.4,0-0.8,0.1-1,0.4c-0.3,0.3-0.4,0.6-0.4,1.1
		l-0.9-0.1c0.1-0.7,0.3-1.2,0.7-1.5c0.4-0.4,1-0.5,1.6-0.5c0.7,0,1.2,0.2,1.6,0.6c0.4,0.4,0.6,0.8,0.6,1.4c0,0.3-0.1,0.6-0.2,0.8
		c-0.1,0.3-0.3,0.6-0.6,0.9C20.4,94,20,94.4,19.4,95c-0.5,0.4-0.9,0.7-1,0.9s-0.3,0.3-0.4,0.5H21.5"/>
	<rect x="22.9" y="96.2" class="st26" width="1" height="1"/>
	<path class="st26" d="M26.1,93.7c0,1.2,0.1,2,0.4,2.4c0.3,0.4,0.6,0.6,1,0.6c0.4,0,0.7-0.2,1-0.6c0.3-0.4,0.4-1.2,0.4-2.4
		c0-1.2-0.1-2-0.4-2.3c-0.3-0.4-0.6-0.6-1-0.6c-0.4,0-0.7,0.2-1,0.5C26.3,91.7,26.1,92.5,26.1,93.7 M25.2,93.7c0-0.8,0.1-1.5,0.3-2
		c0.2-0.5,0.4-0.9,0.8-1.2S27,90,27.5,90c0.4,0,0.7,0.1,1,0.2c0.3,0.2,0.5,0.4,0.7,0.7c0.2,0.3,0.3,0.6,0.5,1.1
		c0.1,0.4,0.2,1,0.2,1.7c0,0.8-0.1,1.5-0.3,2s-0.4,0.9-0.8,1.2s-0.8,0.4-1.3,0.4c-0.7,0-1.2-0.2-1.6-0.7C25.4,96,25.2,95,25.2,93.7"
		/>
</g>
<g>
	<defs>
		<rect id="SVGID_53_" x="37.4" y="4.8" width="357.1" height="266.1"/>
	</defs>
	<clipPath id="SVGID_54_">
		<use xlink:href="#SVGID_53_"  style="overflow:visible;"/>
	</clipPath>
	<line class="st27" x1="37.4" y1="54.5" x2="394.5" y2="54.5"/>
</g>
<g>
	<defs>
		<rect id="SVGID_55_" width="400.5" height="302"/>
	</defs>
	<clipPath id="SVGID_56_">
		<use xlink:href="#SVGID_55_"  style="overflow:visible;"/>
	</clipPath>
	<path class="st28" d="M21.5,57.2v0.8h-4.7c0-0.2,0-0.4,0.1-0.6c0.1-0.3,0.3-0.6,0.6-0.9c0.3-0.3,0.6-0.7,1.1-1.1
		c0.8-0.6,1.3-1.1,1.6-1.5c0.3-0.4,0.4-0.7,0.4-1.1s-0.1-0.6-0.4-0.9s-0.6-0.4-1-0.4c-0.4,0-0.8,0.1-1,0.4c-0.3,0.3-0.4,0.6-0.4,1.1
		l-0.9-0.1c0.1-0.7,0.3-1.2,0.7-1.5c0.4-0.4,1-0.5,1.6-0.5c0.7,0,1.2,0.2,1.6,0.6c0.4,0.4,0.6,0.8,0.6,1.4c0,0.3-0.1,0.6-0.2,0.8
		c-0.1,0.3-0.3,0.6-0.6,0.9c-0.3,0.3-0.7,0.7-1.4,1.3c-0.5,0.4-0.9,0.7-1,0.9s-0.3,0.3-0.4,0.5H21.5"/>
	<rect x="22.9" y="57.1" class="st28" width="1" height="1"/>
	<path class="st28" d="M29.8,57.2v0.8h-4.7c0-0.2,0-0.4,0.1-0.6c0.1-0.3,0.3-0.6,0.6-0.9c0.3-0.3,0.6-0.7,1.1-1.1
		c0.8-0.6,1.3-1.1,1.6-1.5c0.3-0.4,0.4-0.7,0.4-1.1s-0.1-0.6-0.4-0.9s-0.6-0.4-1-0.4c-0.4,0-0.8,0.1-1,0.4c-0.3,0.3-0.4,0.6-0.4,1.1
		l-0.9-0.1c0.1-0.7,0.3-1.2,0.7-1.5c0.4-0.4,1-0.5,1.6-0.5c0.7,0,1.2,0.2,1.6,0.6c0.4,0.4,0.6,0.8,0.6,1.4c0,0.3-0.1,0.6-0.2,0.8
		c-0.1,0.3-0.3,0.6-0.6,0.9c-0.3,0.3-0.7,0.7-1.4,1.3c-0.5,0.4-0.9,0.7-1,0.9s-0.3,0.3-0.4,0.5H29.8"/>
</g>
<g>
	<defs>
		<rect id="SVGID_57_" x="37.4" y="4.8" width="357.1" height="266.1"/>
	</defs>
	<clipPath id="SVGID_58_">
		<use xlink:href="#SVGID_57_"  style="overflow:visible;"/>
	</clipPath>
	<line class="st29" x1="37.4" y1="15.4" x2="394.5" y2="15.4"/>
</g>
<g>
	<defs>
		<rect id="SVGID_59_" width="400.5" height="302"/>
	</defs>
	<clipPath id="SVGID_60_">
		<use xlink:href="#SVGID_59_"  style="overflow:visible;"/>
	</clipPath>
	<path class="st30" d="M21.5,18.1v0.8h-4.7c0-0.2,0-0.4,0.1-0.6c0.1-0.3,0.3-0.6,0.6-0.9c0.3-0.3,0.6-0.7,1.1-1.1
		c0.8-0.6,1.3-1.1,1.6-1.5c0.3-0.4,0.4-0.7,0.4-1.1s-0.1-0.6-0.4-0.9c-0.3-0.2-0.6-0.4-1-0.4c-0.4,0-0.8,0.1-1,0.4
		c-0.3,0.3-0.4,0.6-0.4,1.1l-0.9-0.1c0.1-0.7,0.3-1.2,0.7-1.5c0.4-0.4,1-0.5,1.6-0.5c0.7,0,1.2,0.2,1.6,0.6s0.6,0.9,0.6,1.4
		c0,0.3-0.1,0.6-0.2,0.9c-0.1,0.3-0.3,0.6-0.6,0.9c-0.3,0.3-0.7,0.7-1.4,1.3c-0.5,0.4-0.9,0.7-1,0.9s-0.3,0.3-0.4,0.5H21.5"/>
	<rect x="22.9" y="17.9" class="st30" width="1" height="1"/>
	<path class="st30" d="M28,16.4v-3.2l-2.2,3.2H28z M28,18.9v-1.7h-3.1v-0.8l3.3-4.6h0.7v4.6h1v0.8h-1v1.7H28"/>
	<polygon class="st30" points="10.3,152.9 3.2,152.9 3.2,147.7 4,147.7 4,151.9 6.2,151.9 6.2,148 7.1,148 7.1,151.9 9.5,151.9 
		9.5,147.5 10.3,147.5 	"/>
	<path class="st30" d="M10.3,146.3H5.2v-0.8h0.7c-0.6-0.4-0.9-0.9-0.9-1.6c0-0.3,0.1-0.6,0.2-0.9c0.1-0.3,0.3-0.5,0.4-0.6
		c0.2-0.1,0.4-0.2,0.7-0.3c0.2,0,0.4-0.1,0.8-0.1h3.2v0.9H7.2c-0.4,0-0.6,0-0.8,0.1c-0.2,0.1-0.3,0.2-0.4,0.4
		c-0.1,0.2-0.2,0.4-0.2,0.6c0,0.4,0.1,0.7,0.4,1c0.2,0.3,0.7,0.4,1.3,0.4h2.8V146.3"/>
	<path class="st30" d="M7.3,140.1v-2.9c-0.4,0-0.8,0.2-1,0.3c-0.3,0.3-0.5,0.6-0.5,1.1c0,0.4,0.1,0.8,0.4,1
		C6.4,139.9,6.8,140.1,7.3,140.1 M8.7,137.2l0.1-0.9c0.5,0.1,0.9,0.4,1.2,0.8c0.3,0.4,0.4,0.9,0.4,1.5c0,0.8-0.2,1.4-0.7,1.8
		c-0.5,0.4-1.1,0.7-2,0.7c-0.9,0-1.6-0.2-2-0.7c-0.5-0.4-0.7-1-0.7-1.8c0-0.7,0.2-1.3,0.7-1.7c0.5-0.4,1.1-0.7,2-0.7
		c0.1,0,0.1,0,0.2,0v3.9c0.6,0,1-0.2,1.3-0.5s0.4-0.6,0.4-1.1c0-0.3-0.1-0.6-0.3-0.8C9.3,137.5,9.1,137.4,8.7,137.2"/>
	<path class="st30" d="M10.3,135.2H5.2v-0.8h0.8c-0.4-0.2-0.6-0.4-0.7-0.6c-0.1-0.2-0.2-0.4-0.2-0.6c0-0.3,0.1-0.6,0.3-0.9l0.8,0.3
		C6,132.9,6,133.1,6,133.4c0,0.2,0.1,0.4,0.2,0.5c0.1,0.2,0.3,0.3,0.5,0.3c0.3,0.1,0.7,0.1,1,0.1h2.7V135.2"/>
	<path class="st30" d="M7.7,131.3c0.7,0,1.2-0.1,1.5-0.4c0.3-0.3,0.5-0.6,0.5-1c0-0.4-0.1-0.7-0.5-1c-0.3-0.3-0.8-0.4-1.5-0.4
		c-0.6,0-1.1,0.1-1.4,0.4c-0.3,0.3-0.5,0.6-0.5,1c0,0.4,0.2,0.7,0.5,1C6.6,131.2,7,131.3,7.7,131.3 M10.8,132l0.1-0.8
		c0.3,0,0.5-0.1,0.6-0.3c0.2-0.2,0.3-0.5,0.3-0.9c0-0.4-0.1-0.7-0.3-0.9s-0.4-0.4-0.7-0.5c-0.2,0-0.6-0.1-1.1-0.1
		c0.5,0.4,0.7,0.9,0.7,1.4c0,0.7-0.3,1.3-0.8,1.7c-0.5,0.4-1.1,0.6-1.8,0.6c-0.5,0-1-0.1-1.4-0.3c-0.4-0.2-0.7-0.4-1-0.8
		C5.2,130.8,5,130.4,5,130c0-0.6,0.3-1.1,0.7-1.5H5.2v-0.8h4.5c0.8,0,1.4,0.1,1.7,0.3c0.3,0.2,0.6,0.4,0.8,0.8
		c0.2,0.4,0.3,0.8,0.3,1.3c0,0.6-0.1,1.1-0.4,1.5C11.7,131.9,11.3,132.1,10.8,132"/>
	<path class="st30" d="M12.3,126.4l-0.8,0.1c0.1-0.2,0.1-0.4,0.1-0.5c0-0.2,0-0.3-0.1-0.5c-0.1-0.1-0.2-0.2-0.3-0.3
		c-0.1-0.1-0.3-0.2-0.7-0.3c-0.1,0-0.1,0-0.2-0.1l-5.2,2v-0.9l3-1.1c0.4-0.1,0.8-0.3,1.2-0.4c-0.4-0.1-0.8-0.2-1.2-0.4l-3-1.1v-0.9
		l5.3,2c0.6,0.2,1,0.4,1.2,0.5c0.3,0.2,0.5,0.3,0.6,0.5c0.1,0.2,0.2,0.4,0.2,0.7C12.4,126,12.4,126.2,12.3,126.4"/>
</g>
<polyline class="st31" points="53.6,16.9 55.8,97.1 57.9,121.6 60.1,136.1 62.2,143.4 64.4,157.6 66.6,158 68.7,160.2 70.9,157.7 
	73.1,168.3 79.6,209.7 81.7,210.6 83.9,200.9 86.1,193.4 88.2,195.5 90.4,205.3 92.6,214.5 96.9,221.2 99,222.7 101.2,223.6 
	103.4,224.8 105.5,229.2 107.7,227.9 109.9,224.3 112,222.4 114.2,225 116.4,226.7 118.5,232.3 120.7,234.3 125,237.3 127.2,239.8 
	129.3,235.8 131.5,230.6 133.7,229.8 135.8,234.1 138,235.5 140.2,237.5 142.3,234.7 144.5,234.1 146.7,235.3 148.8,239 151,242 
	153.2,243.3 155.3,242.7 157.5,245.4 161.8,246.2 164,250.3 166.1,249.1 168.3,244.9 170.5,243.6 172.6,240.9 177,231.6 
	179.1,233.4 183.5,240.9 185.6,243 187.8,240.7 189.9,241.8 192.1,242.7 194.3,246.7 196.4,247.2 198.6,245.3 200.8,244.9 
	202.9,244 205.1,243.2 207.3,245.3 209.4,249.8 211.6,252.8 213.8,255.1 215.9,251.1 218.1,249.5 220.2,245.8 222.4,247.6 
	224.6,246.8 226.7,250.8 228.9,249.5 231.1,250.1 233.2,243.2 235.4,235.4 237.6,233.9 239.7,237.2 241.9,241.4 244.1,241.6 
	246.2,244.4 248.4,245.7 250.5,247.4 252.7,249.3 254.9,249.6 257,248.9 259.2,249 261.4,249.2 263.5,246.6 265.7,248.1 
	267.9,245.7 270,244.6 274.4,250.3 276.5,254.2 278.7,254.9 280.8,252.1 283,250.7 285.2,249 287.3,246.5 289.5,240.6 291.7,242.5 
	293.8,244.9 298.2,251 300.3,249.2 302.5,251.6 304.7,252.5 306.8,251.9 309,249.5 311.2,248.6 313.3,251 315.5,250.2 317.6,250.2 
	319.8,251.7 322,253.4 324.1,252.7 326.3,250.3 328.5,247 330.6,248.4 332.8,250.1 335,254.2 337.1,252.1 339.3,250.8 341.5,248.4 
	343.6,251.6 345.8,251.6 347.9,255 350.1,253.3 352.3,253.4 354.4,257.2 356.6,258.8 358.8,257.4 360.9,254.7 363.1,251.2 
	365.3,253 367.4,256.9 369.6,256.4 371.8,256.2 373.9,252.4 376.1,254.6 378.2,255.5 "/>
<g>
	<defs>
		<rect id="SVGID_61_" x="37.4" y="4.8" width="357.1" height="266.1"/>
	</defs>
	<clipPath id="SVGID_62_">
		<use xlink:href="#SVGID_61_"  style="overflow:visible;"/>
	</clipPath>
	<line class="st32" x1="37.4" y1="16.9" x2="378.2" y2="16.9"/>
	<line class="st33" x1="37.4" y1="69.5" x2="378.2" y2="69.5"/>
</g>
<line class="st34" x1="37.4" y1="270.9" x2="37.4" y2="4.8"/>
<line class="st34" x1="394.5" y1="270.9" x2="394.5" y2="4.8"/>
<line class="st34" x1="37.4" y1="270.9" x2="394.5" y2="270.9"/>
<line class="st34" x1="37.4" y1="4.8" x2="394.5" y2="4.8"/>
<g>
	<defs>
		<rect id="SVGID_63_" width="400.5" height="302"/>
	</defs>
	<clipPath id="SVGID_64_">
		<use xlink:href="#SVGID_63_"  style="overflow:visible;"/>
	</clipPath>
	<path class="st35" d="M287.3,79.3h86.8c2.2,0,3.3-1.1,3.3-3.3V66c0-2.2-1.1-3.3-3.3-3.3h-86.8c-2.2,0-3.3,1.1-3.3,3.3V76
		C284,78.2,285.1,79.3,287.3,79.3"/>
	<path class="st36" d="M287.3,79.3h86.8c2.2,0,3.3-1.1,3.3-3.3V66c0-2.2-1.1-3.3-3.3-3.3h-86.8c-2.2,0-3.3,1.1-3.3,3.3V76
		C284,78.2,285.1,79.3,287.3,79.3z"/>
	<path class="st37" d="M288.2,73.8V66h1.6l1.9,5.6c0.2,0.5,0.3,0.9,0.4,1.2c0.1-0.3,0.2-0.7,0.4-1.3l1.9-5.5h1.4v7.9h-1v-6.6
		l-2.3,6.6h-0.9l-2.3-6.7v6.7H288.2"/>
	<path class="st37" d="M301,73.8V73c-0.5,0.6-1.1,1-1.8,1c-0.3,0-0.7-0.1-0.9-0.2c-0.3-0.1-0.5-0.3-0.6-0.5
		c-0.1-0.2-0.2-0.4-0.3-0.7c0-0.2-0.1-0.5-0.1-0.9v-3.5h1v3.2c0,0.5,0,0.8,0.1,1c0.1,0.3,0.2,0.5,0.4,0.6c0.2,0.2,0.4,0.2,0.7,0.2
		c0.3,0,0.5-0.1,0.8-0.2c0.3-0.1,0.4-0.3,0.5-0.6c0.1-0.3,0.2-0.6,0.2-1.1v-3.1h1v5.7H301"/>
	<rect x="303.3" y="66" class="st37" width="1" height="7.9"/>
	<path class="st37" d="M307.9,73l0.1,0.9c-0.3,0-0.5,0.1-0.7,0.1c-0.4,0-0.6-0.1-0.8-0.2c-0.2-0.1-0.3-0.3-0.4-0.4
		c-0.1-0.2-0.1-0.6-0.1-1.1v-3.3h-0.7v-0.8h0.7v-1.4l1-0.6v2h1v0.8h-1v3.3c0,0.3,0,0.5,0.1,0.5c0,0.1,0.1,0.1,0.2,0.2
		c0.1,0,0.2,0.1,0.3,0.1C307.6,73,307.7,73,307.9,73"/>
	<path class="st37" d="M308.8,68.1h1v5.7h-1V68.1z M308.8,66h1v1.1h-1V66z"/>
	<rect x="310.9" y="70.5" class="st37" width="3" height="1"/>
	<polygon class="st37" points="317.1,73.8 317.1,66.9 314.5,66.9 314.5,66 320.7,66 320.7,66.9 318.1,66.9 318.1,73.8 	"/>
	<path class="st37" d="M325.3,71c-0.4,0.1-0.9,0.3-1.6,0.4c-0.4,0.1-0.7,0.1-0.8,0.2c-0.2,0.1-0.3,0.2-0.4,0.3
		c-0.1,0.1-0.1,0.3-0.1,0.5c0,0.3,0.1,0.5,0.3,0.6c0.2,0.2,0.5,0.3,0.9,0.3c0.4,0,0.7-0.1,1-0.2c0.3-0.2,0.5-0.4,0.6-0.7
		c0.1-0.2,0.2-0.5,0.2-1V71 M325.4,73.1c-0.4,0.3-0.7,0.5-1,0.6c-0.3,0.1-0.7,0.2-1.1,0.2c-0.6,0-1.1-0.1-1.4-0.5
		c-0.3-0.3-0.5-0.7-0.5-1.2c0-0.3,0.1-0.5,0.2-0.8c0.1-0.2,0.3-0.4,0.5-0.6c0.2-0.1,0.4-0.2,0.7-0.3c0.2,0,0.5-0.1,0.9-0.1
		c0.8-0.1,1.4-0.2,1.7-0.3V70c0-0.4-0.1-0.7-0.3-0.8c-0.3-0.2-0.6-0.3-1.1-0.3c-0.5,0-0.8,0.1-1,0.2c-0.2,0.2-0.4,0.5-0.5,0.8
		l-0.9-0.1c0.1-0.4,0.2-0.7,0.4-1c0.2-0.2,0.5-0.4,0.8-0.6c0.4-0.1,0.8-0.2,1.3-0.2c0.5,0,0.9,0.1,1.2,0.2c0.3,0.1,0.5,0.3,0.7,0.4
		c0.1,0.2,0.2,0.4,0.3,0.6c0,0.2,0.1,0.5,0.1,0.9v1.3c0,0.9,0,1.5,0.1,1.7c0,0.2,0.1,0.5,0.3,0.7h-1
		C325.5,73.6,325.4,73.4,325.4,73.1"/>
	<path class="st37" d="M327.4,72.1l1-0.1c0,0.4,0.2,0.7,0.4,0.9c0.2,0.2,0.6,0.3,1,0.3c0.4,0,0.8-0.1,1-0.3c0.2-0.2,0.3-0.4,0.3-0.6
		c0-0.2-0.1-0.4-0.3-0.5c-0.1-0.1-0.5-0.2-1-0.3c-0.7-0.2-1.2-0.3-1.5-0.5c-0.3-0.1-0.5-0.3-0.6-0.5c-0.1-0.2-0.2-0.5-0.2-0.8
		c0-0.3,0.1-0.5,0.2-0.7c0.1-0.2,0.3-0.4,0.5-0.5c0.2-0.1,0.4-0.2,0.6-0.3c0.3-0.1,0.5-0.1,0.8-0.1c0.4,0,0.8,0.1,1.2,0.2
		c0.3,0.1,0.6,0.3,0.8,0.5c0.2,0.2,0.3,0.5,0.3,0.9l-0.9,0.1c0-0.3-0.2-0.5-0.4-0.7c-0.2-0.2-0.5-0.3-0.9-0.3c-0.5,0-0.8,0.1-1,0.2
		c-0.2,0.2-0.3,0.3-0.3,0.5c0,0.1,0,0.2,0.1,0.3c0.1,0.1,0.2,0.2,0.4,0.3c0.1,0,0.4,0.1,0.8,0.3c0.7,0.2,1.2,0.3,1.4,0.4
		c0.3,0.1,0.5,0.3,0.6,0.5c0.2,0.2,0.2,0.5,0.2,0.8s-0.1,0.6-0.3,0.9c-0.2,0.3-0.5,0.5-0.8,0.6c-0.4,0.2-0.8,0.2-1.2,0.2
		c-0.7,0-1.3-0.1-1.7-0.5C327.7,73.2,327.5,72.8,327.4,72.1"/>
	<polygon class="st37" points="333.3,73.8 333.3,66 334.3,66 334.3,70.5 336.5,68.1 337.8,68.1 335.6,70.3 338,73.8 336.8,73.8 
		334.9,70.9 334.3,71.6 334.3,73.8 	"/>
	<path class="st37" d="M341.9,73.8V66h1.6l1.9,5.6c0.2,0.5,0.3,0.9,0.4,1.2c0.1-0.3,0.2-0.7,0.4-1.3l1.9-5.5h1.4v7.9h-1v-6.6
		l-2.3,6.6h-0.9l-2.3-6.7v6.7H341.9"/>
	<path class="st37" d="M351.6,71c0,0.7,0.2,1.3,0.5,1.6c0.3,0.4,0.7,0.5,1.2,0.5c0.5,0,0.9-0.2,1.2-0.5c0.3-0.4,0.5-0.9,0.5-1.7
		c0-0.7-0.2-1.2-0.5-1.6c-0.3-0.4-0.7-0.6-1.2-0.6c-0.5,0-0.9,0.2-1.2,0.6C351.8,69.7,351.6,70.3,351.6,71 M350.6,71
		c0-1.1,0.3-1.8,0.9-2.4c0.5-0.4,1.1-0.6,1.8-0.6c0.8,0,1.4,0.3,1.9,0.8c0.5,0.5,0.7,1.2,0.7,2.1c0,0.7-0.1,1.3-0.3,1.7
		c-0.2,0.4-0.6,0.7-1,1c-0.4,0.2-0.9,0.3-1.4,0.3c-0.8,0-1.5-0.3-1.9-0.8C350.9,72.7,350.6,72,350.6,71"/>
	<path class="st37" d="M357.8,71c0,0.7,0.1,1.3,0.5,1.6c0.3,0.4,0.7,0.5,1.1,0.5c0.4,0,0.8-0.2,1.1-0.5c0.3-0.3,0.5-0.9,0.5-1.6
		c0-0.8-0.2-1.4-0.5-1.7c-0.3-0.4-0.7-0.6-1.1-0.6s-0.8,0.2-1.1,0.5C357.9,69.7,357.8,70.2,357.8,71 M360.8,73.8v-0.7
		c-0.4,0.6-0.9,0.8-1.6,0.8c-0.5,0-0.9-0.1-1.3-0.4c-0.4-0.2-0.7-0.6-0.9-1c-0.2-0.4-0.3-1-0.3-1.6c0-0.6,0.1-1.1,0.3-1.5
		c0.2-0.5,0.5-0.8,0.8-1.1s0.8-0.4,1.3-0.4c0.3,0,0.6,0.1,0.9,0.2c0.3,0.1,0.5,0.3,0.7,0.6V66h1v7.9H360.8"/>
	<path class="st37" d="M364,70.4h3.2c0-0.5-0.2-0.8-0.4-1.1c-0.3-0.4-0.7-0.6-1.2-0.6c-0.5,0-0.8,0.2-1.1,0.5
		C364.2,69.6,364,70,364,70.4 M367.1,72l1,0.1c-0.2,0.6-0.5,1-0.9,1.4c-0.4,0.3-1,0.5-1.6,0.5c-0.8,0-1.5-0.3-2-0.8
		c-0.5-0.5-0.7-1.2-0.7-2.2c0-1,0.2-1.7,0.7-2.2c0.5-0.5,1.1-0.8,1.9-0.8c0.8,0,1.4,0.3,1.9,0.8c0.5,0.5,0.7,1.2,0.7,2.2
		c0,0.1,0,0.1,0,0.3h-4.3c0,0.6,0.2,1.1,0.5,1.4c0.3,0.3,0.7,0.5,1.2,0.5c0.4,0,0.7-0.1,0.9-0.3C366.8,72.7,367,72.4,367.1,72"/>
	<rect x="369.3" y="66" class="st37" width="1" height="7.9"/>
	<path class="st35" d="M287.3,26.1h87.5c2.2,0,3.3-1.1,3.3-3.3V12.7c0-2.2-1.1-3.3-3.3-3.3h-87.5c-2.2,0-3.3,1.1-3.3,3.3v10.1
		C284,25,285.1,26.1,287.3,26.1"/>
	<path class="st36" d="M287.3,26.1h87.5c2.2,0,3.3-1.1,3.3-3.3V12.7c0-2.2-1.1-3.3-3.3-3.3h-87.5c-2.2,0-3.3,1.1-3.3,3.3v10.1
		C284,25,285.1,26.1,287.3,26.1z"/>
	<path class="st37" d="M289.2,19.7h2c0.3,0,0.6,0,0.7,0c0.2,0,0.4-0.1,0.6-0.2c0.2-0.1,0.3-0.2,0.4-0.4c0.1-0.2,0.2-0.4,0.2-0.7
		c0-0.3-0.1-0.5-0.2-0.8c-0.2-0.2-0.4-0.4-0.6-0.5c-0.3-0.1-0.6-0.1-1.2-0.1h-1.8V19.7 M289.2,16.1h1.7c0.5,0,0.8,0,1-0.1
		c0.3-0.1,0.5-0.2,0.6-0.4c0.1-0.2,0.2-0.4,0.2-0.7c0-0.3-0.1-0.5-0.2-0.7c-0.1-0.2-0.3-0.3-0.5-0.4c-0.2-0.1-0.6-0.1-1.2-0.1h-1.6
		V16.1 M288.1,20.6v-7.9h3c0.6,0,1.1,0.1,1.4,0.2c0.4,0.2,0.6,0.4,0.9,0.7c0.2,0.3,0.3,0.7,0.3,1c0,0.3-0.1,0.7-0.3,1
		c-0.2,0.3-0.5,0.5-0.8,0.7c0.5,0.1,0.8,0.4,1.1,0.7c0.3,0.3,0.4,0.7,0.4,1.2c0,0.4-0.1,0.7-0.2,1c-0.2,0.3-0.4,0.6-0.6,0.7
		c-0.2,0.2-0.5,0.3-0.9,0.4c-0.4,0.1-0.8,0.1-1.3,0.1H288.1"/>
	<path class="st37" d="M299,17.8c-0.4,0.1-0.9,0.3-1.6,0.4c-0.4,0.1-0.7,0.1-0.8,0.2c-0.2,0.1-0.3,0.2-0.4,0.3
		c-0.1,0.1-0.1,0.3-0.1,0.5c0,0.3,0.1,0.5,0.3,0.6c0.2,0.2,0.5,0.3,0.9,0.3c0.4,0,0.7-0.1,1-0.2c0.3-0.2,0.5-0.4,0.6-0.7
		c0.1-0.2,0.2-0.5,0.2-1V17.8 M299.1,19.9c-0.4,0.3-0.7,0.5-1,0.6c-0.3,0.1-0.7,0.2-1.1,0.2c-0.6,0-1.1-0.1-1.4-0.5
		c-0.3-0.3-0.5-0.7-0.5-1.2c0-0.3,0.1-0.5,0.2-0.8c0.1-0.2,0.3-0.4,0.5-0.6c0.2-0.1,0.4-0.2,0.7-0.3c0.2,0,0.5-0.1,0.9-0.1
		c0.8-0.1,1.4-0.2,1.7-0.3v-0.3c0-0.4-0.1-0.7-0.3-0.8c-0.3-0.2-0.6-0.3-1.1-0.3c-0.5,0-0.8,0.1-1,0.2c-0.2,0.2-0.4,0.5-0.5,0.8
		l-0.9-0.1c0.1-0.4,0.2-0.7,0.4-1c0.2-0.2,0.5-0.4,0.8-0.6c0.4-0.1,0.8-0.2,1.3-0.2c0.5,0,0.9,0.1,1.2,0.2c0.3,0.1,0.5,0.3,0.7,0.4
		c0.1,0.2,0.2,0.4,0.3,0.6c0,0.2,0.1,0.5,0.1,0.9v1.3c0,0.9,0,1.5,0.1,1.7c0,0.2,0.1,0.5,0.3,0.7h-1
		C299.2,20.4,299.1,20.2,299.1,19.9"/>
	<path class="st37" d="M301.1,18.9l1-0.1c0,0.4,0.2,0.7,0.4,0.9c0.2,0.2,0.6,0.3,1,0.3c0.4,0,0.8-0.1,1-0.3c0.2-0.2,0.3-0.4,0.3-0.6
		c0-0.2-0.1-0.4-0.3-0.5c-0.1-0.1-0.5-0.2-1-0.3c-0.7-0.2-1.2-0.3-1.5-0.5c-0.3-0.1-0.5-0.3-0.6-0.5c-0.1-0.2-0.2-0.5-0.2-0.8
		c0-0.3,0.1-0.5,0.2-0.7c0.1-0.2,0.3-0.4,0.5-0.5c0.2-0.1,0.4-0.2,0.6-0.3c0.3-0.1,0.5-0.1,0.8-0.1c0.4,0,0.8,0.1,1.2,0.2
		c0.3,0.1,0.6,0.3,0.8,0.5c0.2,0.2,0.3,0.5,0.3,0.9l-0.9,0.1c0-0.3-0.2-0.5-0.4-0.7c-0.2-0.2-0.5-0.3-0.9-0.3c-0.5,0-0.8,0.1-1,0.2
		c-0.2,0.2-0.3,0.3-0.3,0.5c0,0.1,0,0.2,0.1,0.3c0.1,0.1,0.2,0.2,0.4,0.3c0.1,0,0.4,0.1,0.8,0.3c0.7,0.2,1.2,0.3,1.4,0.4
		c0.3,0.1,0.5,0.3,0.6,0.5c0.2,0.2,0.2,0.5,0.2,0.8c0,0.3-0.1,0.6-0.3,0.9c-0.2,0.3-0.5,0.5-0.8,0.6c-0.4,0.2-0.8,0.2-1.2,0.2
		c-0.7,0-1.3-0.1-1.7-0.5C301.5,20,301.2,19.5,301.1,18.9"/>
	<path class="st37" d="M307.7,17.2h3.2c0-0.5-0.2-0.8-0.4-1.1c-0.3-0.4-0.7-0.6-1.2-0.6c-0.5,0-0.8,0.2-1.1,0.5
		C307.9,16.3,307.8,16.7,307.7,17.2 M310.9,18.8l1,0.1c-0.2,0.6-0.5,1-0.9,1.4c-0.4,0.3-1,0.5-1.6,0.5c-0.8,0-1.5-0.3-2-0.8
		c-0.5-0.5-0.7-1.2-0.7-2.2c0-1,0.2-1.7,0.7-2.2c0.5-0.5,1.1-0.8,1.9-0.8c0.8,0,1.4,0.3,1.9,0.8c0.5,0.5,0.7,1.2,0.7,2.2
		c0,0.1,0,0.1,0,0.3h-4.3c0,0.6,0.2,1.1,0.5,1.4c0.3,0.3,0.7,0.5,1.2,0.5c0.4,0,0.7-0.1,0.9-0.3C310.6,19.5,310.8,19.2,310.9,18.8"
		/>
	<rect x="313.1" y="12.7" class="st37" width="1" height="7.9"/>
	<path class="st37" d="M315.6,14.9h1v5.7h-1V14.9z M315.6,12.7h1v1.1h-1V12.7z"/>
	<path class="st37" d="M318,20.6v-5.7h0.9v0.8c0.4-0.6,1-0.9,1.8-0.9c0.3,0,0.7,0.1,0.9,0.2c0.3,0.1,0.5,0.3,0.6,0.5
		c0.1,0.2,0.2,0.4,0.3,0.7c0,0.2,0.1,0.5,0.1,0.9v3.5h-1v-3.5c0-0.4,0-0.7-0.1-0.9c-0.1-0.2-0.2-0.4-0.4-0.5
		c-0.2-0.1-0.4-0.2-0.7-0.2c-0.4,0-0.8,0.1-1.1,0.4c-0.3,0.3-0.4,0.8-0.4,1.5v3.1H318"/>
	<path class="st37" d="M324.9,17.2h3.2c0-0.5-0.2-0.8-0.4-1.1c-0.3-0.4-0.7-0.6-1.2-0.6c-0.5,0-0.8,0.2-1.1,0.5
		C325.1,16.3,324.9,16.7,324.9,17.2 M328,18.8l1,0.1c-0.2,0.6-0.5,1-0.9,1.4c-0.4,0.3-1,0.5-1.6,0.5c-0.8,0-1.5-0.3-2-0.8
		c-0.5-0.5-0.7-1.2-0.7-2.2c0-1,0.2-1.7,0.7-2.2c0.5-0.5,1.1-0.8,1.9-0.8c0.8,0,1.4,0.3,1.9,0.8s0.7,1.2,0.7,2.2c0,0.1,0,0.1,0,0.3
		h-4.3c0,0.6,0.2,1.1,0.5,1.4c0.3,0.3,0.7,0.5,1.2,0.5c0.4,0,0.7-0.1,0.9-0.3C327.7,19.5,327.9,19.2,328,18.8"/>
	<path class="st37" d="M333.4,20.6v-7.9h1.6l1.9,5.6c0.2,0.5,0.3,0.9,0.4,1.2c0.1-0.3,0.2-0.7,0.4-1.3l1.9-5.5h1.4v7.9h-1V14
		l-2.3,6.6h-0.9l-2.3-6.7v6.7H333.4"/>
	<path class="st37" d="M343.1,17.8c0,0.7,0.2,1.3,0.5,1.6c0.3,0.4,0.7,0.5,1.2,0.5c0.5,0,0.9-0.2,1.2-0.5s0.5-0.9,0.5-1.7
		c0-0.7-0.2-1.2-0.5-1.6c-0.3-0.4-0.7-0.6-1.2-0.6c-0.5,0-0.9,0.2-1.2,0.6C343.3,16.5,343.1,17,343.1,17.8 M342.1,17.8
		c0-1.1,0.3-1.8,0.9-2.4c0.5-0.4,1.1-0.6,1.8-0.6c0.8,0,1.4,0.3,1.9,0.8c0.5,0.5,0.7,1.2,0.7,2.1c0,0.7-0.1,1.3-0.3,1.7
		c-0.2,0.4-0.6,0.7-1,1c-0.4,0.2-0.9,0.3-1.4,0.3c-0.8,0-1.5-0.3-1.9-0.8C342.4,19.5,342.1,18.7,342.1,17.8"/>
	<path class="st37" d="M349.2,17.8c0,0.7,0.1,1.3,0.4,1.6c0.3,0.4,0.7,0.5,1.1,0.5c0.4,0,0.8-0.2,1.1-0.5c0.3-0.3,0.5-0.9,0.5-1.6
		c0-0.8-0.2-1.4-0.5-1.7c-0.3-0.4-0.7-0.6-1.1-0.6c-0.4,0-0.8,0.2-1.1,0.5C349.4,16.5,349.2,17,349.2,17.8 M352.3,20.6v-0.7
		c-0.4,0.6-0.9,0.8-1.6,0.8c-0.5,0-0.9-0.1-1.3-0.4c-0.4-0.2-0.7-0.6-0.9-1c-0.2-0.4-0.3-1-0.3-1.6c0-0.6,0.1-1.1,0.3-1.5
		c0.2-0.5,0.5-0.8,0.8-1.1s0.8-0.4,1.3-0.4c0.3,0,0.7,0.1,0.9,0.2c0.3,0.1,0.5,0.3,0.6,0.6v-2.8h1v7.9H352.3"/>
	<path class="st37" d="M355.4,17.2h3.2c0-0.5-0.2-0.8-0.4-1.1c-0.3-0.4-0.7-0.6-1.2-0.6c-0.5,0-0.8,0.2-1.1,0.5
		C355.6,16.3,355.5,16.7,355.4,17.2 M358.6,18.8l1,0.1c-0.2,0.6-0.5,1-0.9,1.4c-0.4,0.3-1,0.5-1.6,0.5c-0.8,0-1.5-0.3-2-0.8
		c-0.5-0.5-0.7-1.2-0.7-2.2c0-1,0.2-1.7,0.7-2.2c0.5-0.5,1.1-0.8,1.9-0.8c0.8,0,1.4,0.3,1.9,0.8c0.5,0.5,0.7,1.2,0.7,2.2
		c0,0.1,0,0.1,0,0.3h-4.3c0,0.6,0.2,1.1,0.5,1.4c0.3,0.3,0.7,0.5,1.2,0.5c0.4,0,0.7-0.1,0.9-0.3C358.3,19.5,358.5,19.2,358.6,18.8"
		/>
	<rect x="360.8" y="12.7" class="st37" width="1" height="7.9"/>
	<line class="st38" x1="269.1" y1="122.8" x2="289.1" y2="122.8"/>
	<line class="st39" x1="269.1" y1="136.9" x2="289.1" y2="136.9"/>
	<line class="st37" x1="344.5" y1="133.2" x2="345.8" y2="133.2"/>
	<line class="st37" x1="339" y1="133.2" x2="340.4" y2="133.2"/>
	<line class="st40" x1="269.1" y1="151" x2="289.1" y2="151"/>
</g>
<path d="M298.6,122.2c0-2.3,1.4-3.7,3.2-3.7c0.9,0,1.6,0.4,2,0.9l-0.5,0.6c-0.4-0.4-0.9-0.7-1.5-0.7c-1.4,0-2.3,1.1-2.3,2.9
	c0,1.8,0.9,3,2.2,3c0.7,0,1.2-0.3,1.7-0.8l0.5,0.6c-0.6,0.7-1.3,1-2.2,1C299.9,125.9,298.6,124.5,298.6,122.2z M304.8,123.1
	c0-1.8,1.2-2.8,2.5-2.8s2.5,1,2.5,2.8c0,1.8-1.2,2.8-2.5,2.8S304.8,124.9,304.8,123.1z M308.8,123.1c0-1.2-0.6-2.1-1.5-2.1
	s-1.5,0.8-1.5,2.1s0.6,2,1.5,2S308.8,124.4,308.8,123.1z M311.2,120.4h0.7l0.1,0.8h0c0.5-0.5,1.1-0.9,1.8-0.9c1.1,0,1.6,0.7,1.6,2.1
	v3.4h-0.9v-3.3c0-1-0.3-1.4-1-1.4c-0.5,0-0.9,0.3-1.5,0.8v3.9h-0.9V120.4z M316.6,125.2l0.4-0.6c0.5,0.4,0.9,0.6,1.6,0.6
	c0.7,0,1.1-0.4,1.1-0.8c0-0.6-0.6-0.8-1.2-1c-0.7-0.3-1.6-0.6-1.6-1.5c0-0.9,0.7-1.5,1.8-1.5c0.7,0,1.2,0.3,1.7,0.6l-0.4,0.6
	c-0.4-0.3-0.7-0.5-1.2-0.5c-0.7,0-1,0.4-1,0.8c0,0.5,0.6,0.7,1.2,0.9c0.8,0.3,1.6,0.6,1.6,1.6c0,0.9-0.7,1.6-2,1.6
	C317.8,125.9,317.1,125.6,316.6,125.2z M321.6,118.8c0-0.4,0.3-0.6,0.6-0.6c0.4,0,0.6,0.2,0.6,0.6c0,0.3-0.3,0.6-0.6,0.6
	C321.9,119.3,321.6,119.1,321.6,118.8z M321.8,120.4h0.9v5.3h-0.9V120.4z M323.9,125.2l0.4-0.6c0.5,0.4,0.9,0.6,1.6,0.6
	c0.7,0,1.1-0.4,1.1-0.8c0-0.6-0.6-0.8-1.2-1c-0.7-0.3-1.6-0.6-1.6-1.5c0-0.9,0.7-1.5,1.8-1.5c0.7,0,1.2,0.3,1.7,0.6l-0.4,0.6
	c-0.4-0.3-0.7-0.5-1.2-0.5c-0.7,0-1,0.4-1,0.8c0,0.5,0.6,0.7,1.2,0.9c0.8,0.3,1.6,0.6,1.6,1.6c0,0.9-0.7,1.6-2,1.6
	C325.1,125.9,324.4,125.6,323.9,125.2z M329,124.1v-3h-0.8v-0.7l0.8-0.1l0.1-1.5h0.8v1.5h1.4v0.7h-1.4v3c0,0.7,0.2,1,0.8,1
	c0.2,0,0.4-0.1,0.6-0.1l0.2,0.7c-0.3,0.1-0.7,0.2-1,0.2C329.4,125.9,329,125.2,329,124.1z M332,123.1c0-1.7,1.2-2.8,2.4-2.8
	c1.4,0,2.1,1,2.1,2.5c0,0.2,0,0.4,0,0.5h-3.6c0.1,1.1,0.8,1.9,1.8,1.9c0.5,0,0.9-0.2,1.3-0.4l0.3,0.6c-0.5,0.3-1,0.6-1.8,0.6
	C333.2,125.9,332,124.9,332,123.1z M335.8,122.7c0-1.1-0.5-1.7-1.3-1.7c-0.8,0-1.4,0.6-1.5,1.7H335.8z M337.9,120.4h0.7l0.1,0.8h0
	c0.5-0.5,1.1-0.9,1.8-0.9c1.1,0,1.6,0.7,1.6,2.1v3.4h-0.9v-3.3c0-1-0.3-1.4-1-1.4c-0.5,0-0.9,0.3-1.5,0.8v3.9h-0.9V120.4z
	 M343.5,123.1c0-1.8,1.2-2.8,2.6-2.8c0.7,0,1.2,0.3,1.6,0.6l-0.5,0.6c-0.3-0.3-0.6-0.5-1.1-0.5c-1,0-1.7,0.8-1.7,2.1s0.7,2,1.7,2
	c0.5,0,0.9-0.2,1.3-0.5l0.4,0.6c-0.5,0.4-1.1,0.7-1.7,0.7C344.6,125.9,343.5,124.9,343.5,123.1z M348.5,128l0.2-0.7
	c0.1,0,0.3,0.1,0.4,0.1c0.6,0,1-0.5,1.2-1.1l0.1-0.4l-2.1-5.4h0.9l1.1,3c0.2,0.5,0.3,1,0.5,1.5h0c0.2-0.5,0.3-1,0.4-1.5l1-3h0.9
	l-2,5.8c-0.4,1.1-0.9,1.9-2,1.9C348.8,128.1,348.6,128.1,348.5,128z M356.4,118.6h1.1l1.4,3.9c0.2,0.5,0.3,1,0.5,1.5h0
	c0.2-0.5,0.3-1,0.5-1.5l1.4-3.9h1.1v7.2h-0.9v-4c0-0.6,0.1-1.5,0.1-2.1h0l-0.6,1.6l-1.4,3.7h-0.6l-1.4-3.7l-0.6-1.6h0
	c0,0.6,0.1,1.5,0.1,2.1v4h-0.8V118.6z M363.9,123.1c0-1.8,1.2-2.8,2.5-2.8s2.5,1,2.5,2.8c0,1.8-1.2,2.8-2.5,2.8
	S363.9,124.9,363.9,123.1z M368,123.1c0-1.2-0.6-2.1-1.5-2.1s-1.5,0.8-1.5,2.1s0.6,2,1.5,2S368,124.4,368,123.1z M369.9,123.1
	c0-1.7,1.1-2.8,2.3-2.8c0.6,0,1,0.2,1.5,0.6l0-0.9V118h0.9v7.8h-0.7l-0.1-0.6h0c-0.4,0.4-1,0.8-1.6,0.8
	C370.8,125.9,369.9,124.9,369.9,123.1z M373.7,124.4v-2.8c-0.5-0.4-0.9-0.6-1.3-0.6c-0.9,0-1.5,0.8-1.5,2c0,1.3,0.5,2,1.5,2
	C372.8,125.2,373.2,124.9,373.7,124.4z M376,123.1c0-1.7,1.2-2.8,2.4-2.8c1.4,0,2.1,1,2.1,2.5c0,0.2,0,0.4,0,0.5h-3.6
	c0.1,1.1,0.8,1.9,1.8,1.9c0.5,0,0.9-0.2,1.3-0.4l0.3,0.6c-0.5,0.3-1,0.6-1.8,0.6C377.1,125.9,376,124.9,376,123.1z M379.7,122.7
	c0-1.1-0.5-1.7-1.3-1.7c-0.8,0-1.4,0.6-1.5,1.7H379.7z M381.9,124.7V118h0.9v6.8c0,0.3,0.1,0.4,0.3,0.4c0.1,0,0.1,0,0.2,0l0.1,0.7
	c-0.1,0-0.3,0.1-0.5,0.1C382.1,125.9,381.9,125.5,381.9,124.7z"/>
<path d="M301.1,132.7c1.5,0,2.5,0.5,2.5,1.8c0,0.7-0.4,1.3-1.1,1.6v0c0.9,0.2,1.5,0.7,1.5,1.7c0,1.4-1.1,2.1-2.7,2.1H299v-7.2H301.1
	z M302.7,134.6c0-0.8-0.6-1.2-1.7-1.2h-1.1v2.3h1.1C302.2,135.7,302.7,135.3,302.7,134.6z M301.2,139.2c1.2,0,2-0.4,2-1.4
	c0-0.9-0.7-1.3-2-1.3h-1.3v2.7H301.2z M305.1,138.5c0-1.2,1-1.7,3.3-2c0-0.7-0.2-1.4-1.1-1.4c-0.6,0-1.2,0.3-1.6,0.6l-0.4-0.6
	c0.5-0.3,1.2-0.7,2.1-0.7c1.3,0,1.9,0.9,1.9,2.2v3.3h-0.7l-0.1-0.6h0c-0.5,0.4-1.1,0.8-1.8,0.8C305.7,140,305.1,139.5,305.1,138.5z
	 M308.3,138.6v-1.5c-1.8,0.2-2.4,0.7-2.4,1.3c0,0.6,0.4,0.9,0.9,0.9C307.4,139.3,307.8,139,308.3,138.6z M310.3,139.3l0.4-0.6
	c0.5,0.4,0.9,0.6,1.6,0.6c0.7,0,1.1-0.4,1.1-0.8c0-0.6-0.6-0.8-1.2-1c-0.7-0.3-1.6-0.6-1.6-1.5c0-0.9,0.7-1.5,1.8-1.5
	c0.7,0,1.2,0.3,1.7,0.6l-0.4,0.6c-0.4-0.3-0.7-0.5-1.2-0.5c-0.7,0-1,0.4-1,0.8c0,0.5,0.6,0.7,1.2,0.9c0.8,0.3,1.6,0.6,1.6,1.6
	c0,0.9-0.7,1.6-2,1.6C311.6,140,310.8,139.7,310.3,139.3z M315.1,137.2c0-1.7,1.2-2.8,2.4-2.8c1.4,0,2.1,1,2.1,2.5
	c0,0.2,0,0.4,0,0.5H316c0.1,1.1,0.8,1.9,1.8,1.9c0.5,0,0.9-0.2,1.3-0.4l0.3,0.6c-0.5,0.3-1,0.6-1.8,0.6
	C316.3,140,315.1,139,315.1,137.2z M318.9,136.8c0-1.1-0.5-1.7-1.3-1.7c-0.8,0-1.4,0.6-1.5,1.7H318.9z M321,138.8V132h0.9v6.8
	c0,0.3,0.1,0.4,0.3,0.4c0.1,0,0.1,0,0.2,0l0.1,0.7c-0.1,0-0.3,0.1-0.5,0.1C321.3,140,321,139.6,321,138.8z M323.6,132.9
	c0-0.4,0.3-0.6,0.6-0.6s0.6,0.2,0.6,0.6c0,0.3-0.3,0.6-0.6,0.6S323.6,133.2,323.6,132.9z M323.8,134.5h0.9v5.3h-0.9V134.5z
	 M326.5,134.5h0.7l0.1,0.8h0c0.5-0.5,1.1-0.9,1.8-0.9c1.1,0,1.6,0.7,1.6,2.1v3.4h-0.9v-3.3c0-1-0.3-1.4-1-1.4
	c-0.5,0-0.9,0.3-1.5,0.8v3.9h-0.9V134.5z M332.1,137.2c0-1.7,1.2-2.8,2.4-2.8c1.4,0,2.1,1,2.1,2.5c0,0.2,0,0.4,0,0.5H333
	c0.1,1.1,0.8,1.9,1.8,1.9c0.5,0,0.9-0.2,1.3-0.4l0.3,0.6c-0.5,0.3-1,0.6-1.8,0.6C333.3,140,332.1,139,332.1,137.2z M335.9,136.8
	c0-1.1-0.5-1.7-1.3-1.7c-0.8,0-1.4,0.6-1.5,1.7H335.9z M340.3,132.7h1.1l1.4,3.9c0.2,0.5,0.3,1,0.5,1.5h0c0.2-0.5,0.3-1,0.5-1.5
	l1.4-3.9h1.1v7.2h-0.9v-4c0-0.6,0.1-1.5,0.1-2.1h0l-0.6,1.6l-1.4,3.7H343l-1.4-3.7l-0.6-1.6h0c0,0.6,0.1,1.5,0.1,2.1v4h-0.8V132.7z
	 M347.8,137.2c0-1.8,1.2-2.8,2.5-2.8c1.3,0,2.5,1,2.5,2.8c0,1.8-1.2,2.8-2.5,2.8C348.9,140,347.8,139,347.8,137.2z M351.8,137.2
	c0-1.2-0.6-2.1-1.5-2.1c-0.9,0-1.5,0.8-1.5,2.1s0.6,2,1.5,2C351.2,139.3,351.8,138.4,351.8,137.2z M353.8,137.2
	c0-1.7,1.1-2.8,2.3-2.8c0.6,0,1,0.2,1.5,0.6l0-0.9V132h0.9v7.8h-0.7l-0.1-0.6h0c-0.4,0.4-1,0.8-1.6,0.8
	C354.6,140,353.8,139,353.8,137.2z M357.5,138.5v-2.8c-0.5-0.4-0.9-0.6-1.3-0.6c-0.9,0-1.5,0.8-1.5,2c0,1.3,0.5,2,1.5,2
	C356.7,139.3,357.1,139,357.5,138.5z M359.8,137.2c0-1.7,1.2-2.8,2.4-2.8c1.4,0,2.1,1,2.1,2.5c0,0.2,0,0.4,0,0.5h-3.6
	c0.1,1.1,0.8,1.9,1.8,1.9c0.5,0,0.9-0.2,1.3-0.4l0.3,0.6c-0.5,0.3-1,0.6-1.8,0.6C361,140,359.8,139,359.8,137.2z M363.6,136.8
	c0-1.1-0.5-1.7-1.3-1.7c-0.8,0-1.4,0.6-1.5,1.7H363.6z M365.7,138.8V132h0.9v6.8c0,0.3,0.1,0.4,0.3,0.4c0.1,0,0.1,0,0.2,0l0.1,0.7
	c-0.1,0-0.3,0.1-0.5,0.1C366,140,365.7,139.6,365.7,138.8z"/>
<path d="M299,146.7h1.1l1.4,3.9c0.2,0.5,0.3,1,0.5,1.5h0c0.2-0.5,0.3-1,0.5-1.5l1.4-3.9h1.1v7.2h-0.9v-4c0-0.6,0.1-1.5,0.1-2.1h0
	l-0.6,1.6l-1.4,3.7h-0.6l-1.4-3.7l-0.6-1.6h0c0,0.6,0.1,1.5,0.1,2.1v4H299V146.7z M306.8,151.9v-3.4h0.9v3.3c0,1,0.3,1.4,1,1.4
	c0.5,0,0.9-0.3,1.4-0.9v-3.8h0.9v5.3h-0.7l-0.1-0.8h0c-0.5,0.6-1,1-1.8,1C307.4,154,306.8,153.3,306.8,151.9z M312.9,152.8V146h0.9
	v6.8c0,0.3,0.1,0.4,0.3,0.4c0.1,0,0.1,0,0.2,0l0.1,0.7c-0.1,0-0.3,0.1-0.5,0.1C313.2,154,312.9,153.6,312.9,152.8z M315.9,152.2v-3
	h-0.8v-0.7l0.8-0.1l0.1-1.5h0.8v1.5h1.4v0.7h-1.4v3c0,0.7,0.2,1,0.8,1c0.2,0,0.4-0.1,0.6-0.1l0.2,0.7c-0.3,0.1-0.7,0.2-1,0.2
	C316.2,154,315.9,153.3,315.9,152.2z M319.3,146.8c0-0.4,0.3-0.6,0.6-0.6s0.6,0.2,0.6,0.6c0,0.3-0.3,0.6-0.6,0.6
	S319.3,147.2,319.3,146.8z M319.4,148.5h0.9v5.3h-0.9V148.5z M321.7,150.8h2.5v0.7h-2.5V150.8z M326.6,147.4h-2.2v-0.8h5.3v0.8h-2.2
	v6.4h-0.9V147.4z M329.8,152.5c0-1.2,1-1.7,3.3-2c0-0.7-0.2-1.4-1.1-1.4c-0.6,0-1.2,0.3-1.6,0.6l-0.4-0.6c0.5-0.3,1.2-0.7,2.1-0.7
	c1.3,0,1.9,0.9,1.9,2.2v3.3h-0.7l-0.1-0.6h0c-0.5,0.4-1.1,0.8-1.8,0.8C330.5,154,329.8,153.5,329.8,152.5z M333.1,152.6v-1.5
	c-1.8,0.2-2.4,0.7-2.4,1.3c0,0.6,0.4,0.9,0.9,0.9C332.1,153.3,332.6,153,333.1,152.6z M335.1,153.3l0.4-0.6c0.5,0.4,0.9,0.6,1.6,0.6
	c0.7,0,1.1-0.4,1.1-0.8c0-0.6-0.6-0.8-1.2-1c-0.7-0.3-1.6-0.6-1.6-1.5c0-0.9,0.7-1.5,1.8-1.5c0.7,0,1.2,0.3,1.7,0.6l-0.4,0.6
	c-0.4-0.3-0.7-0.5-1.2-0.5c-0.7,0-1,0.4-1,0.8c0,0.5,0.6,0.7,1.2,0.9c0.8,0.3,1.6,0.6,1.6,1.6c0,0.9-0.7,1.6-2,1.6
	C336.3,154,335.6,153.7,335.1,153.3z M340.3,146h0.9v5.3h0l2.3-2.8h1l-1.8,2.1l2,3.2h-1l-1.6-2.6l-1,1.2v1.4h-0.9V146z M348,146.7
	h1.1l1.4,3.9c0.2,0.5,0.3,1,0.5,1.5h0c0.2-0.5,0.3-1,0.5-1.5l1.4-3.9h1.1v7.2h-0.9v-4c0-0.6,0.1-1.5,0.1-2.1h0l-0.6,1.6l-1.4,3.7
	h-0.6l-1.4-3.7l-0.6-1.6h0c0,0.6,0.1,1.5,0.1,2.1v4H348V146.7z M355.5,151.2c0-1.8,1.2-2.8,2.5-2.8c1.3,0,2.5,1,2.5,2.8
	c0,1.8-1.2,2.8-2.5,2.8C356.7,154,355.5,153,355.5,151.2z M359.5,151.2c0-1.2-0.6-2.1-1.5-2.1c-0.9,0-1.5,0.8-1.5,2.1s0.6,2,1.5,2
	C358.9,153.3,359.5,152.4,359.5,151.2z M361.5,151.2c0-1.7,1.1-2.8,2.3-2.8c0.6,0,1,0.2,1.5,0.6l0-0.9V146h0.9v7.8h-0.7l-0.1-0.6h0
	c-0.4,0.4-1,0.8-1.6,0.8C362.4,154,361.5,153,361.5,151.2z M365.3,152.5v-2.8c-0.5-0.4-0.9-0.6-1.3-0.6c-0.9,0-1.5,0.8-1.5,2
	c0,1.3,0.5,2,1.5,2C364.4,153.2,364.8,153,365.3,152.5z M367.6,151.2c0-1.7,1.2-2.8,2.4-2.8c1.4,0,2.1,1,2.1,2.5c0,0.2,0,0.4,0,0.5
	h-3.6c0.1,1.1,0.8,1.9,1.8,1.9c0.5,0,0.9-0.2,1.3-0.4l0.3,0.6c-0.5,0.3-1,0.6-1.8,0.6C368.7,154,367.6,153,367.6,151.2z
	 M371.3,150.8c0-1.1-0.5-1.7-1.3-1.7c-0.8,0-1.4,0.6-1.5,1.7H371.3z M373.4,152.8V146h0.9v6.8c0,0.3,0.1,0.4,0.3,0.4
	c0.1,0,0.1,0,0.2,0l0.1,0.7c-0.1,0-0.3,0.1-0.5,0.1C373.7,154,373.4,153.6,373.4,152.8z"/>
</svg>
