<?xml version="1.0" encoding="utf-8"?>
<!-- Generator: Adobe Illustrator 19.0.0, SVG Export Plug-In . SVG Version: 6.00 Build 0)  -->
<svg version="1.1" id="Layer_1" xmlns="http://www.w3.org/2000/svg" xmlns:xlink="http://www.w3.org/1999/xlink" x="0px" y="0px"
	 viewBox="0 0 516.5 388" style="enable-background:new 0 0 516.5 388;" xml:space="preserve">
<style type="text/css">
	.st0{clip-path:url(#SVGID_2_);fill:#FFFFFF;}
	.st1{clip-path:url(#SVGID_2_);}
	
		.st2{clip-path:url(#SVGID_4_);fill:none;stroke:#CCCCCC;stroke-width:0.8;stroke-linecap:round;stroke-linejoin:round;stroke-miterlimit:10;}
	.st3{clip-path:url(#SVGID_6_);fill:#262626;}
	.st4{clip-path:url(#SVGID_8_);fill:#262626;}
	
		.st5{clip-path:url(#SVGID_10_);fill:none;stroke:#CCCCCC;stroke-width:0.8;stroke-linecap:round;stroke-linejoin:round;stroke-miterlimit:10;}
	.st6{clip-path:url(#SVGID_12_);fill:#262626;}
	
		.st7{clip-path:url(#SVGID_14_);fill:none;stroke:#CCCCCC;stroke-width:0.8;stroke-linecap:round;stroke-linejoin:round;stroke-miterlimit:10;}
	.st8{clip-path:url(#SVGID_16_);fill:#262626;}
	
		.st9{clip-path:url(#SVGID_18_);fill:none;stroke:#CCCCCC;stroke-width:0.8;stroke-linecap:round;stroke-linejoin:round;stroke-miterlimit:10;}
	.st10{clip-path:url(#SVGID_20_);fill:#262626;}
	
		.st11{clip-path:url(#SVGID_22_);fill:none;stroke:#CCCCCC;stroke-width:0.8;stroke-linecap:round;stroke-linejoin:round;stroke-miterlimit:10;}
	.st12{clip-path:url(#SVGID_24_);fill:#262626;}
	
		.st13{clip-path:url(#SVGID_26_);fill:none;stroke:#CCCCCC;stroke-width:0.8;stroke-linecap:round;stroke-linejoin:round;stroke-miterlimit:10;}
	.st14{clip-path:url(#SVGID_28_);fill:#262626;}
	
		.st15{clip-path:url(#SVGID_30_);fill:none;stroke:#CCCCCC;stroke-width:0.8;stroke-linecap:round;stroke-linejoin:round;stroke-miterlimit:10;}
	.st16{clip-path:url(#SVGID_32_);fill:#262626;}
	
		.st17{clip-path:url(#SVGID_34_);fill:none;stroke:#CCCCCC;stroke-width:0.8;stroke-linecap:round;stroke-linejoin:round;stroke-miterlimit:10;}
	.st18{clip-path:url(#SVGID_36_);fill:#262626;}
	
		.st19{clip-path:url(#SVGID_38_);fill:none;stroke:#CCCCCC;stroke-width:0.8;stroke-linecap:round;stroke-linejoin:round;stroke-miterlimit:10;}
	.st20{clip-path:url(#SVGID_40_);fill:#262626;}
	
		.st21{clip-path:url(#SVGID_42_);fill:none;stroke:#CCCCCC;stroke-width:0.8;stroke-linecap:round;stroke-linejoin:round;stroke-miterlimit:10;}
	.st22{clip-path:url(#SVGID_44_);fill:#262626;}
	
		.st23{clip-path:url(#SVGID_46_);fill:none;stroke:#CCCCCC;stroke-width:0.8;stroke-linecap:round;stroke-linejoin:round;stroke-miterlimit:10;}
	.st24{clip-path:url(#SVGID_48_);fill:#262626;}
	.st25{clip-path:url(#SVGID_50_);}
	.st26{opacity:0.25;clip-path:url(#SVGID_52_);}
	.st27{clip-path:url(#SVGID_54_);fill:#808080;}
	.st28{clip-path:url(#SVGID_56_);fill:none;stroke:#FFFFFF;stroke-linejoin:round;stroke-miterlimit:10;}
	.st29{clip-path:url(#SVGID_58_);}
	.st30{opacity:0.25;clip-path:url(#SVGID_60_);}
	.st31{clip-path:url(#SVGID_62_);fill:#FF0000;}
	.st32{clip-path:url(#SVGID_64_);fill:none;stroke:#FFFFFF;stroke-linejoin:round;stroke-miterlimit:10;}
	.st33{clip-path:url(#SVGID_66_);}
	.st34{opacity:0.25;clip-path:url(#SVGID_68_);}
	.st35{clip-path:url(#SVGID_70_);fill:#0000FF;}
	.st36{clip-path:url(#SVGID_72_);fill:none;stroke:#FFFFFF;stroke-linejoin:round;stroke-miterlimit:10;}
	
		.st37{clip-path:url(#SVGID_66_);fill:none;stroke:#808080;stroke-width:1.5;stroke-linejoin:round;stroke-miterlimit:10;stroke-dasharray:5.55,2.4;}
	
		.st38{clip-path:url(#SVGID_66_);fill:none;stroke:#FF0000;stroke-width:1.5;stroke-linecap:round;stroke-linejoin:round;stroke-miterlimit:10;}
	
		.st39{clip-path:url(#SVGID_66_);fill:none;stroke:#0000FF;stroke-width:1.5;stroke-linecap:round;stroke-linejoin:round;stroke-miterlimit:10;}
	.st40{clip-path:url(#SVGID_74_);fill:none;stroke:#CCCCCC;stroke-width:0.8;stroke-linecap:square;stroke-miterlimit:10;}
	.st41{clip-path:url(#SVGID_74_);}
	.st42{opacity:0.8;clip-path:url(#SVGID_76_);}
	.st43{clip-path:url(#SVGID_78_);fill:#FFFFFF;}
	.st44{clip-path:url(#SVGID_80_);fill:none;stroke:#CCCCCC;stroke-miterlimit:10;}
	
		.st45{clip-path:url(#SVGID_74_);fill:none;stroke:#808080;stroke-width:1.5;stroke-linejoin:round;stroke-miterlimit:10;stroke-dasharray:5.55,2.4;}
	.st46{clip-path:url(#SVGID_74_);fill:#262626;}
	
		.st47{clip-path:url(#SVGID_74_);fill:none;stroke:#FF0000;stroke-width:1.5;stroke-linecap:round;stroke-linejoin:round;stroke-miterlimit:10;}
	
		.st48{clip-path:url(#SVGID_74_);fill:none;stroke:#0000FF;stroke-width:1.5;stroke-linecap:round;stroke-linejoin:round;stroke-miterlimit:10;}
</style>
<g>
	<defs>
		<rect id="SVGID_1_" width="516.5" height="388"/>
	</defs>
	<clipPath id="SVGID_2_">
		<use xlink:href="#SVGID_1_"  style="overflow:visible;"/>
	</clipPath>
	<rect x="57.5" y="7.8" class="st0" width="446.4" height="332.6"/>
	<g class="st1">
		<defs>
			<rect id="SVGID_3_" x="57.5" y="7.8" width="446.4" height="332.6"/>
		</defs>
		<clipPath id="SVGID_4_">
			<use xlink:href="#SVGID_3_"  style="overflow:visible;"/>
		</clipPath>
		<line class="st2" x1="105.9" y1="340.5" x2="105.9" y2="7.8"/>
	</g>
	<g class="st1">
		<defs>
			<rect id="SVGID_5_" width="516.5" height="388"/>
		</defs>
		<clipPath id="SVGID_6_">
			<use xlink:href="#SVGID_5_"  style="overflow:visible;"/>
		</clipPath>
		<path class="st3" d="M91,354c0,2.1,0.2,3.5,0.7,4.2c0.5,0.7,1.1,1,1.8,1c0.7,0,1.3-0.3,1.8-1c0.5-0.7,0.8-2.1,0.8-4.2
			s-0.3-3.5-0.8-4.2c-0.5-0.7-1.1-1-1.8-1c-0.7,0-1.3,0.3-1.7,0.9C91.2,350.5,91,351.9,91,354 M89.4,354c0-1.5,0.1-2.7,0.5-3.7
			c0.3-0.9,0.8-1.7,1.4-2.2s1.4-0.8,2.3-0.8c0.7,0,1.3,0.1,1.8,0.4c0.5,0.3,0.9,0.7,1.3,1.2c0.3,0.5,0.6,1.2,0.8,1.9
			c0.2,0.8,0.3,1.8,0.3,3c0,1.5-0.2,2.7-0.5,3.7s-0.8,1.6-1.4,2.1s-1.4,0.7-2.3,0.7c-1.3,0-2.2-0.4-2.9-1.3
			C89.8,358.2,89.4,356.4,89.4,354"/>
		<rect x="100.2" y="358.6" class="st3" width="1.8" height="1.8"/>
		<path class="st3" d="M106,354c0,2.1,0.2,3.5,0.7,4.2c0.5,0.7,1.1,1,1.8,1c0.7,0,1.3-0.3,1.8-1c0.5-0.7,0.8-2.1,0.8-4.2
			s-0.3-3.5-0.8-4.2c-0.5-0.7-1.1-1-1.8-1c-0.7,0-1.3,0.3-1.7,0.9C106.3,350.5,106,351.9,106,354 M104.4,354c0-1.5,0.1-2.7,0.5-3.7
			c0.3-0.9,0.8-1.7,1.4-2.2s1.4-0.8,2.3-0.8c0.7,0,1.3,0.1,1.8,0.4c0.5,0.3,0.9,0.7,1.3,1.2c0.3,0.5,0.6,1.2,0.8,1.9
			c0.2,0.8,0.3,1.8,0.3,3c0,1.5-0.2,2.7-0.5,3.7s-0.8,1.6-1.4,2.1s-1.4,0.7-2.3,0.7c-1.3,0-2.2-0.4-2.9-1.3
			C104.8,358.2,104.4,356.4,104.4,354"/>
		<path class="st3" d="M116,354c0,2.1,0.2,3.5,0.7,4.2c0.5,0.7,1.1,1,1.8,1c0.7,0,1.3-0.3,1.8-1c0.5-0.7,0.8-2.1,0.8-4.2
			s-0.3-3.5-0.8-4.2c-0.5-0.7-1.1-1-1.8-1c-0.7,0-1.3,0.3-1.7,0.9C116.3,350.5,116,351.9,116,354 M114.4,354c0-1.5,0.1-2.7,0.5-3.7
			c0.3-0.9,0.8-1.7,1.4-2.2s1.4-0.8,2.3-0.8c0.7,0,1.3,0.1,1.8,0.4c0.5,0.3,0.9,0.7,1.3,1.2c0.3,0.5,0.6,1.2,0.8,1.9
			c0.2,0.8,0.3,1.8,0.3,3c0,1.5-0.2,2.7-0.5,3.7s-0.8,1.6-1.4,2.1s-1.4,0.7-2.3,0.7c-1.3,0-2.2-0.4-2.9-1.3
			C114.8,358.2,114.4,356.4,114.4,354"/>
		<path class="st3" d="M124.4,357l1.7-0.1c0.1,0.8,0.4,1.4,0.8,1.8c0.4,0.4,1,0.6,1.6,0.6c0.8,0,1.4-0.3,1.9-0.9
			c0.5-0.6,0.8-1.3,0.8-2.3c0-0.9-0.3-1.6-0.8-2.1c-0.5-0.5-1.2-0.8-2-0.8c-0.5,0-1,0.1-1.4,0.4c-0.4,0.2-0.7,0.5-1,0.9l-1.5-0.2
			l1.2-6.6h6.4v1.5h-5.1l-0.7,3.5c0.8-0.5,1.6-0.8,2.4-0.8c1.1,0,2.1,0.4,2.8,1.2c0.8,0.8,1.2,1.8,1.2,3c0,1.2-0.3,2.2-1,3
			c-0.8,1-1.9,1.5-3.4,1.5c-1.2,0-2.1-0.3-2.9-1C124.9,358.9,124.5,358.1,124.4,357"/>
	</g>
	<g class="st1">
		<defs>
			<rect id="SVGID_7_" x="66.1" y="342.3" width="48" height="24"/>
		</defs>
		<clipPath id="SVGID_8_">
			<use xlink:href="#SVGID_7_"  style="overflow:visible;"/>
		</clipPath>
		<rect x="79.1" y="353.3" class="st4" width="8.5" height="1.5"/>
	</g>
	<g class="st1">
		<defs>
			<rect id="SVGID_9_" x="57.5" y="7.8" width="446.4" height="332.6"/>
		</defs>
		<clipPath id="SVGID_10_">
			<use xlink:href="#SVGID_9_"  style="overflow:visible;"/>
		</clipPath>
		<line class="st5" x1="183.1" y1="340.5" x2="183.1" y2="7.8"/>
	</g>
	<g class="st1">
		<defs>
			<rect id="SVGID_11_" width="516.5" height="388"/>
		</defs>
		<clipPath id="SVGID_12_">
			<use xlink:href="#SVGID_11_"  style="overflow:visible;"/>
		</clipPath>
		<path class="st6" d="M162.9,354c0,2.1,0.2,3.5,0.7,4.2c0.5,0.7,1.1,1,1.8,1c0.7,0,1.3-0.3,1.8-1s0.8-2.1,0.8-4.2s-0.3-3.5-0.8-4.2
			c-0.5-0.7-1.1-1-1.8-1c-0.7,0-1.3,0.3-1.7,0.9C163.2,350.5,162.9,351.9,162.9,354 M161.3,354c0-1.5,0.1-2.7,0.5-3.7
			c0.3-0.9,0.8-1.7,1.4-2.2s1.4-0.8,2.3-0.8c0.7,0,1.3,0.1,1.8,0.4c0.5,0.3,0.9,0.7,1.3,1.2c0.3,0.5,0.6,1.2,0.8,1.9
			c0.2,0.8,0.3,1.8,0.3,3c0,1.5-0.2,2.7-0.5,3.7s-0.8,1.6-1.4,2.1s-1.4,0.7-2.3,0.7c-1.3,0-2.2-0.4-2.9-1.3
			C161.7,358.2,161.3,356.4,161.3,354"/>
		<rect x="172.2" y="358.6" class="st6" width="1.8" height="1.8"/>
		<path class="st6" d="M177.9,354c0,2.1,0.2,3.5,0.7,4.2c0.5,0.7,1.1,1,1.8,1c0.7,0,1.3-0.3,1.8-1s0.8-2.1,0.8-4.2s-0.3-3.5-0.8-4.2
			c-0.5-0.7-1.1-1-1.8-1c-0.7,0-1.3,0.3-1.7,0.9C178.2,350.5,177.9,351.9,177.9,354 M176.3,354c0-1.5,0.1-2.7,0.5-3.7
			c0.3-0.9,0.8-1.7,1.4-2.2s1.4-0.8,2.3-0.8c0.7,0,1.3,0.1,1.8,0.4c0.5,0.3,0.9,0.7,1.3,1.2c0.3,0.5,0.6,1.2,0.8,1.9
			c0.2,0.8,0.3,1.8,0.3,3c0,1.5-0.2,2.7-0.5,3.7s-0.8,1.6-1.4,2.1s-1.4,0.7-2.3,0.7c-1.3,0-2.2-0.4-2.9-1.3
			C176.7,358.2,176.3,356.4,176.3,354"/>
		<path class="st6" d="M187.9,354c0,2.1,0.2,3.5,0.7,4.2c0.5,0.7,1.1,1,1.8,1c0.7,0,1.3-0.3,1.8-1s0.8-2.1,0.8-4.2s-0.3-3.5-0.8-4.2
			c-0.5-0.7-1.1-1-1.8-1c-0.7,0-1.3,0.3-1.7,0.9C188.2,350.5,187.9,351.9,187.9,354 M186.3,354c0-1.5,0.1-2.7,0.5-3.7
			c0.3-0.9,0.8-1.7,1.4-2.2s1.4-0.8,2.3-0.8c0.7,0,1.3,0.1,1.8,0.4c0.5,0.3,0.9,0.7,1.3,1.2c0.3,0.5,0.6,1.2,0.8,1.9
			c0.2,0.8,0.3,1.8,0.3,3c0,1.5-0.2,2.7-0.5,3.7s-0.8,1.6-1.4,2.1s-1.4,0.7-2.3,0.7c-1.3,0-2.2-0.4-2.9-1.3
			C186.7,358.2,186.3,356.4,186.3,354"/>
		<path class="st6" d="M197.9,354c0,2.1,0.2,3.5,0.7,4.2c0.5,0.7,1.1,1,1.8,1c0.7,0,1.3-0.3,1.8-1s0.8-2.1,0.8-4.2s-0.3-3.5-0.8-4.2
			c-0.5-0.7-1.1-1-1.8-1c-0.7,0-1.3,0.3-1.7,0.9C198.2,350.5,197.9,351.9,197.9,354 M196.3,354c0-1.5,0.1-2.7,0.5-3.7
			c0.3-0.9,0.8-1.7,1.4-2.2s1.4-0.8,2.3-0.8c0.7,0,1.3,0.1,1.8,0.4c0.5,0.3,0.9,0.7,1.3,1.2c0.3,0.5,0.6,1.2,0.8,1.9
			c0.2,0.8,0.3,1.8,0.3,3c0,1.5-0.2,2.7-0.5,3.7s-0.8,1.6-1.4,2.1s-1.4,0.7-2.3,0.7c-1.3,0-2.2-0.4-2.9-1.3
			C196.7,358.2,196.3,356.4,196.3,354"/>
	</g>
	<g class="st1">
		<defs>
			<rect id="SVGID_13_" x="57.5" y="7.8" width="446.4" height="332.6"/>
		</defs>
		<clipPath id="SVGID_14_">
			<use xlink:href="#SVGID_13_"  style="overflow:visible;"/>
		</clipPath>
		<line class="st7" x1="260.2" y1="340.5" x2="260.2" y2="7.8"/>
	</g>
	<g class="st1">
		<defs>
			<rect id="SVGID_15_" width="516.5" height="388"/>
		</defs>
		<clipPath id="SVGID_16_">
			<use xlink:href="#SVGID_15_"  style="overflow:visible;"/>
		</clipPath>
		<path class="st8" d="M240.1,354c0,2.1,0.2,3.5,0.7,4.2c0.5,0.7,1.1,1,1.8,1c0.7,0,1.3-0.3,1.8-1s0.8-2.1,0.8-4.2s-0.3-3.5-0.8-4.2
			c-0.5-0.7-1.1-1-1.8-1c-0.7,0-1.3,0.3-1.7,0.9C240.3,350.5,240.1,351.9,240.1,354 M238.5,354c0-1.5,0.1-2.7,0.5-3.7
			c0.3-0.9,0.8-1.7,1.4-2.2s1.4-0.8,2.3-0.8c0.7,0,1.3,0.1,1.8,0.4c0.5,0.3,0.9,0.7,1.3,1.2c0.3,0.5,0.6,1.2,0.8,1.9
			c0.2,0.8,0.3,1.8,0.3,3c0,1.5-0.2,2.7-0.5,3.7s-0.8,1.6-1.4,2.1s-1.4,0.7-2.3,0.7c-1.3,0-2.2-0.4-2.9-1.3
			C238.9,358.2,238.5,356.4,238.5,354"/>
		<rect x="249.3" y="358.6" class="st8" width="1.8" height="1.8"/>
		<path class="st8" d="M255.1,354c0,2.1,0.2,3.5,0.7,4.2c0.5,0.7,1.1,1,1.8,1c0.7,0,1.3-0.3,1.8-1s0.8-2.1,0.8-4.2s-0.3-3.5-0.8-4.2
			c-0.5-0.7-1.1-1-1.8-1c-0.7,0-1.3,0.3-1.7,0.9C255.4,350.5,255.1,351.9,255.1,354 M253.5,354c0-1.5,0.1-2.7,0.5-3.7
			c0.3-0.9,0.8-1.7,1.4-2.2s1.4-0.8,2.3-0.8c0.7,0,1.3,0.1,1.8,0.4c0.5,0.3,0.9,0.7,1.3,1.2c0.3,0.5,0.6,1.2,0.8,1.9
			c0.2,0.8,0.3,1.8,0.3,3c0,1.5-0.2,2.7-0.5,3.7s-0.8,1.6-1.4,2.1s-1.4,0.7-2.3,0.7c-1.3,0-2.2-0.4-2.9-1.3
			C253.9,358.2,253.5,356.4,253.5,354"/>
		<path class="st8" d="M265.1,354c0,2.1,0.2,3.5,0.7,4.2c0.5,0.7,1.1,1,1.8,1c0.7,0,1.3-0.3,1.8-1s0.8-2.1,0.8-4.2s-0.3-3.5-0.8-4.2
			c-0.5-0.7-1.1-1-1.8-1c-0.7,0-1.3,0.3-1.7,0.9C265.4,350.5,265.1,351.9,265.1,354 M263.5,354c0-1.5,0.1-2.7,0.5-3.7
			c0.3-0.9,0.8-1.7,1.4-2.2s1.4-0.8,2.3-0.8c0.7,0,1.3,0.1,1.8,0.4c0.5,0.3,0.9,0.7,1.3,1.2c0.3,0.5,0.6,1.2,0.8,1.9
			c0.2,0.8,0.3,1.8,0.3,3c0,1.5-0.2,2.7-0.5,3.7s-0.8,1.6-1.4,2.1s-1.4,0.7-2.3,0.7c-1.3,0-2.2-0.4-2.9-1.3
			C263.9,358.2,263.5,356.4,263.5,354"/>
		<path class="st8" d="M273.5,357l1.7-0.1c0.1,0.8,0.4,1.4,0.8,1.8c0.5,0.4,1,0.6,1.6,0.6c0.8,0,1.4-0.3,1.9-0.9
			c0.5-0.6,0.8-1.3,0.8-2.3c0-0.9-0.3-1.6-0.8-2.1c-0.5-0.5-1.2-0.8-2-0.8c-0.5,0-1,0.1-1.4,0.4c-0.4,0.2-0.7,0.5-1,0.9l-1.5-0.2
			l1.2-6.6h6.4v1.5h-5.1l-0.7,3.5c0.8-0.5,1.6-0.8,2.4-0.8c1.1,0,2.1,0.4,2.8,1.2c0.8,0.8,1.2,1.8,1.2,3c0,1.2-0.3,2.2-1,3
			c-0.8,1-1.9,1.5-3.4,1.5c-1.2,0-2.1-0.3-2.9-1C274,358.9,273.6,358.1,273.5,357"/>
	</g>
	<g class="st1">
		<defs>
			<rect id="SVGID_17_" x="57.5" y="7.8" width="446.4" height="332.6"/>
		</defs>
		<clipPath id="SVGID_18_">
			<use xlink:href="#SVGID_17_"  style="overflow:visible;"/>
		</clipPath>
		<line class="st9" x1="337.4" y1="340.5" x2="337.4" y2="7.8"/>
	</g>
	<g class="st1">
		<defs>
			<rect id="SVGID_19_" width="516.5" height="388"/>
		</defs>
		<clipPath id="SVGID_20_">
			<use xlink:href="#SVGID_19_"  style="overflow:visible;"/>
		</clipPath>
		<path class="st10" d="M317.3,354c0,2.1,0.2,3.5,0.7,4.2c0.5,0.7,1.1,1,1.8,1c0.7,0,1.3-0.3,1.8-1s0.8-2.1,0.8-4.2
			s-0.3-3.5-0.8-4.2c-0.5-0.7-1.1-1-1.8-1c-0.7,0-1.3,0.3-1.7,0.9C317.5,350.5,317.3,351.9,317.3,354 M315.6,354
			c0-1.5,0.1-2.7,0.5-3.7c0.3-0.9,0.8-1.7,1.4-2.2s1.4-0.8,2.3-0.8c0.7,0,1.3,0.1,1.8,0.4c0.5,0.3,0.9,0.7,1.3,1.2
			c0.3,0.5,0.6,1.2,0.8,1.9c0.2,0.8,0.3,1.8,0.3,3c0,1.5-0.2,2.7-0.5,3.7s-0.8,1.6-1.4,2.1s-1.4,0.7-2.3,0.7c-1.3,0-2.2-0.4-2.9-1.3
			C316.1,358.2,315.6,356.4,315.6,354"/>
		<rect x="326.5" y="358.6" class="st10" width="1.8" height="1.8"/>
		<path class="st10" d="M332.3,354c0,2.1,0.2,3.5,0.7,4.2c0.5,0.7,1.1,1,1.8,1c0.7,0,1.3-0.3,1.8-1c0.5-0.7,0.8-2.1,0.8-4.2
			s-0.3-3.5-0.8-4.2c-0.5-0.7-1.1-1-1.8-1c-0.7,0-1.3,0.3-1.7,0.9C332.5,350.5,332.3,351.9,332.3,354 M330.6,354
			c0-1.5,0.1-2.7,0.5-3.7c0.3-0.9,0.8-1.7,1.4-2.2s1.4-0.8,2.3-0.8c0.7,0,1.3,0.1,1.8,0.4c0.5,0.3,0.9,0.7,1.3,1.2
			c0.3,0.5,0.6,1.2,0.8,1.9c0.2,0.8,0.3,1.8,0.3,3c0,1.5-0.2,2.7-0.5,3.7c-0.3,0.9-0.8,1.6-1.4,2.1s-1.4,0.7-2.3,0.7
			c-1.3,0-2.2-0.4-2.9-1.3C331.1,358.2,330.6,356.4,330.6,354"/>
		<path class="st10" d="M346.6,360.4H345v-10.1c-0.4,0.4-0.9,0.7-1.5,1.1c-0.6,0.4-1.2,0.6-1.7,0.8v-1.5c0.9-0.4,1.7-0.9,2.3-1.5
			c0.6-0.6,1.1-1.2,1.4-1.7h1V360.4"/>
		<path class="st10" d="M352.3,354c0,2.1,0.2,3.5,0.7,4.2c0.5,0.7,1.1,1,1.8,1c0.7,0,1.3-0.3,1.8-1s0.8-2.1,0.8-4.2
			s-0.3-3.5-0.8-4.2c-0.5-0.7-1.1-1-1.8-1c-0.7,0-1.3,0.3-1.7,0.9C352.6,350.5,352.3,351.9,352.3,354 M350.7,354
			c0-1.5,0.1-2.7,0.5-3.7c0.3-0.9,0.8-1.7,1.4-2.2c0.6-0.5,1.4-0.8,2.3-0.8c0.7,0,1.3,0.1,1.8,0.4c0.5,0.3,0.9,0.7,1.3,1.2
			c0.3,0.5,0.6,1.2,0.8,1.9c0.2,0.8,0.3,1.8,0.3,3c0,1.5-0.2,2.7-0.5,3.7c-0.3,0.9-0.8,1.6-1.4,2.1c-0.6,0.5-1.4,0.7-2.3,0.7
			c-1.3,0-2.2-0.4-2.9-1.3C351.1,358.2,350.7,356.4,350.7,354"/>
	</g>
	<g class="st1">
		<defs>
			<rect id="SVGID_21_" x="57.5" y="7.8" width="446.4" height="332.6"/>
		</defs>
		<clipPath id="SVGID_22_">
			<use xlink:href="#SVGID_21_"  style="overflow:visible;"/>
		</clipPath>
		<line class="st11" x1="414.6" y1="340.5" x2="414.6" y2="7.8"/>
	</g>
	<g class="st1">
		<defs>
			<rect id="SVGID_23_" width="516.5" height="388"/>
		</defs>
		<clipPath id="SVGID_24_">
			<use xlink:href="#SVGID_23_"  style="overflow:visible;"/>
		</clipPath>
		<path class="st12" d="M394.4,354c0,2.1,0.2,3.5,0.7,4.2c0.5,0.7,1.1,1,1.8,1c0.7,0,1.3-0.3,1.8-1c0.5-0.7,0.8-2.1,0.8-4.2
			s-0.3-3.5-0.8-4.2c-0.5-0.7-1.1-1-1.8-1c-0.7,0-1.3,0.3-1.7,0.9C394.7,350.5,394.4,351.9,394.4,354 M392.8,354
			c0-1.5,0.1-2.7,0.5-3.7c0.3-0.9,0.8-1.7,1.4-2.2c0.6-0.5,1.4-0.8,2.3-0.8c0.7,0,1.3,0.1,1.8,0.4c0.5,0.3,0.9,0.7,1.3,1.2
			c0.3,0.5,0.6,1.2,0.8,1.9c0.2,0.8,0.3,1.8,0.3,3c0,1.5-0.2,2.7-0.5,3.7c-0.3,0.9-0.8,1.6-1.4,2.1c-0.6,0.5-1.4,0.7-2.3,0.7
			c-1.3,0-2.2-0.4-2.9-1.3C393.2,358.2,392.8,356.4,392.8,354"/>
		<rect x="403.7" y="358.6" class="st12" width="1.8" height="1.8"/>
		<path class="st12" d="M409.4,354c0,2.1,0.2,3.5,0.7,4.2c0.5,0.7,1.1,1,1.8,1c0.7,0,1.3-0.3,1.8-1s0.8-2.1,0.8-4.2
			s-0.3-3.5-0.8-4.2c-0.5-0.7-1.1-1-1.8-1c-0.7,0-1.3,0.3-1.7,0.9C409.7,350.5,409.4,351.9,409.4,354 M407.8,354
			c0-1.5,0.1-2.7,0.5-3.7c0.3-0.9,0.8-1.7,1.4-2.2c0.6-0.5,1.4-0.8,2.3-0.8c0.7,0,1.3,0.1,1.8,0.4c0.5,0.3,0.9,0.7,1.3,1.2
			c0.3,0.5,0.6,1.2,0.8,1.9c0.2,0.8,0.3,1.8,0.3,3c0,1.5-0.2,2.7-0.5,3.7c-0.3,0.9-0.8,1.6-1.4,2.1c-0.6,0.5-1.4,0.7-2.3,0.7
			c-1.3,0-2.2-0.4-2.9-1.3C408.2,358.2,407.8,356.4,407.8,354"/>
		<path class="st12" d="M423.8,360.4h-1.6v-10.1c-0.4,0.4-0.9,0.7-1.5,1.1c-0.6,0.4-1.2,0.6-1.7,0.8v-1.5c0.9-0.4,1.7-0.9,2.3-1.5
			c0.6-0.6,1.1-1.2,1.4-1.7h1V360.4"/>
		<path class="st12" d="M427.8,357l1.7-0.1c0.1,0.8,0.4,1.4,0.8,1.8c0.5,0.4,1,0.6,1.6,0.6c0.8,0,1.4-0.3,1.9-0.9
			c0.5-0.6,0.8-1.3,0.8-2.3c0-0.9-0.3-1.6-0.8-2.1c-0.5-0.5-1.2-0.8-2-0.8c-0.5,0-1,0.1-1.4,0.4c-0.4,0.2-0.7,0.5-1,0.9l-1.5-0.2
			l1.2-6.6h6.4v1.5h-5.1l-0.7,3.5c0.8-0.5,1.6-0.8,2.4-0.8c1.1,0,2.1,0.4,2.8,1.2c0.8,0.8,1.2,1.8,1.2,3c0,1.2-0.3,2.2-1,3
			c-0.8,1-1.9,1.5-3.4,1.5c-1.2,0-2.1-0.3-2.9-1C428.3,358.9,427.9,358.1,427.8,357"/>
	</g>
	<g class="st1">
		<defs>
			<rect id="SVGID_25_" x="57.5" y="7.8" width="446.4" height="332.6"/>
		</defs>
		<clipPath id="SVGID_26_">
			<use xlink:href="#SVGID_25_"  style="overflow:visible;"/>
		</clipPath>
		<line class="st13" x1="491.8" y1="340.5" x2="491.8" y2="7.8"/>
	</g>
	<g class="st1">
		<defs>
			<rect id="SVGID_27_" width="516.5" height="388"/>
		</defs>
		<clipPath id="SVGID_28_">
			<use xlink:href="#SVGID_27_"  style="overflow:visible;"/>
		</clipPath>
		<path class="st14" d="M471.6,354c0,2.1,0.2,3.5,0.7,4.2c0.5,0.7,1.1,1,1.8,1c0.7,0,1.3-0.3,1.8-1s0.8-2.1,0.8-4.2
			s-0.3-3.5-0.8-4.2c-0.5-0.7-1.1-1-1.8-1c-0.7,0-1.3,0.3-1.7,0.9C471.9,350.5,471.6,351.9,471.6,354 M470,354
			c0-1.5,0.1-2.7,0.5-3.7c0.3-0.9,0.8-1.7,1.4-2.2s1.4-0.8,2.3-0.8c0.7,0,1.3,0.1,1.8,0.4c0.5,0.3,0.9,0.7,1.3,1.2
			c0.3,0.5,0.6,1.2,0.8,1.9c0.2,0.8,0.3,1.8,0.3,3c0,1.5-0.2,2.7-0.5,3.7s-0.8,1.6-1.4,2.1s-1.4,0.7-2.3,0.7c-1.3,0-2.2-0.4-2.9-1.3
			C470.4,358.2,470,356.4,470,354"/>
		<rect x="480.9" y="358.6" class="st14" width="1.8" height="1.8"/>
		<path class="st14" d="M486.6,354c0,2.1,0.2,3.5,0.7,4.2c0.5,0.7,1.1,1,1.8,1c0.7,0,1.3-0.3,1.8-1c0.5-0.7,0.8-2.1,0.8-4.2
			s-0.3-3.5-0.8-4.2c-0.5-0.7-1.1-1-1.8-1c-0.7,0-1.3,0.3-1.7,0.9C486.9,350.5,486.6,351.9,486.6,354 M485,354
			c0-1.5,0.1-2.7,0.5-3.7c0.3-0.9,0.8-1.7,1.4-2.2s1.4-0.8,2.3-0.8c0.7,0,1.3,0.1,1.8,0.4c0.5,0.3,0.9,0.7,1.3,1.2
			c0.3,0.5,0.6,1.2,0.8,1.9c0.2,0.8,0.3,1.8,0.3,3c0,1.5-0.2,2.7-0.5,3.7c-0.3,0.9-0.8,1.6-1.4,2.1s-1.4,0.7-2.3,0.7
			c-1.3,0-2.2-0.4-2.9-1.3C485.4,358.2,485,356.4,485,354"/>
		<path class="st14" d="M503.3,358.9v1.5h-8.5c0-0.4,0.1-0.7,0.2-1.1c0.2-0.6,0.6-1.1,1-1.7c0.5-0.6,1.2-1.2,2.1-2
			c1.4-1.1,2.3-2,2.8-2.7c0.5-0.7,0.7-1.3,0.7-1.9c0-0.6-0.2-1.2-0.7-1.6c-0.4-0.4-1-0.6-1.7-0.6c-0.8,0-1.4,0.2-1.8,0.7
			c-0.5,0.5-0.7,1.1-0.7,1.9l-1.6-0.2c0.1-1.2,0.5-2.1,1.2-2.8c0.7-0.6,1.7-1,2.9-1c1.2,0,2.2,0.4,2.9,1c0.7,0.7,1.1,1.5,1.1,2.5
			c0,0.5-0.1,1-0.3,1.5s-0.6,1-1,1.6c-0.5,0.6-1.3,1.3-2.4,2.3c-1,0.8-1.6,1.3-1.8,1.6c-0.3,0.3-0.5,0.6-0.7,0.9H503.3"/>
		<path class="st14" d="M506.6,354c0,2.1,0.2,3.5,0.7,4.2c0.5,0.7,1.1,1,1.8,1c0.7,0,1.3-0.3,1.8-1c0.5-0.7,0.8-2.1,0.8-4.2
			s-0.3-3.5-0.8-4.2c-0.5-0.7-1.1-1-1.8-1c-0.7,0-1.3,0.3-1.7,0.9C506.9,350.5,506.6,351.9,506.6,354 M505,354
			c0-1.5,0.1-2.7,0.5-3.7c0.3-0.9,0.8-1.7,1.4-2.2c0.6-0.5,1.4-0.8,2.3-0.8c0.7,0,1.3,0.1,1.8,0.4c0.5,0.3,0.9,0.7,1.3,1.2
			c0.3,0.5,0.6,1.2,0.8,1.9c0.2,0.8,0.3,1.8,0.3,3c0,1.5-0.2,2.7-0.5,3.7c-0.3,0.9-0.8,1.6-1.4,2.1c-0.6,0.5-1.4,0.7-2.3,0.7
			c-1.3,0-2.2-0.4-2.9-1.3C505.4,358.2,505,356.4,505,354"/>
		<polygon class="st14" points="201.1,381.1 201.1,368.2 210.4,368.2 210.4,369.7 202.8,369.7 202.8,373.6 209.9,373.6 209.9,375.2 
			202.8,375.2 202.8,379.5 210.7,379.5 210.7,381.1 		"/>
		<path class="st14" d="M212.9,381.1v-9.3h1.4v1.3c0.7-1,1.7-1.5,3-1.5c0.6,0,1.1,0.1,1.5,0.3c0.5,0.2,0.8,0.5,1.1,0.8
			c0.2,0.3,0.4,0.7,0.5,1.2c0.1,0.3,0.1,0.8,0.1,1.5v5.7h-1.6v-5.7c0-0.6-0.1-1.1-0.2-1.4c-0.1-0.3-0.3-0.6-0.6-0.8
			c-0.3-0.2-0.7-0.3-1.1-0.3c-0.7,0-1.3,0.2-1.8,0.6c-0.5,0.4-0.7,1.2-0.7,2.4v5.1H212.9"/>
		<path class="st14" d="M224.1,375.5h5.2c-0.1-0.8-0.3-1.4-0.6-1.8c-0.5-0.6-1.2-0.9-2-0.9c-0.7,0-1.3,0.3-1.8,0.7
			C224.4,374,224.1,374.7,224.1,375.5 M229.3,378.1l1.6,0.2c-0.3,1-0.8,1.7-1.4,2.2c-0.7,0.5-1.6,0.8-2.7,0.8
			c-1.4,0-2.5-0.4-3.3-1.2c-0.8-0.8-1.2-2-1.2-3.5c0-1.6,0.4-2.8,1.2-3.7c0.8-0.9,1.9-1.3,3.1-1.3c1.2,0,2.3,0.4,3.1,1.3
			c0.8,0.8,1.2,2,1.2,3.6c0,0.1,0,0.2,0,0.4h-7c0.1,1,0.3,1.8,0.9,2.4c0.5,0.5,1.2,0.8,2,0.8c0.6,0,1.1-0.1,1.5-0.5
			C228.7,379.2,229,378.7,229.3,378.1"/>
		<path class="st14" d="M232.9,381.1v-9.3h1.4v1.4c0.4-0.6,0.7-1.1,1-1.3c0.3-0.2,0.6-0.3,1-0.3c0.5,0,1.1,0.2,1.6,0.5l-0.6,1.5
			c-0.4-0.2-0.8-0.3-1.2-0.3c-0.4,0-0.7,0.1-0.9,0.3c-0.3,0.2-0.5,0.5-0.6,0.9c-0.2,0.6-0.3,1.2-0.3,1.9v4.9H232.9"/>
		<path class="st14" d="M239.9,376.2c0,1.2,0.2,2.1,0.7,2.7c0.5,0.6,1.1,0.8,1.8,0.8c0.7,0,1.3-0.3,1.8-0.8c0.5-0.6,0.7-1.4,0.7-2.6
			c0-1.1-0.3-2-0.8-2.6c-0.5-0.6-1.1-0.9-1.8-0.9c-0.7,0-1.3,0.3-1.8,0.9C240.1,374.3,239.9,375.1,239.9,376.2 M238.6,381.8l1.5,0.2
			c0.1,0.5,0.3,0.8,0.5,1c0.4,0.3,0.9,0.5,1.6,0.5c0.7,0,1.3-0.2,1.7-0.5c0.4-0.3,0.7-0.7,0.8-1.2c0.1-0.3,0.1-1,0.1-2
			c-0.7,0.8-1.6,1.2-2.6,1.2c-1.3,0-2.3-0.5-3-1.4c-0.7-0.9-1-2-1-3.3c0-0.9,0.2-1.7,0.5-2.5c0.3-0.8,0.8-1.3,1.4-1.7
			c0.6-0.4,1.3-0.6,2.2-0.6c1.1,0,2,0.4,2.7,1.3v-1.1h1.5v8.1c0,1.4-0.2,2.4-0.4,3.1c-0.3,0.6-0.8,1.1-1.4,1.4
			c-0.6,0.3-1.4,0.5-2.4,0.5c-1.1,0-2-0.3-2.7-0.8C238.9,383.6,238.6,382.8,238.6,381.8"/>
		<path class="st14" d="M248.8,384.6l-0.2-1.5c0.3,0.1,0.6,0.1,0.9,0.1c0.3,0,0.6-0.1,0.8-0.2c0.2-0.1,0.4-0.3,0.5-0.5
			c0.1-0.2,0.3-0.6,0.5-1.2c0-0.1,0.1-0.2,0.1-0.4l-3.5-9.3h1.7l1.9,5.4c0.3,0.7,0.5,1.4,0.7,2.2c0.2-0.7,0.4-1.4,0.6-2.1l2-5.5h1.6
			l-3.5,9.5c-0.4,1-0.7,1.7-0.9,2.1c-0.3,0.5-0.6,0.9-1,1.2c-0.4,0.2-0.8,0.4-1.3,0.4C249.5,384.8,249.2,384.7,248.8,384.6"/>
		<path class="st14" d="M265.9,384.8c-0.9-1.1-1.6-2.4-2.2-3.8c-0.6-1.5-0.9-3-0.9-4.6c0-1.4,0.2-2.7,0.7-4c0.5-1.5,1.3-3,2.4-4.4
			h1.1c-0.7,1.2-1.2,2.1-1.4,2.6c-0.4,0.8-0.6,1.7-0.8,2.5c-0.3,1.1-0.4,2.2-0.4,3.3c0,2.8,0.9,5.6,2.6,8.4H265.9"/>
		<path class="st14" d="M268.9,381.1v-9.3h1.4v1.3c0.7-1,1.7-1.5,3-1.5c0.6,0,1.1,0.1,1.5,0.3c0.5,0.2,0.8,0.5,1.1,0.8
			c0.2,0.3,0.4,0.7,0.5,1.2c0.1,0.3,0.1,0.8,0.1,1.5v5.7h-1.6v-5.7c0-0.6-0.1-1.1-0.2-1.4c-0.1-0.3-0.3-0.6-0.6-0.8
			c-0.3-0.2-0.7-0.3-1.1-0.3c-0.7,0-1.3,0.2-1.8,0.6c-0.5,0.4-0.7,1.2-0.7,2.4v5.1H268.9"/>
		<path class="st14" d="M279.9,376.4c0,1.2,0.3,2.1,0.8,2.7c0.5,0.6,1.2,0.9,2,0.9c0.8,0,1.4-0.3,2-0.9c0.5-0.6,0.8-1.5,0.8-2.7
			c0-1.2-0.3-2-0.8-2.6c-0.5-0.6-1.2-0.9-2-0.9c-0.8,0-1.5,0.3-2,0.9C280.2,374.3,279.9,375.2,279.9,376.4 M278.3,376.4
			c0-1.7,0.5-3,1.4-3.9c0.8-0.7,1.8-1,2.9-1c1.3,0,2.3,0.4,3.1,1.3c0.8,0.8,1.2,2,1.2,3.5c0,1.2-0.2,2.2-0.5,2.8
			c-0.4,0.7-0.9,1.2-1.6,1.6c-0.7,0.4-1.4,0.6-2.3,0.6c-1.3,0-2.4-0.4-3.2-1.2C278.7,379.2,278.3,378,278.3,376.4"/>
		<path class="st14" d="M288.9,381.1v-9.3h1.4v1.4c0.4-0.6,0.7-1.1,1-1.3c0.3-0.2,0.6-0.3,1-0.3c0.5,0,1.1,0.2,1.6,0.5l-0.6,1.5
			c-0.4-0.2-0.8-0.3-1.2-0.3c-0.4,0-0.7,0.1-0.9,0.3c-0.3,0.2-0.5,0.5-0.6,0.9c-0.2,0.6-0.3,1.2-0.3,1.9v4.9H288.9"/>
		<path class="st14" d="M294.9,381.1v-9.3h1.4v1.3c0.3-0.5,0.7-0.8,1.2-1.1c0.5-0.3,1-0.4,1.7-0.4c0.7,0,1.2,0.1,1.7,0.4
			c0.4,0.3,0.8,0.7,0.9,1.2c0.7-1.1,1.7-1.6,2.9-1.6c0.9,0,1.6,0.3,2.1,0.8c0.5,0.5,0.8,1.3,0.8,2.4v6.4H306v-5.9
			c0-0.6-0.1-1.1-0.2-1.3s-0.3-0.5-0.6-0.7c-0.3-0.2-0.6-0.3-0.9-0.3c-0.7,0-1.2,0.2-1.6,0.7c-0.4,0.4-0.6,1.1-0.6,2.1v5.4h-1.6V375
			c0-0.7-0.1-1.2-0.4-1.6c-0.3-0.3-0.7-0.5-1.3-0.5c-0.4,0-0.9,0.1-1.2,0.4c-0.4,0.2-0.6,0.6-0.8,1c-0.2,0.4-0.3,1.1-0.3,1.9v4.8
			H294.9"/>
		<path class="st14" d="M315.8,376.4c-0.6,0.2-1.4,0.4-2.6,0.6c-0.6,0.1-1.1,0.2-1.4,0.3c-0.3,0.1-0.5,0.3-0.6,0.5
			c-0.1,0.2-0.2,0.5-0.2,0.8c0,0.4,0.1,0.8,0.5,1.1c0.3,0.3,0.8,0.4,1.4,0.4c0.6,0,1.2-0.1,1.6-0.4c0.5-0.3,0.8-0.6,1.1-1.1
			c0.2-0.4,0.3-0.9,0.3-1.6V376.4 M316,379.9c-0.6,0.5-1.2,0.9-1.7,1.1c-0.5,0.2-1.1,0.3-1.7,0.3c-1,0-1.8-0.2-2.4-0.7
			c-0.6-0.5-0.8-1.1-0.8-1.9c0-0.4,0.1-0.9,0.3-1.2c0.2-0.4,0.5-0.7,0.8-0.9c0.3-0.2,0.7-0.4,1.1-0.5c0.3-0.1,0.8-0.1,1.4-0.2
			c1.3-0.1,2.2-0.3,2.8-0.5v-0.4c0-0.6-0.1-1.1-0.4-1.4c-0.4-0.4-1-0.5-1.8-0.5c-0.8,0-1.3,0.1-1.7,0.4c-0.4,0.3-0.6,0.7-0.8,1.4
			l-1.5-0.2c0.1-0.6,0.4-1.2,0.7-1.6c0.3-0.4,0.8-0.7,1.4-0.9c0.6-0.2,1.3-0.3,2.1-0.3c0.8,0,1.4,0.1,1.9,0.3
			c0.5,0.2,0.9,0.4,1.1,0.7c0.2,0.3,0.4,0.6,0.5,1.1c0.1,0.3,0.1,0.8,0.1,1.5v2.1c0,1.5,0,2.4,0.1,2.8c0.1,0.4,0.2,0.8,0.4,1.1h-1.7
			C316.1,380.7,316,380.4,316,379.9"/>
		<rect x="319.9" y="368.2" class="st14" width="1.6" height="12.9"/>
		<path class="st14" d="M323.9,371.7h1.6v9.3h-1.6V371.7z M323.9,368.2h1.6v1.8h-1.6V368.2z"/>
		<path class="st14" d="M327.1,381.1v-1.3l5.9-6.8c-0.7,0-1.3,0.1-1.8,0.1h-3.8v-1.3h7.6v1.1l-5.1,5.9l-1,1.1c0.7-0.1,1.4-0.1,2-0.1
			h4.3v1.4H327.1"/>
		<path class="st14" d="M338.1,375.5h5.2c-0.1-0.8-0.3-1.4-0.6-1.8c-0.5-0.6-1.2-0.9-2-0.9c-0.7,0-1.3,0.3-1.8,0.7
			C338.4,374,338.1,374.7,338.1,375.5 M343.3,378.1l1.6,0.2c-0.3,1-0.8,1.7-1.4,2.2c-0.7,0.5-1.6,0.8-2.7,0.8
			c-1.4,0-2.5-0.4-3.3-1.2c-0.8-0.8-1.2-2-1.2-3.5c0-1.6,0.4-2.8,1.2-3.7c0.8-0.9,1.9-1.3,3.1-1.3c1.2,0,2.3,0.4,3.1,1.3
			c0.8,0.8,1.2,2,1.2,3.6c0,0.1,0,0.2,0,0.4h-7c0.1,1,0.3,1.8,0.9,2.4c0.5,0.5,1.2,0.8,2,0.8c0.6,0,1.1-0.1,1.5-0.5
			C342.7,379.2,343,378.7,343.3,378.1"/>
		<path class="st14" d="M348,376.4c0,1.2,0.2,2.1,0.7,2.7c0.5,0.6,1.1,0.9,1.8,0.9c0.7,0,1.3-0.3,1.7-0.8c0.5-0.6,0.7-1.4,0.7-2.6
			c0-1.3-0.3-2.2-0.7-2.8c-0.5-0.6-1.1-0.9-1.8-0.9c-0.7,0-1.3,0.3-1.8,0.9C348.2,374.3,348,375.2,348,376.4 M352.9,381.1v-1.2
			c-0.6,0.9-1.5,1.4-2.6,1.4c-0.8,0-1.4-0.2-2.1-0.6c-0.6-0.4-1.1-1-1.5-1.7c-0.3-0.7-0.5-1.6-0.5-2.5c0-0.9,0.1-1.8,0.5-2.5
			c0.3-0.8,0.8-1.3,1.4-1.7c0.6-0.4,1.3-0.6,2.1-0.6c0.6,0,1.1,0.1,1.5,0.4c0.4,0.2,0.8,0.5,1.1,0.9v-4.6h1.6v12.9H352.9"/>
		<path class="st14" d="M357.9,384.8h-1.1c1.7-2.8,2.6-5.6,2.6-8.4c0-1.1-0.1-2.2-0.4-3.3c-0.2-0.9-0.5-1.7-0.8-2.5
			c-0.2-0.5-0.7-1.4-1.4-2.6h1.1c1.1,1.5,1.9,3,2.4,4.4c0.4,1.3,0.7,2.6,0.7,4c0,1.6-0.3,3.1-0.9,4.6
			C359.5,382.4,358.8,383.7,357.9,384.8"/>
	</g>
	<g class="st1">
		<defs>
			<rect id="SVGID_29_" x="57.5" y="7.8" width="446.4" height="332.6"/>
		</defs>
		<clipPath id="SVGID_30_">
			<use xlink:href="#SVGID_29_"  style="overflow:visible;"/>
		</clipPath>
		<line class="st15" x1="57.5" y1="340.5" x2="503.9" y2="340.5"/>
	</g>
	<g class="st1">
		<defs>
			<rect id="SVGID_31_" width="516.5" height="388"/>
		</defs>
		<clipPath id="SVGID_32_">
			<use xlink:href="#SVGID_31_"  style="overflow:visible;"/>
		</clipPath>
		<path class="st16" d="M42.9,340.6c0,2.1,0.2,3.5,0.7,4.2c0.5,0.7,1.1,1,1.8,1c0.7,0,1.3-0.3,1.8-1c0.5-0.7,0.8-2.1,0.8-4.2
			c0-2.1-0.3-3.5-0.8-4.2c-0.5-0.7-1.1-1-1.8-1c-0.7,0-1.3,0.3-1.7,0.9C43.2,337,42.9,338.5,42.9,340.6 M41.3,340.6
			c0-1.5,0.1-2.7,0.5-3.7c0.3-0.9,0.8-1.7,1.4-2.2c0.6-0.5,1.4-0.8,2.3-0.8c0.7,0,1.3,0.1,1.8,0.4c0.5,0.3,0.9,0.7,1.3,1.2
			c0.3,0.5,0.6,1.2,0.8,1.9c0.2,0.8,0.3,1.8,0.3,3c0,1.5-0.2,2.7-0.5,3.7c-0.3,0.9-0.8,1.6-1.4,2.1c-0.6,0.5-1.4,0.7-2.3,0.7
			c-1.3,0-2.2-0.4-2.9-1.3C41.7,344.7,41.3,343,41.3,340.6"/>
	</g>
	<g class="st1">
		<defs>
			<rect id="SVGID_33_" x="57.5" y="7.8" width="446.4" height="332.6"/>
		</defs>
		<clipPath id="SVGID_34_">
			<use xlink:href="#SVGID_33_"  style="overflow:visible;"/>
		</clipPath>
		<line class="st17" x1="57.5" y1="271.4" x2="503.9" y2="271.4"/>
	</g>
	<g class="st1">
		<defs>
			<rect id="SVGID_35_" width="516.5" height="388"/>
		</defs>
		<clipPath id="SVGID_36_">
			<use xlink:href="#SVGID_35_"  style="overflow:visible;"/>
		</clipPath>
		<path class="st18" d="M31.3,274.5l1.7-0.1c0.1,0.8,0.4,1.4,0.8,1.8c0.5,0.4,1,0.6,1.6,0.6c0.8,0,1.4-0.3,1.9-0.9
			c0.5-0.6,0.8-1.3,0.8-2.3c0-0.9-0.3-1.6-0.8-2.1c-0.5-0.5-1.2-0.8-2-0.8c-0.5,0-1,0.1-1.4,0.4c-0.4,0.2-0.7,0.5-1,0.9l-1.5-0.2
			l1.2-6.6h6.4v1.5h-5.1l-0.7,3.5c0.8-0.5,1.6-0.8,2.4-0.8c1.1,0,2.1,0.4,2.8,1.2c0.8,0.8,1.2,1.8,1.2,3c0,1.2-0.3,2.2-1,3
			c-0.8,1-1.9,1.5-3.4,1.5c-1.2,0-2.1-0.3-2.9-1C31.8,276.4,31.4,275.6,31.3,274.5"/>
		<path class="st18" d="M42.9,271.5c0,2.1,0.2,3.5,0.7,4.2c0.5,0.7,1.1,1,1.8,1c0.7,0,1.3-0.3,1.8-1c0.5-0.7,0.8-2.1,0.8-4.2
			c0-2.1-0.3-3.5-0.8-4.2c-0.5-0.7-1.1-1-1.8-1c-0.7,0-1.3,0.3-1.7,0.9C43.2,267.9,42.9,269.4,42.9,271.5 M41.3,271.5
			c0-1.5,0.1-2.7,0.5-3.7c0.3-0.9,0.8-1.7,1.4-2.2c0.6-0.5,1.4-0.8,2.3-0.8c0.7,0,1.3,0.1,1.8,0.4c0.5,0.3,0.9,0.7,1.3,1.2
			c0.3,0.5,0.6,1.2,0.8,1.9c0.2,0.8,0.3,1.8,0.3,3c0,1.5-0.2,2.7-0.5,3.7c-0.3,0.9-0.8,1.6-1.4,2.1c-0.6,0.5-1.4,0.7-2.3,0.7
			c-1.3,0-2.2-0.4-2.9-1.3C41.7,275.7,41.3,273.9,41.3,271.5"/>
	</g>
	<g class="st1">
		<defs>
			<rect id="SVGID_37_" x="57.5" y="7.8" width="446.4" height="332.6"/>
		</defs>
		<clipPath id="SVGID_38_">
			<use xlink:href="#SVGID_37_"  style="overflow:visible;"/>
		</clipPath>
		<line class="st19" x1="57.5" y1="202.3" x2="503.9" y2="202.3"/>
	</g>
	<g class="st1">
		<defs>
			<rect id="SVGID_39_" width="516.5" height="388"/>
		</defs>
		<clipPath id="SVGID_40_">
			<use xlink:href="#SVGID_39_"  style="overflow:visible;"/>
		</clipPath>
		<path class="st20" d="M27.2,208.8h-1.6v-10.1c-0.4,0.4-0.9,0.7-1.5,1.1c-0.6,0.4-1.2,0.6-1.7,0.8v-1.5c0.9-0.4,1.7-0.9,2.3-1.5
			c0.6-0.6,1.1-1.2,1.4-1.7h1V208.8"/>
		<path class="st20" d="M32.9,202.4c0,2.1,0.2,3.5,0.7,4.2c0.5,0.7,1.1,1,1.8,1c0.7,0,1.3-0.3,1.8-1c0.5-0.7,0.8-2.1,0.8-4.2
			c0-2.1-0.3-3.5-0.8-4.2c-0.5-0.7-1.1-1-1.8-1c-0.7,0-1.3,0.3-1.7,0.9C33.1,198.8,32.9,200.3,32.9,202.4 M31.3,202.4
			c0-1.5,0.1-2.7,0.5-3.7c0.3-0.9,0.8-1.7,1.4-2.2c0.6-0.5,1.4-0.8,2.3-0.8c0.7,0,1.3,0.1,1.8,0.4c0.5,0.3,0.9,0.7,1.3,1.2
			s0.6,1.2,0.8,1.9c0.2,0.8,0.3,1.8,0.3,3c0,1.5-0.2,2.7-0.5,3.7c-0.3,0.9-0.8,1.6-1.4,2.1c-0.6,0.5-1.4,0.7-2.3,0.7
			c-1.3,0-2.2-0.4-2.9-1.3C31.7,206.6,31.3,204.8,31.3,202.4"/>
		<path class="st20" d="M42.9,202.4c0,2.1,0.2,3.5,0.7,4.2c0.5,0.7,1.1,1,1.8,1c0.7,0,1.3-0.3,1.8-1c0.5-0.7,0.8-2.1,0.8-4.2
			c0-2.1-0.3-3.5-0.8-4.2c-0.5-0.7-1.1-1-1.8-1c-0.7,0-1.3,0.3-1.7,0.9C43.2,198.8,42.9,200.3,42.9,202.4 M41.3,202.4
			c0-1.5,0.1-2.7,0.5-3.7c0.3-0.9,0.8-1.7,1.4-2.2c0.6-0.5,1.4-0.8,2.3-0.8c0.7,0,1.3,0.1,1.8,0.4c0.5,0.3,0.9,0.7,1.3,1.2
			c0.3,0.5,0.6,1.2,0.8,1.9c0.2,0.8,0.3,1.8,0.3,3c0,1.5-0.2,2.7-0.5,3.7c-0.3,0.9-0.8,1.6-1.4,2.1c-0.6,0.5-1.4,0.7-2.3,0.7
			c-1.3,0-2.2-0.4-2.9-1.3C41.7,206.6,41.3,204.8,41.3,202.4"/>
	</g>
	<g class="st1">
		<defs>
			<rect id="SVGID_41_" x="57.5" y="7.8" width="446.4" height="332.6"/>
		</defs>
		<clipPath id="SVGID_42_">
			<use xlink:href="#SVGID_41_"  style="overflow:visible;"/>
		</clipPath>
		<line class="st21" x1="57.5" y1="133.2" x2="503.9" y2="133.2"/>
	</g>
	<g class="st1">
		<defs>
			<rect id="SVGID_43_" width="516.5" height="388"/>
		</defs>
		<clipPath id="SVGID_44_">
			<use xlink:href="#SVGID_43_"  style="overflow:visible;"/>
		</clipPath>
		<path class="st22" d="M27.2,139.7h-1.6v-10.1c-0.4,0.4-0.9,0.7-1.5,1.1c-0.6,0.4-1.2,0.6-1.7,0.8V130c0.9-0.4,1.7-0.9,2.3-1.5
			c0.6-0.6,1.1-1.2,1.4-1.7h1V139.7"/>
		<path class="st22" d="M31.3,136.3l1.7-0.1c0.1,0.8,0.4,1.4,0.8,1.8c0.5,0.4,1,0.6,1.6,0.6c0.8,0,1.4-0.3,1.9-0.9
			c0.5-0.6,0.8-1.3,0.8-2.3c0-0.9-0.3-1.6-0.8-2.1c-0.5-0.5-1.2-0.8-2-0.8c-0.5,0-1,0.1-1.4,0.4c-0.4,0.2-0.7,0.5-1,0.9l-1.5-0.2
			l1.2-6.6h6.4v1.5H34l-0.7,3.5c0.8-0.5,1.6-0.8,2.4-0.8c1.1,0,2.1,0.4,2.8,1.2c0.8,0.8,1.2,1.8,1.2,3c0,1.2-0.3,2.2-1,3
			c-0.8,1-1.9,1.5-3.4,1.5c-1.2,0-2.1-0.3-2.9-1C31.8,138.2,31.3,137.4,31.3,136.3"/>
		<path class="st22" d="M42.9,133.3c0,2.1,0.2,3.5,0.7,4.2c0.5,0.7,1.1,1,1.8,1c0.7,0,1.3-0.3,1.8-1c0.5-0.7,0.8-2.1,0.8-4.2
			c0-2.1-0.3-3.5-0.8-4.2c-0.5-0.7-1.1-1-1.8-1c-0.7,0-1.3,0.3-1.7,0.9C43.2,129.7,42.9,131.2,42.9,133.3 M41.3,133.3
			c0-1.5,0.1-2.7,0.5-3.7c0.3-0.9,0.8-1.7,1.4-2.2c0.6-0.5,1.4-0.8,2.3-0.8c0.7,0,1.3,0.1,1.8,0.4c0.5,0.3,0.9,0.7,1.3,1.2
			c0.3,0.5,0.6,1.2,0.8,1.9c0.2,0.8,0.3,1.8,0.3,3c0,1.5-0.2,2.7-0.5,3.7c-0.3,0.9-0.8,1.6-1.4,2.1c-0.6,0.5-1.4,0.7-2.3,0.7
			c-1.3,0-2.2-0.4-2.9-1.3C41.7,137.5,41.3,135.7,41.3,133.3"/>
	</g>
	<g class="st1">
		<defs>
			<rect id="SVGID_45_" x="57.5" y="7.8" width="446.4" height="332.6"/>
		</defs>
		<clipPath id="SVGID_46_">
			<use xlink:href="#SVGID_45_"  style="overflow:visible;"/>
		</clipPath>
		<line class="st23" x1="57.5" y1="64.1" x2="503.9" y2="64.1"/>
	</g>
	<g class="st1">
		<defs>
			<rect id="SVGID_47_" width="516.5" height="388"/>
		</defs>
		<clipPath id="SVGID_48_">
			<use xlink:href="#SVGID_47_"  style="overflow:visible;"/>
		</clipPath>
		<path class="st24" d="M29.5,69.1v1.5H21c0-0.4,0.1-0.7,0.2-1.1c0.2-0.6,0.6-1.1,1-1.7c0.5-0.6,1.2-1.2,2.1-2
			c1.4-1.1,2.3-2,2.8-2.7c0.5-0.7,0.7-1.3,0.7-1.9s-0.2-1.2-0.7-1.6c-0.5-0.4-1-0.6-1.7-0.6c-0.8,0-1.4,0.2-1.8,0.7
			c-0.5,0.5-0.7,1.1-0.7,1.9l-1.6-0.2c0.1-1.2,0.5-2.1,1.2-2.8c0.7-0.6,1.7-1,2.9-1c1.2,0,2.2,0.4,2.9,1c0.7,0.7,1.1,1.5,1.1,2.5
			c0,0.5-0.1,1-0.3,1.5s-0.6,1-1,1.6c-0.5,0.6-1.3,1.3-2.4,2.3c-1,0.8-1.6,1.3-1.8,1.6s-0.5,0.6-0.7,0.9H29.5"/>
		<path class="st24" d="M32.9,64.2c0,2.1,0.2,3.5,0.7,4.2c0.5,0.7,1.1,1,1.8,1c0.7,0,1.3-0.3,1.8-1c0.5-0.7,0.8-2.1,0.8-4.2
			c0-2.1-0.3-3.5-0.8-4.2c-0.5-0.7-1.1-1-1.8-1c-0.7,0-1.3,0.3-1.7,0.9C33.1,60.7,32.9,62.1,32.9,64.2 M31.3,64.2
			c0-1.5,0.1-2.7,0.5-3.7c0.3-0.9,0.8-1.7,1.4-2.2c0.6-0.5,1.4-0.8,2.3-0.8c0.7,0,1.3,0.1,1.8,0.4c0.5,0.3,0.9,0.7,1.3,1.2
			s0.6,1.2,0.8,1.9c0.2,0.8,0.3,1.8,0.3,3c0,1.5-0.2,2.7-0.5,3.7c-0.3,0.9-0.8,1.6-1.4,2.1s-1.4,0.7-2.3,0.7c-1.3,0-2.2-0.4-2.9-1.3
			C31.7,68.4,31.3,66.7,31.3,64.2"/>
		<path class="st24" d="M42.9,64.2c0,2.1,0.2,3.5,0.7,4.2c0.5,0.7,1.1,1,1.8,1c0.7,0,1.3-0.3,1.8-1c0.5-0.7,0.8-2.1,0.8-4.2
			c0-2.1-0.3-3.5-0.8-4.2c-0.5-0.7-1.1-1-1.8-1c-0.7,0-1.3,0.3-1.7,0.9C43.2,60.7,42.9,62.1,42.9,64.2 M41.3,64.2
			c0-1.5,0.1-2.7,0.5-3.7c0.3-0.9,0.8-1.7,1.4-2.2c0.6-0.5,1.4-0.8,2.3-0.8c0.7,0,1.3,0.1,1.8,0.4c0.5,0.3,0.9,0.7,1.3,1.2
			c0.3,0.5,0.6,1.2,0.8,1.9c0.2,0.8,0.3,1.8,0.3,3c0,1.5-0.2,2.7-0.5,3.7c-0.3,0.9-0.8,1.6-1.4,2.1c-0.6,0.5-1.4,0.7-2.3,0.7
			c-1.3,0-2.2-0.4-2.9-1.3C41.7,68.4,41.3,66.7,41.3,64.2"/>
		<path class="st24" d="M11.2,201.1v-2.8c0-0.8-0.1-1.5-0.2-2c-0.2-0.5-0.4-0.9-0.7-1.2c-0.4-0.4-0.9-0.7-1.6-0.9
			c-0.7-0.2-1.5-0.3-2.5-0.3c-1.3,0-2.4,0.2-3.1,0.7c-0.7,0.4-1.2,1-1.5,1.6c-0.2,0.5-0.3,1.2-0.3,2.2v2.7H11.2 M12.7,202.8H-0.2
			v-4.4c0-1,0.1-1.7,0.2-2.3c0.2-0.7,0.5-1.4,0.9-1.9c0.6-0.7,1.3-1.2,2.2-1.5c0.9-0.3,1.9-0.5,3.1-0.5c1,0,1.9,0.1,2.6,0.3
			c0.8,0.2,1.4,0.5,1.9,0.9c0.5,0.4,0.9,0.8,1.2,1.2c0.3,0.4,0.5,0.9,0.6,1.5c0.1,0.6,0.2,1.3,0.2,2.1V202.8"/>
		<path class="st24" d="M7.1,188.8v-5.2c-0.8,0.1-1.4,0.3-1.8,0.6c-0.6,0.5-0.9,1.2-0.9,2c0,0.7,0.3,1.3,0.7,1.8
			C5.7,188.5,6.3,188.7,7.1,188.8 M9.7,183.6l0.2-1.6c1,0.3,1.7,0.8,2.2,1.4c0.5,0.7,0.8,1.6,0.8,2.7c0,1.4-0.4,2.5-1.2,3.3
			c-0.8,0.8-2,1.2-3.5,1.2c-1.6,0-2.8-0.4-3.7-1.2c-0.9-0.8-1.3-1.9-1.3-3.1c0-1.2,0.4-2.3,1.3-3.1c0.8-0.8,2-1.2,3.6-1.2
			c0.1,0,0.2,0,0.4,0v7c1-0.1,1.8-0.3,2.4-0.9s0.8-1.2,0.8-2c0-0.6-0.1-1.1-0.5-1.5C10.9,184.2,10.4,183.9,9.7,183.6"/>
		<path class="st24" d="M12.7,180H3.4v-1.4h1.3c-1-0.7-1.5-1.7-1.5-3c0-0.6,0.1-1.1,0.3-1.5c0.2-0.5,0.5-0.8,0.8-1.1
			c0.3-0.2,0.7-0.4,1.2-0.5c0.3-0.1,0.8-0.1,1.5-0.1h5.7v1.6H7c-0.6,0-1.1,0.1-1.4,0.2c-0.3,0.1-0.6,0.3-0.8,0.6
			c-0.2,0.3-0.3,0.7-0.3,1.1c0,0.7,0.2,1.3,0.6,1.8c0.4,0.5,1.2,0.7,2.4,0.7h5.1V180"/>
		<path class="st24" d="M9.9,170.6L9.7,169c0.6-0.1,1.1-0.3,1.4-0.7c0.3-0.4,0.5-1,0.5-1.7s-0.1-1.3-0.4-1.6c-0.3-0.3-0.6-0.5-1-0.5
			c-0.4,0-0.6,0.2-0.8,0.5c-0.1,0.2-0.3,0.8-0.5,1.6c-0.3,1.2-0.5,2-0.8,2.4s-0.5,0.8-0.9,1c-0.4,0.2-0.8,0.3-1.3,0.3
			c-0.4,0-0.8-0.1-1.2-0.3c-0.4-0.2-0.6-0.4-0.9-0.8c-0.2-0.3-0.3-0.6-0.4-1c-0.1-0.4-0.2-0.9-0.2-1.4c0-0.7,0.1-1.4,0.3-1.9
			s0.5-1,0.8-1.2c0.4-0.3,0.8-0.4,1.4-0.5l0.2,1.5c-0.5,0.1-0.8,0.3-1.1,0.6c-0.3,0.3-0.4,0.8-0.4,1.4c0,0.7,0.1,1.3,0.4,1.6
			c0.3,0.3,0.5,0.5,0.8,0.5c0.2,0,0.4-0.1,0.6-0.2c0.2-0.1,0.3-0.3,0.4-0.6c0.1-0.1,0.2-0.6,0.4-1.4c0.3-1.1,0.5-1.9,0.7-2.3
			c0.2-0.4,0.5-0.8,0.8-1c0.4-0.3,0.8-0.4,1.4-0.4s1,0.2,1.5,0.5c0.5,0.3,0.8,0.8,1.1,1.3c0.3,0.6,0.4,1.2,0.4,2
			c0,1.2-0.2,2.1-0.7,2.8C11.7,170,10.9,170.4,9.9,170.6"/>
		<path class="st24" d="M12.7,161H3.4v-1.6h9.3V161z M1.6,161h-1.8v-1.6h1.8V161z"/>
		<path class="st24" d="M11.3,153.5l1.4-0.2c0.1,0.5,0.1,0.9,0.1,1.2c0,0.6-0.1,1-0.3,1.3c-0.2,0.3-0.4,0.5-0.7,0.7
			c-0.3,0.1-0.9,0.2-1.9,0.2H4.6v1.2H3.4v-1.2H1.1l-1-1.6h3.3v-1.6h1.2v1.6h5.5c0.5,0,0.8,0,0.9-0.1c0.1-0.1,0.2-0.1,0.3-0.3
			c0.1-0.1,0.1-0.3,0.1-0.5C11.4,154,11.3,153.8,11.3,153.5"/>
		<path class="st24" d="M16.3,152l-1.5,0.2c0.1-0.3,0.1-0.6,0.1-0.9c0-0.3-0.1-0.6-0.2-0.8c-0.1-0.2-0.3-0.4-0.5-0.5
			c-0.2-0.1-0.6-0.3-1.2-0.5c-0.1,0-0.2-0.1-0.4-0.1l-9.3,3.5v-1.7l5.4-1.9c0.7-0.3,1.4-0.5,2.2-0.7c-0.7-0.2-1.4-0.4-2.1-0.6
			l-5.5-2v-1.6l9.5,3.5c1,0.4,1.7,0.7,2.1,0.9c0.5,0.3,0.9,0.6,1.2,1c0.2,0.4,0.4,0.8,0.4,1.3C16.5,151.3,16.4,151.7,16.3,152"/>
	</g>
	<g class="st1">
		<defs>
			<rect id="SVGID_49_" x="57.5" y="7.8" width="446.4" height="332.6"/>
		</defs>
		<clipPath id="SVGID_50_">
			<use xlink:href="#SVGID_49_"  style="overflow:visible;"/>
		</clipPath>
		<g class="st25">
			<g>
				<defs>
					<rect id="SVGID_51_" x="77.3" y="23.2" width="250.5" height="317.8"/>
				</defs>
				<clipPath id="SVGID_52_">
					<use xlink:href="#SVGID_51_"  style="overflow:visible;"/>
				</clipPath>
				<g class="st26">
					<g>
						<defs>
							<rect id="SVGID_53_" x="77.8" y="23.7" width="249.5" height="316.8"/>
						</defs>
						<clipPath id="SVGID_54_">
							<use xlink:href="#SVGID_53_"  style="overflow:visible;"/>
						</clipPath>
						<polygon class="st27" points="77.8,340.4 77.8,340.5 79.8,340.5 81.8,340.5 83.7,340.5 85.7,340.5 87.6,340.5 89.6,340.5 
							91.6,340.5 93.5,340.5 95.5,340.5 97.5,340.5 99.4,340.5 101.4,340.5 103.4,340.5 105.3,340.5 107.3,340.5 109.3,340.5 
							111.2,340.5 113.2,340.5 115.1,340.5 117.1,340.5 119.1,340.5 121,340.5 123,340.5 125,340.5 126.9,340.5 128.9,340.5 
							130.9,340.5 132.8,340.5 134.8,340.5 136.8,340.5 138.7,340.5 140.7,340.5 142.6,340.5 144.6,340.5 146.6,340.5 148.5,340.5 
							150.5,340.5 152.5,340.5 154.4,340.5 156.4,340.5 158.4,340.5 160.3,340.5 162.3,340.5 164.3,340.5 166.2,340.5 168.2,340.5 
							170.1,340.5 172.1,340.5 174.1,340.5 176,340.5 178,340.5 180,340.5 181.9,340.5 183.9,340.5 185.9,340.5 187.8,340.5 
							189.8,340.5 191.7,340.5 193.7,340.5 195.7,340.5 197.6,340.5 199.6,340.5 201.6,340.5 203.5,340.5 205.5,340.5 207.5,340.5 
							209.4,340.5 211.4,340.5 213.4,340.5 215.3,340.5 217.3,340.5 219.2,340.5 221.2,340.5 223.2,340.5 225.1,340.5 227.1,340.5 
							229.1,340.5 231,340.5 233,340.5 235,340.5 236.9,340.5 238.9,340.5 240.9,340.5 242.8,340.5 244.8,340.5 246.7,340.5 
							248.7,340.5 250.7,340.5 252.6,340.5 254.6,340.5 256.6,340.5 258.5,340.5 260.5,340.5 262.5,340.5 264.4,340.5 266.4,340.5 
							268.4,340.5 270.3,340.5 272.3,340.5 274.2,340.5 276.2,340.5 278.2,340.5 280.1,340.5 282.1,340.5 284.1,340.5 286,340.5 
							288,340.5 290,340.5 291.9,340.5 293.9,340.5 295.9,340.5 297.8,340.5 299.8,340.5 301.7,340.5 303.7,340.5 305.7,340.5 
							307.6,340.5 309.6,340.5 311.6,340.5 313.5,340.5 315.5,340.5 317.5,340.5 319.4,340.5 321.4,340.5 323.3,340.5 325.3,340.5 
							327.3,340.5 327.3,340.4 325.3,340.4 323.3,340.3 321.4,340.2 319.4,340.1 317.5,339.9 315.5,339.6 313.5,339.2 311.6,338.8 
							309.6,338.3 307.6,337.8 305.7,337.3 303.7,336.8 301.7,336.4 299.8,336.1 297.8,336 295.9,336.1 293.9,336.3 291.9,336.6 
							290,337.1 288,337.6 286,338.1 284.1,338.6 282.1,338.9 280.1,339.2 278.2,339.3 276.2,339.2 274.2,338.8 272.3,338.3 
							270.3,337.4 268.4,336.2 266.4,334.6 264.4,332.7 262.5,330.5 260.5,328.1 258.5,325.4 256.6,322.7 254.6,320 252.6,317.3 
							250.7,314.6 248.7,312 246.7,309.4 244.8,306.7 242.8,303.9 240.9,300.9 238.9,297.6 236.9,294.1 235,290.1 233,285.8 
							231,281 229.1,275.7 227.1,269.6 225.1,262.8 223.2,255 221.2,246.4 219.2,236.8 217.3,226.5 215.3,215.6 213.4,204.4 
							211.4,193.2 209.4,182.2 207.5,171.6 205.5,161.2 203.5,151.1 201.6,141 199.6,130.6 197.6,119.7 195.7,108.2 193.7,96.1 
							191.7,83.7 189.8,71.4 187.8,59.6 185.9,48.8 183.9,39.6 181.9,32.3 180,27.1 178,24.3 176,23.7 174.1,25.2 172.1,28.7 
							170.1,34 168.2,40.7 166.2,48.6 164.3,57.8 162.3,68 160.3,79.2 158.4,91.6 156.4,105 154.4,119.4 152.5,134.7 150.5,150.8 
							148.5,167.3 146.6,184 144.6,200.4 142.6,216.4 140.7,231.5 138.7,245.6 136.8,258.5 134.8,270.1 132.8,280.6 130.9,289.8 
							128.9,298 126.9,305.1 125,311.3 123,316.5 121,320.9 119.1,324.5 117.1,327.4 115.1,329.6 113.2,331.3 111.2,332.6 
							109.3,333.6 107.3,334.4 105.3,335.1 103.4,335.8 101.4,336.4 99.4,337.1 97.5,337.7 95.5,338.3 93.5,338.8 91.6,339.2 
							89.6,339.6 87.6,339.9 85.7,340.1 83.7,340.2 81.8,340.3 79.8,340.4 						"/>
					</g>
				</g>
				<g class="st26">
					<g>
						<defs>
							<rect id="SVGID_55_" x="77.3" y="23.2" width="250.5" height="317.8"/>
						</defs>
						<clipPath id="SVGID_56_">
							<use xlink:href="#SVGID_55_"  style="overflow:visible;"/>
						</clipPath>
						<polygon class="st28" points="77.8,340.4 77.8,340.5 79.8,340.5 81.8,340.5 83.7,340.5 85.7,340.5 87.6,340.5 89.6,340.5 
							91.6,340.5 93.5,340.5 95.5,340.5 97.5,340.5 99.4,340.5 101.4,340.5 103.4,340.5 105.3,340.5 107.3,340.5 109.3,340.5 
							111.2,340.5 113.2,340.5 115.1,340.5 117.1,340.5 119.1,340.5 121,340.5 123,340.5 125,340.5 126.9,340.5 128.9,340.5 
							130.9,340.5 132.8,340.5 134.8,340.5 136.8,340.5 138.7,340.5 140.7,340.5 142.6,340.5 144.6,340.5 146.6,340.5 148.5,340.5 
							150.5,340.5 152.5,340.5 154.4,340.5 156.4,340.5 158.4,340.5 160.3,340.5 162.3,340.5 164.3,340.5 166.2,340.5 168.2,340.5 
							170.1,340.5 172.1,340.5 174.1,340.5 176,340.5 178,340.5 180,340.5 181.9,340.5 183.9,340.5 185.9,340.5 187.8,340.5 
							189.8,340.5 191.7,340.5 193.7,340.5 195.7,340.5 197.6,340.5 199.6,340.5 201.6,340.5 203.5,340.5 205.5,340.5 207.5,340.5 
							209.4,340.5 211.4,340.5 213.4,340.5 215.3,340.5 217.3,340.5 219.2,340.5 221.2,340.5 223.2,340.5 225.1,340.5 227.1,340.5 
							229.1,340.5 231,340.5 233,340.5 235,340.5 236.9,340.5 238.9,340.5 240.9,340.5 242.8,340.5 244.8,340.5 246.7,340.5 
							248.7,340.5 250.7,340.5 252.6,340.5 254.6,340.5 256.6,340.5 258.5,340.5 260.5,340.5 262.5,340.5 264.4,340.5 266.4,340.5 
							268.4,340.5 270.3,340.5 272.3,340.5 274.2,340.5 276.2,340.5 278.2,340.5 280.1,340.5 282.1,340.5 284.1,340.5 286,340.5 
							288,340.5 290,340.5 291.9,340.5 293.9,340.5 295.9,340.5 297.8,340.5 299.8,340.5 301.7,340.5 303.7,340.5 305.7,340.5 
							307.6,340.5 309.6,340.5 311.6,340.5 313.5,340.5 315.5,340.5 317.5,340.5 319.4,340.5 321.4,340.5 323.3,340.5 325.3,340.5 
							327.3,340.5 327.3,340.4 325.3,340.4 323.3,340.3 321.4,340.2 319.4,340.1 317.5,339.9 315.5,339.6 313.5,339.2 311.6,338.8 
							309.6,338.3 307.6,337.8 305.7,337.3 303.7,336.8 301.7,336.4 299.8,336.1 297.8,336 295.9,336.1 293.9,336.3 291.9,336.6 
							290,337.1 288,337.6 286,338.1 284.1,338.6 282.1,338.9 280.1,339.2 278.2,339.3 276.2,339.2 274.2,338.8 272.3,338.3 
							270.3,337.4 268.4,336.2 266.4,334.6 264.4,332.7 262.5,330.5 260.5,328.1 258.5,325.4 256.6,322.7 254.6,320 252.6,317.3 
							250.7,314.6 248.7,312 246.7,309.4 244.8,306.7 242.8,303.9 240.9,300.9 238.9,297.6 236.9,294.1 235,290.1 233,285.8 
							231,281 229.1,275.7 227.1,269.6 225.1,262.8 223.2,255 221.2,246.4 219.2,236.8 217.3,226.5 215.3,215.6 213.4,204.4 
							211.4,193.2 209.4,182.2 207.5,171.6 205.5,161.2 203.5,151.1 201.6,141 199.6,130.6 197.6,119.7 195.7,108.2 193.7,96.1 
							191.7,83.7 189.8,71.4 187.8,59.6 185.9,48.8 183.9,39.6 181.9,32.3 180,27.1 178,24.3 176,23.7 174.1,25.2 172.1,28.7 
							170.1,34 168.2,40.7 166.2,48.6 164.3,57.8 162.3,68 160.3,79.2 158.4,91.6 156.4,105 154.4,119.4 152.5,134.7 150.5,150.8 
							148.5,167.3 146.6,184 144.6,200.4 142.6,216.4 140.7,231.5 138.7,245.6 136.8,258.5 134.8,270.1 132.8,280.6 130.9,289.8 
							128.9,298 126.9,305.1 125,311.3 123,316.5 121,320.9 119.1,324.5 117.1,327.4 115.1,329.6 113.2,331.3 111.2,332.6 
							109.3,333.6 107.3,334.4 105.3,335.1 103.4,335.8 101.4,336.4 99.4,337.1 97.5,337.7 95.5,338.3 93.5,338.8 91.6,339.2 
							89.6,339.6 87.6,339.9 85.7,340.1 83.7,340.2 81.8,340.3 79.8,340.4 						"/>
					</g>
				</g>
			</g>
		</g>
	</g>
	<g class="st1">
		<defs>
			<rect id="SVGID_57_" x="57.5" y="7.8" width="446.4" height="332.6"/>
		</defs>
		<clipPath id="SVGID_58_">
			<use xlink:href="#SVGID_57_"  style="overflow:visible;"/>
		</clipPath>
		<g class="st29">
			<g>
				<defs>
					<rect id="SVGID_59_" x="302.2" y="23.8" width="180.3" height="317.1"/>
				</defs>
				<clipPath id="SVGID_60_">
					<use xlink:href="#SVGID_59_"  style="overflow:visible;"/>
				</clipPath>
				<g class="st30">
					<g>
						<defs>
							<rect id="SVGID_61_" x="302.7" y="24.3" width="179.3" height="316.1"/>
						</defs>
						<clipPath id="SVGID_62_">
							<use xlink:href="#SVGID_61_"  style="overflow:visible;"/>
						</clipPath>
						<polygon class="st31" points="302.7,340.4 302.7,340.5 304.1,340.5 305.5,340.5 306.9,340.5 308.3,340.5 309.7,340.5 
							311.1,340.5 312.6,340.5 314,340.5 315.4,340.5 316.8,340.5 318.2,340.5 319.6,340.5 321,340.5 322.4,340.5 323.8,340.5 
							325.3,340.5 326.7,340.5 328.1,340.5 329.5,340.5 330.9,340.5 332.3,340.5 333.7,340.5 335.1,340.5 336.6,340.5 338,340.5 
							339.4,340.5 340.8,340.5 342.2,340.5 343.6,340.5 345,340.5 346.4,340.5 347.8,340.5 349.3,340.5 350.7,340.5 352.1,340.5 
							353.5,340.5 354.9,340.5 356.3,340.5 357.7,340.5 359.1,340.5 360.6,340.5 362,340.5 363.4,340.5 364.8,340.5 366.2,340.5 
							367.6,340.5 369,340.5 370.4,340.5 371.8,340.5 373.3,340.5 374.7,340.5 376.1,340.5 377.5,340.5 378.9,340.5 380.3,340.5 
							381.7,340.5 383.1,340.5 384.6,340.5 386,340.5 387.4,340.5 388.8,340.5 390.2,340.5 391.6,340.5 393,340.5 394.4,340.5 
							395.8,340.5 397.3,340.5 398.7,340.5 400.1,340.5 401.5,340.5 402.9,340.5 404.3,340.5 405.7,340.5 407.1,340.5 408.6,340.5 
							410,340.5 411.4,340.5 412.8,340.5 414.2,340.5 415.6,340.5 417,340.5 418.4,340.5 419.8,340.5 421.3,340.5 422.7,340.5 
							424.1,340.5 425.5,340.5 426.9,340.5 428.3,340.5 429.7,340.5 431.1,340.5 432.5,340.5 434,340.5 435.4,340.5 436.8,340.5 
							438.2,340.5 439.6,340.5 441,340.5 442.4,340.5 443.8,340.5 445.3,340.5 446.7,340.5 448.1,340.5 449.5,340.5 450.9,340.5 
							452.3,340.5 453.7,340.5 455.1,340.5 456.5,340.5 458,340.5 459.4,340.5 460.8,340.5 462.2,340.5 463.6,340.5 465,340.5 
							466.4,340.5 467.8,340.5 469.3,340.5 470.7,340.5 472.1,340.5 473.5,340.5 474.9,340.5 476.3,340.5 477.7,340.5 479.1,340.5 
							480.5,340.5 482,340.5 482,340.4 480.5,340.3 479.1,340.3 477.7,340.2 476.3,340.1 474.9,339.9 473.5,339.7 472.1,339.4 
							470.7,339 469.3,338.4 467.8,337.8 466.4,337.1 465,336.2 463.6,335.1 462.2,334 460.8,332.6 459.4,331.1 458,329.4 
							456.5,327.6 455.1,325.5 453.7,323.1 452.3,320.5 450.9,317.5 449.5,314.1 448.1,310.2 446.7,305.9 445.3,301 443.8,295.6 
							442.4,289.6 441,283.1 439.6,276 438.2,268.4 436.8,260.4 435.4,252 434,243.2 432.5,234.1 431.1,224.7 429.7,215.1 
							428.3,205.3 426.9,195.5 425.5,185.6 424.1,175.8 422.7,166.2 421.3,156.7 419.8,147.4 418.4,138.2 417,129.3 415.6,120.4 
							414.2,111.6 412.8,102.8 411.4,94 410,85.2 408.6,76.5 407.1,68 405.7,59.8 404.3,52.2 402.9,45.3 401.5,39.2 400.1,34.1 
							398.7,30.1 397.3,27.2 395.8,25.3 394.4,24.4 393,24.3 391.6,25 390.2,26.3 388.8,28.1 387.4,30.3 386,32.9 384.6,35.7 
							383.1,38.9 381.7,42.6 380.3,46.7 378.9,51.6 377.5,57.3 376.1,63.9 374.7,71.6 373.3,80.4 371.8,90.3 370.4,101.1 369,112.9 
							367.6,125.3 366.2,138.1 364.8,151 363.4,163.9 362,176.4 360.6,188.3 359.1,199.6 357.7,209.9 356.3,219.4 354.9,227.9 
							353.5,235.6 352.1,242.6 350.7,248.9 349.3,254.7 347.8,260.1 346.4,265.3 345,270.3 343.6,275.3 342.2,280.4 340.8,285.4 
							339.4,290.4 338,295.4 336.6,300.3 335.1,305 333.7,309.5 332.3,313.6 330.9,317.5 329.5,321 328.1,324.2 326.7,326.9 
							325.3,329.3 323.8,331.4 322.4,333.2 321,334.7 319.6,335.9 318.2,337 316.8,337.8 315.4,338.5 314,339 312.6,339.4 
							311.1,339.7 309.7,339.9 308.3,340.1 306.9,340.2 305.5,340.3 304.1,340.3 						"/>
					</g>
				</g>
				<g class="st30">
					<g>
						<defs>
							<rect id="SVGID_63_" x="302.2" y="23.8" width="180.3" height="317.1"/>
						</defs>
						<clipPath id="SVGID_64_">
							<use xlink:href="#SVGID_63_"  style="overflow:visible;"/>
						</clipPath>
						<polygon class="st32" points="302.7,340.4 302.7,340.5 304.1,340.5 305.5,340.5 306.9,340.5 308.3,340.5 309.7,340.5 
							311.1,340.5 312.6,340.5 314,340.5 315.4,340.5 316.8,340.5 318.2,340.5 319.6,340.5 321,340.5 322.4,340.5 323.8,340.5 
							325.3,340.5 326.7,340.5 328.1,340.5 329.5,340.5 330.9,340.5 332.3,340.5 333.7,340.5 335.1,340.5 336.6,340.5 338,340.5 
							339.4,340.5 340.8,340.5 342.2,340.5 343.6,340.5 345,340.5 346.4,340.5 347.8,340.5 349.3,340.5 350.7,340.5 352.1,340.5 
							353.5,340.5 354.9,340.5 356.3,340.5 357.7,340.5 359.1,340.5 360.6,340.5 362,340.5 363.4,340.5 364.8,340.5 366.2,340.5 
							367.6,340.5 369,340.5 370.4,340.5 371.8,340.5 373.3,340.5 374.7,340.5 376.1,340.5 377.5,340.5 378.9,340.5 380.3,340.5 
							381.7,340.5 383.1,340.5 384.6,340.5 386,340.5 387.4,340.5 388.8,340.5 390.2,340.5 391.6,340.5 393,340.5 394.4,340.5 
							395.8,340.5 397.3,340.5 398.7,340.5 400.1,340.5 401.5,340.5 402.9,340.5 404.3,340.5 405.7,340.5 407.1,340.5 408.6,340.5 
							410,340.5 411.4,340.5 412.8,340.5 414.2,340.5 415.6,340.5 417,340.5 418.4,340.5 419.8,340.5 421.3,340.5 422.7,340.5 
							424.1,340.5 425.5,340.5 426.9,340.5 428.3,340.5 429.7,340.5 431.1,340.5 432.5,340.5 434,340.5 435.4,340.5 436.8,340.5 
							438.2,340.5 439.6,340.5 441,340.5 442.4,340.5 443.8,340.5 445.3,340.5 446.7,340.5 448.1,340.5 449.5,340.5 450.9,340.5 
							452.3,340.5 453.7,340.5 455.1,340.5 456.5,340.5 458,340.5 459.4,340.5 460.8,340.5 462.2,340.5 463.6,340.5 465,340.5 
							466.4,340.5 467.8,340.5 469.3,340.5 470.7,340.5 472.1,340.5 473.5,340.5 474.9,340.5 476.3,340.5 477.7,340.5 479.1,340.5 
							480.5,340.5 482,340.5 482,340.4 480.5,340.3 479.1,340.3 477.7,340.2 476.3,340.1 474.9,339.9 473.5,339.7 472.1,339.4 
							470.7,339 469.3,338.4 467.8,337.8 466.4,337.1 465,336.2 463.6,335.1 462.2,334 460.8,332.6 459.4,331.1 458,329.4 
							456.5,327.6 455.1,325.5 453.7,323.1 452.3,320.5 450.9,317.5 449.5,314.1 448.1,310.2 446.7,305.9 445.3,301 443.8,295.6 
							442.4,289.6 441,283.1 439.6,276 438.2,268.4 436.8,260.4 435.4,252 434,243.2 432.5,234.1 431.1,224.7 429.7,215.1 
							428.3,205.3 426.9,195.5 425.5,185.6 424.1,175.8 422.7,166.2 421.3,156.7 419.8,147.4 418.4,138.2 417,129.3 415.6,120.4 
							414.2,111.6 412.8,102.8 411.4,94 410,85.2 408.6,76.5 407.1,68 405.7,59.8 404.3,52.2 402.9,45.3 401.5,39.2 400.1,34.1 
							398.7,30.1 397.3,27.2 395.8,25.3 394.4,24.4 393,24.3 391.6,25 390.2,26.3 388.8,28.1 387.4,30.3 386,32.9 384.6,35.7 
							383.1,38.9 381.7,42.6 380.3,46.7 378.9,51.6 377.5,57.3 376.1,63.9 374.7,71.6 373.3,80.4 371.8,90.3 370.4,101.1 369,112.9 
							367.6,125.3 366.2,138.1 364.8,151 363.4,163.9 362,176.4 360.6,188.3 359.1,199.6 357.7,209.9 356.3,219.4 354.9,227.9 
							353.5,235.6 352.1,242.6 350.7,248.9 349.3,254.7 347.8,260.1 346.4,265.3 345,270.3 343.6,275.3 342.2,280.4 340.8,285.4 
							339.4,290.4 338,295.4 336.6,300.3 335.1,305 333.7,309.5 332.3,313.6 330.9,317.5 329.5,321 328.1,324.2 326.7,326.9 
							325.3,329.3 323.8,331.4 322.4,333.2 321,334.7 319.6,335.9 318.2,337 316.8,337.8 315.4,338.5 314,339 312.6,339.4 
							311.1,339.7 309.7,339.9 308.3,340.1 306.9,340.2 305.5,340.3 304.1,340.3 						"/>
					</g>
				</g>
			</g>
		</g>
	</g>
	<g class="st1">
		<defs>
			<rect id="SVGID_65_" x="57.5" y="7.8" width="446.4" height="332.6"/>
		</defs>
		<clipPath id="SVGID_66_">
			<use xlink:href="#SVGID_65_"  style="overflow:visible;"/>
		</clipPath>
		<g class="st33">
			<g>
				<defs>
					<rect id="SVGID_67_" x="259" y="69.2" width="225.1" height="271.8"/>
				</defs>
				<clipPath id="SVGID_68_">
					<use xlink:href="#SVGID_67_"  style="overflow:visible;"/>
				</clipPath>
				<g class="st34">
					<g>
						<defs>
							<rect id="SVGID_69_" x="259.5" y="69.7" width="224.1" height="270.8"/>
						</defs>
						<clipPath id="SVGID_70_">
							<use xlink:href="#SVGID_69_"  style="overflow:visible;"/>
						</clipPath>
						<polygon class="st35" points="259.5,340.4 259.5,340.5 261.3,340.5 263.1,340.5 264.8,340.5 266.6,340.5 268.4,340.5 
							270.1,340.5 271.9,340.5 273.7,340.5 275.4,340.5 277.2,340.5 278.9,340.5 280.7,340.5 282.5,340.5 284.2,340.5 286,340.5 
							287.8,340.5 289.5,340.5 291.3,340.5 293.1,340.5 294.8,340.5 296.6,340.5 298.4,340.5 300.1,340.5 301.9,340.5 303.6,340.5 
							305.4,340.5 307.2,340.5 308.9,340.5 310.7,340.5 312.5,340.5 314.2,340.5 316,340.5 317.8,340.5 319.5,340.5 321.3,340.5 
							323.1,340.5 324.8,340.5 326.6,340.5 328.4,340.5 330.1,340.5 331.9,340.5 333.6,340.5 335.4,340.5 337.2,340.5 338.9,340.5 
							340.7,340.5 342.5,340.5 344.2,340.5 346,340.5 347.8,340.5 349.5,340.5 351.3,340.5 353.1,340.5 354.8,340.5 356.6,340.5 
							358.4,340.5 360.1,340.5 361.9,340.5 363.6,340.5 365.4,340.5 367.2,340.5 368.9,340.5 370.7,340.5 372.5,340.5 374.2,340.5 
							376,340.5 377.8,340.5 379.5,340.5 381.3,340.5 383.1,340.5 384.8,340.5 386.6,340.5 388.4,340.5 390.1,340.5 391.9,340.5 
							393.6,340.5 395.4,340.5 397.2,340.5 398.9,340.5 400.7,340.5 402.5,340.5 404.2,340.5 406,340.5 407.8,340.5 409.5,340.5 
							411.3,340.5 413.1,340.5 414.8,340.5 416.6,340.5 418.4,340.5 420.1,340.5 421.9,340.5 423.6,340.5 425.4,340.5 427.2,340.5 
							428.9,340.5 430.7,340.5 432.5,340.5 434.2,340.5 436,340.5 437.8,340.5 439.5,340.5 441.3,340.5 443.1,340.5 444.8,340.5 
							446.6,340.5 448.4,340.5 450.1,340.5 451.9,340.5 453.6,340.5 455.4,340.5 457.2,340.5 458.9,340.5 460.7,340.5 462.5,340.5 
							464.2,340.5 466,340.5 467.8,340.5 469.5,340.5 471.3,340.5 473.1,340.5 474.8,340.5 476.6,340.5 478.4,340.5 480.1,340.5 
							481.9,340.5 483.6,340.5 483.6,340.4 481.9,340.4 480.1,340.3 478.4,340.3 476.6,340.2 474.8,340 473.1,339.8 471.3,339.5 
							469.5,339.1 467.8,338.6 466,338 464.2,337.2 462.5,336.2 460.7,335.1 458.9,333.7 457.2,332.1 455.4,330.2 453.6,328 
							451.9,325.6 450.1,323 448.4,320.1 446.6,317 444.8,313.8 443.1,310.6 441.3,307.4 439.5,304.4 437.8,301.6 436,299.1 
							434.2,296.8 432.5,294.8 430.7,292.9 428.9,291 427.2,289 425.4,286.7 423.6,283.9 421.9,280.4 420.1,276.1 418.4,271 
							416.6,265 414.8,258.1 413.1,250.3 411.3,241.6 409.5,232.2 407.8,222.1 406,211.4 404.2,200.3 402.5,188.8 400.7,177.1 
							398.9,165.5 397.2,154.1 395.4,143.2 393.6,132.9 391.9,123.5 390.1,115 388.4,107.6 386.6,101.1 384.8,95.6 383.1,90.9 
							381.3,86.9 379.5,83.4 377.8,80.3 376,77.5 374.2,75 372.5,72.9 370.7,71.2 368.9,70.1 367.2,69.7 365.4,70 363.6,71.2 
							361.9,73.3 360.1,76.4 358.4,80.4 356.6,85.4 354.8,91.4 353.1,98.2 351.3,105.8 349.5,114.2 347.8,123.3 346,132.8 
							344.2,142.8 342.5,153 340.7,163.5 338.9,174.1 337.2,184.8 335.4,195.5 333.6,206.2 331.9,216.9 330.1,227.4 328.4,237.7 
							326.6,247.7 324.8,257.2 323.1,266.2 321.3,274.5 319.5,281.9 317.8,288.4 316,293.8 314.2,298.3 312.5,301.7 310.7,304.3 
							308.9,306.2 307.2,307.4 305.4,308.2 303.6,308.8 301.9,309.4 300.1,310.1 298.4,311 296.6,312.2 294.8,313.7 293.1,315.6 
							291.3,317.7 289.5,320.1 287.8,322.6 286,325.1 284.2,327.6 282.5,329.9 280.7,332 278.9,333.9 277.2,335.4 275.4,336.7 
							273.7,337.7 271.9,338.5 270.1,339.1 268.4,339.6 266.6,339.9 264.8,340.1 263.1,340.2 261.3,340.3 						"/>
					</g>
				</g>
				<g class="st34">
					<g>
						<defs>
							<rect id="SVGID_71_" x="259" y="69.2" width="225.1" height="271.8"/>
						</defs>
						<clipPath id="SVGID_72_">
							<use xlink:href="#SVGID_71_"  style="overflow:visible;"/>
						</clipPath>
						<polygon class="st36" points="259.5,340.4 259.5,340.5 261.3,340.5 263.1,340.5 264.8,340.5 266.6,340.5 268.4,340.5 
							270.1,340.5 271.9,340.5 273.7,340.5 275.4,340.5 277.2,340.5 278.9,340.5 280.7,340.5 282.5,340.5 284.2,340.5 286,340.5 
							287.8,340.5 289.5,340.5 291.3,340.5 293.1,340.5 294.8,340.5 296.6,340.5 298.4,340.5 300.1,340.5 301.9,340.5 303.6,340.5 
							305.4,340.5 307.2,340.5 308.9,340.5 310.7,340.5 312.5,340.5 314.2,340.5 316,340.5 317.8,340.5 319.5,340.5 321.3,340.5 
							323.1,340.5 324.8,340.5 326.6,340.5 328.4,340.5 330.1,340.5 331.9,340.5 333.6,340.5 335.4,340.5 337.2,340.5 338.9,340.5 
							340.7,340.5 342.5,340.5 344.2,340.5 346,340.5 347.8,340.5 349.5,340.5 351.3,340.5 353.1,340.5 354.8,340.5 356.6,340.5 
							358.4,340.5 360.1,340.5 361.9,340.5 363.6,340.5 365.4,340.5 367.2,340.5 368.9,340.5 370.7,340.5 372.5,340.5 374.2,340.5 
							376,340.5 377.8,340.5 379.5,340.5 381.3,340.5 383.1,340.5 384.8,340.5 386.6,340.5 388.4,340.5 390.1,340.5 391.9,340.5 
							393.6,340.5 395.4,340.5 397.2,340.5 398.9,340.5 400.7,340.5 402.5,340.5 404.2,340.5 406,340.5 407.8,340.5 409.5,340.5 
							411.3,340.5 413.1,340.5 414.8,340.5 416.6,340.5 418.4,340.5 420.1,340.5 421.9,340.5 423.6,340.5 425.4,340.5 427.2,340.5 
							428.9,340.5 430.7,340.5 432.5,340.5 434.2,340.5 436,340.5 437.8,340.5 439.5,340.5 441.3,340.5 443.1,340.5 444.8,340.5 
							446.6,340.5 448.4,340.5 450.1,340.5 451.9,340.5 453.6,340.5 455.4,340.5 457.2,340.5 458.9,340.5 460.7,340.5 462.5,340.5 
							464.2,340.5 466,340.5 467.8,340.5 469.5,340.5 471.3,340.5 473.1,340.5 474.8,340.5 476.6,340.5 478.4,340.5 480.1,340.5 
							481.9,340.5 483.6,340.5 483.6,340.4 481.9,340.4 480.1,340.3 478.4,340.3 476.6,340.2 474.8,340 473.1,339.8 471.3,339.5 
							469.5,339.1 467.8,338.6 466,338 464.2,337.2 462.5,336.2 460.7,335.1 458.9,333.7 457.2,332.1 455.4,330.2 453.6,328 
							451.9,325.6 450.1,323 448.4,320.1 446.6,317 444.8,313.8 443.1,310.6 441.3,307.4 439.5,304.4 437.8,301.6 436,299.1 
							434.2,296.8 432.5,294.8 430.7,292.9 428.9,291 427.2,289 425.4,286.7 423.6,283.9 421.9,280.4 420.1,276.1 418.4,271 
							416.6,265 414.8,258.1 413.1,250.3 411.3,241.6 409.5,232.2 407.8,222.1 406,211.4 404.2,200.3 402.5,188.8 400.7,177.1 
							398.9,165.5 397.2,154.1 395.4,143.2 393.6,132.9 391.9,123.5 390.1,115 388.4,107.6 386.6,101.1 384.8,95.6 383.1,90.9 
							381.3,86.9 379.5,83.4 377.8,80.3 376,77.5 374.2,75 372.5,72.9 370.7,71.2 368.9,70.1 367.2,69.7 365.4,70 363.6,71.2 
							361.9,73.3 360.1,76.4 358.4,80.4 356.6,85.4 354.8,91.4 353.1,98.2 351.3,105.8 349.5,114.2 347.8,123.3 346,132.8 
							344.2,142.8 342.5,153 340.7,163.5 338.9,174.1 337.2,184.8 335.4,195.5 333.6,206.2 331.9,216.9 330.1,227.4 328.4,237.7 
							326.6,247.7 324.8,257.2 323.1,266.2 321.3,274.5 319.5,281.9 317.8,288.4 316,293.8 314.2,298.3 312.5,301.7 310.7,304.3 
							308.9,306.2 307.2,307.4 305.4,308.2 303.6,308.8 301.9,309.4 300.1,310.1 298.4,311 296.6,312.2 294.8,313.7 293.1,315.6 
							291.3,317.7 289.5,320.1 287.8,322.6 286,325.1 284.2,327.6 282.5,329.9 280.7,332 278.9,333.9 277.2,335.4 275.4,336.7 
							273.7,337.7 271.9,338.5 270.1,339.1 268.4,339.6 266.6,339.9 264.8,340.1 263.1,340.2 261.3,340.3 						"/>
					</g>
				</g>
			</g>
		</g>
		<polyline class="st37" points="77.8,340.4 83.7,340.2 87.6,339.9 91.6,339.2 95.5,338.3 101.4,336.4 107.3,334.4 109.3,333.6 
			111.2,332.6 113.2,331.3 115.1,329.6 117.1,327.4 119.1,324.5 121,320.9 123,316.5 125,311.3 126.9,305.1 128.9,298 130.9,289.8 
			132.8,280.6 134.8,270.1 136.8,258.5 138.7,245.6 140.7,231.5 144.6,200.4 152.5,134.7 154.4,119.4 156.4,105 158.4,91.6 
			160.3,79.2 162.3,68 164.3,57.8 166.2,48.6 168.2,40.7 170.1,34 172.1,28.7 174.1,25.2 176,23.7 178,24.3 180,27.1 181.9,32.3 
			183.9,39.6 185.9,48.8 187.8,59.6 191.7,83.7 195.7,108.2 199.6,130.6 205.5,161.2 209.4,182.2 219.2,236.8 221.2,246.4 
			223.2,255 225.1,262.8 227.1,269.6 229.1,275.7 231,281 233,285.8 235,290.1 236.9,294.1 238.9,297.6 240.9,300.9 242.8,303.9 
			246.7,309.4 254.6,320 260.5,328.1 262.5,330.5 264.4,332.7 266.4,334.6 268.4,336.2 270.3,337.4 272.3,338.3 274.2,338.8 
			276.2,339.2 278.2,339.3 280.1,339.2 282.1,338.9 286,338.1 291.9,336.6 293.9,336.3 295.9,336.1 297.8,336 299.8,336.1 
			301.7,336.4 305.7,337.3 311.6,338.8 315.5,339.6 319.4,340.1 323.3,340.3 327.3,340.4 		"/>
		<polyline class="st38" points="302.7,340.4 306.9,340.2 309.7,339.9 312.6,339.4 314,339 315.4,338.5 316.8,337.8 318.2,337 
			319.6,335.9 321,334.7 322.4,333.2 323.8,331.4 325.3,329.3 326.7,326.9 328.1,324.2 329.5,321 330.9,317.5 332.3,313.6 
			335.1,305 338,295.4 346.4,265.3 349.3,254.7 350.7,248.9 352.1,242.6 353.5,235.6 354.9,227.9 356.3,219.4 357.7,209.9 
			359.1,199.6 362,176.4 366.2,138.1 369,112.9 371.8,90.3 373.3,80.4 374.7,71.6 376.1,63.9 377.5,57.3 378.9,51.6 380.3,46.7 
			381.7,42.6 383.1,38.9 384.6,35.7 386,32.9 387.4,30.3 388.8,28.1 390.2,26.3 391.6,25 393,24.3 394.4,24.4 395.8,25.3 
			397.3,27.2 398.7,30.1 400.1,34.1 401.5,39.2 402.9,45.3 404.3,52.2 407.1,68 411.4,94 419.8,147.4 424.1,175.8 432.5,234.1 
			435.4,252 438.2,268.4 441,283.1 442.4,289.6 443.8,295.6 445.3,301 446.7,305.9 448.1,310.2 449.5,314.1 450.9,317.5 
			452.3,320.5 453.7,323.1 455.1,325.5 456.5,327.6 458,329.4 459.4,331.1 460.8,332.6 462.2,334 463.6,335.1 465,336.2 
			466.4,337.1 467.8,337.8 470.7,339 473.5,339.7 476.3,340.1 479.1,340.3 482,340.4 		"/>
		<polyline class="st39" points="259.5,340.4 263.1,340.2 266.6,339.9 268.4,339.6 270.1,339.1 271.9,338.5 273.7,337.7 
			275.4,336.7 277.2,335.4 278.9,333.9 280.7,332 282.5,329.9 286,325.1 291.3,317.7 293.1,315.6 294.8,313.7 296.6,312.2 
			298.4,311 300.1,310.1 303.6,308.8 305.4,308.2 307.2,307.4 308.9,306.2 310.7,304.3 312.5,301.7 314.2,298.3 316,293.8 
			317.8,288.4 319.5,281.9 321.3,274.5 323.1,266.2 326.6,247.7 330.1,227.4 337.2,184.8 342.5,153 346,132.8 349.5,114.2 
			351.3,105.8 353.1,98.2 354.8,91.4 356.6,85.4 358.4,80.4 360.1,76.4 361.9,73.3 363.6,71.2 365.4,70 367.2,69.7 368.9,70.1 
			370.7,71.2 372.5,72.9 374.2,75 376,77.5 377.8,80.3 379.5,83.4 381.3,86.9 383.1,90.9 384.8,95.6 386.6,101.1 388.4,107.6 
			390.1,115 391.9,123.5 393.6,132.9 395.4,143.2 398.9,165.5 406,211.4 409.5,232.2 411.3,241.6 413.1,250.3 414.8,258.1 
			416.6,265 418.4,271 420.1,276.1 421.9,280.4 423.6,283.9 425.4,286.7 427.2,289 430.7,292.9 434.2,296.8 436,299.1 437.8,301.6 
			439.5,304.4 443.1,310.6 448.4,320.1 450.1,323 451.9,325.6 453.6,328 455.4,330.2 457.2,332.1 458.9,333.7 460.7,335.1 
			462.5,336.2 464.2,337.2 466,338 467.8,338.6 471.3,339.5 474.8,340 478.4,340.3 483.6,340.4 		"/>
	</g>
	<g class="st1">
		<defs>
			<rect id="SVGID_73_" width="516.5" height="388"/>
		</defs>
		<clipPath id="SVGID_74_">
			<use xlink:href="#SVGID_73_"  style="overflow:visible;"/>
		</clipPath>
		<line class="st40" x1="57.5" y1="340.5" x2="57.5" y2="7.8"/>
		<line class="st40" x1="503.9" y1="340.5" x2="503.9" y2="7.8"/>
		<line class="st40" x1="57.5" y1="340.5" x2="503.9" y2="340.5"/>
		<line class="st40" x1="57.5" y1="7.8" x2="503.9" y2="7.8"/>
		<g class="st41">
			<g>
				<defs>
					<rect id="SVGID_75_" x="66" y="132.8" width="230.9" height="82.8"/>
				</defs>
				<clipPath id="SVGID_76_">
					<use xlink:href="#SVGID_75_"  style="overflow:visible;"/>
				</clipPath>
				<g class="st42">
					<g>
						<defs>
							<rect id="SVGID_77_" x="66.5" y="133.3" width="229.9" height="81.8"/>
						</defs>
						<clipPath id="SVGID_78_">
							<use xlink:href="#SVGID_77_"  style="overflow:visible;"/>
						</clipPath>
						<path class="st43" d="M70.1,215.1h222.7c2.4,0,3.6-1.2,3.6-3.6v-74.6c0-2.4-1.2-3.6-3.6-3.6H70.1c-2.4,0-3.6,1.2-3.6,3.6v74.6
							C66.5,213.9,67.7,215.1,70.1,215.1"/>
					</g>
				</g>
				<g class="st42">
					<g>
						<defs>
							<rect id="SVGID_79_" x="66" y="132.8" width="230.9" height="82.8"/>
						</defs>
						<clipPath id="SVGID_80_">
							<use xlink:href="#SVGID_79_"  style="overflow:visible;"/>
						</clipPath>
						<path class="st44" d="M70.1,215.1h222.7c2.4,0,3.6-1.2,3.6-3.6v-74.6c0-2.4-1.2-3.6-3.6-3.6H70.1c-2.4,0-3.6,1.2-3.6,3.6v74.6
							C66.5,213.9,67.7,215.1,70.1,215.1z"/>
					</g>
				</g>
			</g>
		</g>
		<line class="st45" x1="73.7" y1="147" x2="109.7" y2="147"/>
		<rect x="125.8" y="140.5" class="st46" width="1.7" height="12.9"/>
		<path class="st46" d="M130.3,153.3V144h1.4v1.3c0.7-1,1.7-1.5,3-1.5c0.6,0,1.1,0.1,1.5,0.3c0.5,0.2,0.8,0.5,1.1,0.8
			c0.2,0.3,0.4,0.7,0.5,1.2c0.1,0.3,0.1,0.8,0.1,1.5v5.7h-1.6v-5.7c0-0.6-0.1-1.1-0.2-1.4c-0.1-0.3-0.3-0.6-0.6-0.8
			c-0.3-0.2-0.7-0.3-1.1-0.3c-0.7,0-1.3,0.2-1.8,0.6c-0.5,0.4-0.7,1.2-0.7,2.4v5.1H130.3"/>
		<path class="st46" d="M147.2,151.8h2.8c0.8,0,1.5-0.1,2-0.2c0.5-0.2,0.9-0.4,1.2-0.7c0.4-0.4,0.7-0.9,0.9-1.6
			c0.2-0.7,0.3-1.5,0.3-2.5c0-1.3-0.2-2.4-0.7-3.1c-0.4-0.7-1-1.2-1.6-1.5c-0.5-0.2-1.2-0.3-2.2-0.3h-2.7V151.8 M145.5,153.3v-12.9
			h4.4c1,0,1.7,0.1,2.3,0.2c0.7,0.2,1.4,0.5,1.9,0.9c0.7,0.6,1.2,1.3,1.5,2.2c0.3,0.9,0.5,1.9,0.5,3.1c0,1-0.1,1.9-0.3,2.6
			c-0.2,0.8-0.5,1.4-0.9,1.9c-0.4,0.5-0.8,0.9-1.2,1.2c-0.4,0.3-0.9,0.5-1.5,0.6c-0.6,0.1-1.3,0.2-2.1,0.2H145.5"/>
		<path class="st46" d="M159.4,148.7c0,1.2,0.3,2.1,0.8,2.7c0.5,0.6,1.2,0.9,2,0.9c0.8,0,1.4-0.3,2-0.9c0.5-0.6,0.8-1.5,0.8-2.7
			c0-1.2-0.3-2-0.8-2.6c-0.5-0.6-1.2-0.9-2-0.9c-0.8,0-1.5,0.3-2,0.9C159.6,146.6,159.4,147.5,159.4,148.7 M157.7,148.7
			c0-1.7,0.5-3,1.4-3.9c0.8-0.7,1.8-1,2.9-1c1.3,0,2.3,0.4,3.1,1.3c0.8,0.8,1.2,2,1.2,3.5c0,1.2-0.2,2.2-0.5,2.8
			c-0.4,0.7-0.9,1.2-1.6,1.6c-0.7,0.4-1.4,0.6-2.3,0.6c-1.3,0-2.4-0.4-3.2-1.2C158.1,151.5,157.7,150.3,157.7,148.7"/>
		<path class="st46" d="M168.3,153.3V144h1.4v1.3c0.3-0.4,0.7-0.8,1.2-1.1c0.5-0.3,1-0.4,1.7-0.4c0.7,0,1.2,0.1,1.7,0.4
			c0.4,0.3,0.8,0.7,0.9,1.2c0.7-1.1,1.7-1.6,2.9-1.6c0.9,0,1.6,0.3,2.1,0.8s0.8,1.3,0.8,2.4v6.4h-1.6v-5.9c0-0.6-0.1-1.1-0.2-1.4
			s-0.3-0.5-0.6-0.7c-0.3-0.2-0.6-0.3-0.9-0.3c-0.7,0-1.2,0.2-1.6,0.7c-0.4,0.4-0.6,1.1-0.6,2.1v5.4h-1.6v-6.1
			c0-0.7-0.1-1.2-0.4-1.6c-0.3-0.3-0.7-0.5-1.3-0.5c-0.4,0-0.9,0.1-1.2,0.4c-0.4,0.2-0.6,0.6-0.8,1c-0.2,0.4-0.3,1.1-0.3,1.9v4.8
			H168.3"/>
		<path class="st46" d="M189.3,148.7c-0.6,0.2-1.4,0.4-2.6,0.6c-0.6,0.1-1.1,0.2-1.4,0.3c-0.3,0.1-0.5,0.3-0.6,0.5
			c-0.1,0.2-0.2,0.5-0.2,0.8c0,0.4,0.1,0.8,0.5,1.1c0.3,0.3,0.8,0.4,1.4,0.4s1.2-0.1,1.6-0.4c0.5-0.3,0.8-0.6,1.1-1.1
			c0.2-0.4,0.3-0.9,0.3-1.6V148.7 M189.4,152.2c-0.6,0.5-1.2,0.9-1.7,1.1c-0.5,0.2-1.1,0.3-1.7,0.3c-1,0-1.8-0.2-2.4-0.7
			c-0.6-0.5-0.8-1.1-0.8-1.9c0-0.4,0.1-0.9,0.3-1.2c0.2-0.4,0.5-0.7,0.8-0.9c0.3-0.2,0.7-0.4,1.1-0.5c0.3-0.1,0.8-0.1,1.4-0.2
			c1.3-0.1,2.2-0.3,2.8-0.5V147c0-0.6-0.1-1.1-0.4-1.4c-0.4-0.4-1-0.5-1.8-0.5c-0.8,0-1.3,0.1-1.7,0.4c-0.4,0.3-0.6,0.7-0.8,1.4
			l-1.5-0.2c0.1-0.6,0.4-1.2,0.7-1.6c0.3-0.4,0.8-0.7,1.4-0.9s1.3-0.3,2.1-0.3c0.8,0,1.4,0.1,1.9,0.3c0.5,0.2,0.9,0.4,1.1,0.7
			c0.2,0.3,0.4,0.6,0.5,1.1c0.1,0.3,0.1,0.8,0.1,1.5v2.1c0,1.5,0,2.4,0.1,2.8c0.1,0.4,0.2,0.8,0.4,1.1h-1.7
			C189.6,153,189.5,152.6,189.4,152.2"/>
		<path class="st46" d="M193.3,144h1.6v9.3h-1.6V144z M193.3,140.5h1.6v1.8h-1.6V140.5z"/>
		<path class="st46" d="M197.3,153.3V144h1.4v1.3c0.7-1,1.7-1.5,3-1.5c0.6,0,1.1,0.1,1.5,0.3c0.5,0.2,0.8,0.5,1.1,0.8
			c0.2,0.3,0.4,0.7,0.5,1.2c0.1,0.3,0.1,0.8,0.1,1.5v5.7h-1.6v-5.7c0-0.6-0.1-1.1-0.2-1.4c-0.1-0.3-0.3-0.6-0.6-0.8
			c-0.3-0.2-0.7-0.3-1.1-0.3c-0.7,0-1.3,0.2-1.8,0.6c-0.5,0.4-0.7,1.2-0.7,2.4v5.1H197.3"/>
		<path class="st46" d="M214.3,151.8h2.8c0.8,0,1.5-0.1,2-0.2c0.5-0.2,0.9-0.4,1.2-0.7c0.4-0.4,0.7-0.9,0.9-1.6
			c0.2-0.7,0.3-1.5,0.3-2.5c0-1.3-0.2-2.4-0.7-3.1c-0.4-0.7-1-1.2-1.6-1.5c-0.5-0.2-1.2-0.3-2.2-0.3h-2.7V151.8 M212.6,153.3v-12.9
			h4.4c1,0,1.7,0.1,2.3,0.2c0.7,0.2,1.4,0.5,1.9,0.9c0.7,0.6,1.2,1.3,1.5,2.2c0.3,0.9,0.5,1.9,0.5,3.1c0,1-0.1,1.9-0.3,2.6
			c-0.2,0.8-0.5,1.4-0.9,1.9c-0.4,0.5-0.8,0.9-1.2,1.2c-0.4,0.3-0.9,0.5-1.5,0.6c-0.6,0.1-1.3,0.2-2.1,0.2H212.6"/>
		<path class="st46" d="M231.3,148.7c-0.6,0.2-1.4,0.4-2.6,0.6c-0.6,0.1-1.1,0.2-1.4,0.3c-0.3,0.1-0.5,0.3-0.6,0.5
			c-0.1,0.2-0.2,0.5-0.2,0.8c0,0.4,0.1,0.8,0.5,1.1c0.3,0.3,0.8,0.4,1.4,0.4s1.2-0.1,1.6-0.4c0.5-0.3,0.8-0.6,1.1-1.1
			c0.2-0.4,0.3-0.9,0.3-1.6V148.7 M231.4,152.2c-0.6,0.5-1.2,0.9-1.7,1.1c-0.5,0.2-1.1,0.3-1.7,0.3c-1,0-1.8-0.2-2.4-0.7
			c-0.6-0.5-0.8-1.1-0.8-1.9c0-0.4,0.1-0.9,0.3-1.2c0.2-0.4,0.5-0.7,0.8-0.9c0.3-0.2,0.7-0.4,1.1-0.5c0.3-0.1,0.8-0.1,1.4-0.2
			c1.3-0.1,2.2-0.3,2.8-0.5V147c0-0.6-0.1-1.1-0.4-1.4c-0.4-0.4-1-0.5-1.8-0.5c-0.8,0-1.3,0.1-1.7,0.4c-0.4,0.3-0.6,0.7-0.8,1.4
			l-1.5-0.2c0.1-0.6,0.4-1.2,0.7-1.6c0.3-0.4,0.8-0.7,1.4-0.9s1.3-0.3,2.1-0.3c0.8,0,1.4,0.1,1.9,0.3c0.5,0.2,0.9,0.4,1.1,0.7
			c0.2,0.3,0.4,0.6,0.5,1.1c0.1,0.3,0.1,0.8,0.1,1.5v2.1c0,1.5,0,2.4,0.1,2.8c0.1,0.4,0.2,0.8,0.4,1.1h-1.7
			C231.6,153,231.5,152.6,231.4,152.2"/>
		<path class="st46" d="M238.8,151.9l0.2,1.4c-0.5,0.1-0.9,0.1-1.2,0.1c-0.6,0-1-0.1-1.3-0.3c-0.3-0.2-0.5-0.4-0.7-0.7
			c-0.1-0.3-0.2-0.9-0.2-1.9v-5.4h-1.2V144h1.2v-2.3l1.6-1v3.3h1.6v1.2h-1.6v5.5c0,0.5,0,0.8,0.1,0.9c0.1,0.1,0.1,0.2,0.3,0.3
			c0.1,0.1,0.3,0.1,0.5,0.1C238.3,152,238.5,152,238.8,151.9"/>
		<path class="st46" d="M246.3,148.7c-0.6,0.2-1.4,0.4-2.6,0.6c-0.6,0.1-1.1,0.2-1.4,0.3c-0.3,0.1-0.5,0.3-0.6,0.5
			c-0.1,0.2-0.2,0.5-0.2,0.8c0,0.4,0.1,0.8,0.5,1.1c0.3,0.3,0.8,0.4,1.4,0.4s1.2-0.1,1.6-0.4c0.5-0.3,0.8-0.6,1.1-1.1
			c0.2-0.4,0.3-0.9,0.3-1.6V148.7 M246.4,152.2c-0.6,0.5-1.2,0.9-1.7,1.1c-0.5,0.2-1.1,0.3-1.7,0.3c-1,0-1.8-0.2-2.4-0.7
			c-0.6-0.5-0.8-1.1-0.8-1.9c0-0.4,0.1-0.9,0.3-1.2c0.2-0.4,0.5-0.7,0.8-0.9c0.3-0.2,0.7-0.4,1.1-0.5c0.3-0.1,0.8-0.1,1.4-0.2
			c1.3-0.1,2.2-0.3,2.8-0.5V147c0-0.6-0.1-1.1-0.4-1.4c-0.4-0.4-1-0.5-1.8-0.5c-0.8,0-1.3,0.1-1.7,0.4c-0.4,0.3-0.6,0.7-0.8,1.4
			l-1.5-0.2c0.1-0.6,0.4-1.2,0.7-1.6c0.3-0.4,0.8-0.7,1.4-0.9s1.3-0.3,2.1-0.3c0.8,0,1.4,0.1,1.9,0.3c0.5,0.2,0.9,0.4,1.1,0.7
			c0.2,0.3,0.4,0.6,0.5,1.1c0.1,0.3,0.1,0.8,0.1,1.5v2.1c0,1.5,0,2.4,0.1,2.8c0.1,0.4,0.2,0.8,0.4,1.1h-1.7
			C246.6,153,246.5,152.6,246.4,152.2"/>
		<path class="st46" d="M249.7,150.6l1.6-0.2c0.1,0.6,0.3,1.1,0.7,1.4s1,0.5,1.7,0.5s1.3-0.1,1.6-0.4c0.3-0.3,0.5-0.6,0.5-1
			c0-0.4-0.2-0.6-0.5-0.8c-0.2-0.1-0.8-0.3-1.6-0.5c-1.2-0.3-2-0.5-2.4-0.8s-0.8-0.5-1-0.9c-0.2-0.4-0.3-0.8-0.3-1.3
			c0-0.4,0.1-0.8,0.3-1.2c0.2-0.4,0.4-0.6,0.8-0.9c0.3-0.2,0.6-0.3,1-0.4c0.4-0.1,0.9-0.2,1.4-0.2c0.7,0,1.4,0.1,1.9,0.3
			s1,0.5,1.2,0.8c0.3,0.4,0.4,0.8,0.5,1.4l-1.5,0.2c-0.1-0.5-0.3-0.8-0.6-1.1c-0.3-0.3-0.8-0.4-1.4-0.4c-0.7,0-1.3,0.1-1.6,0.4
			c-0.3,0.3-0.5,0.5-0.5,0.8c0,0.2,0.1,0.4,0.2,0.6c0.1,0.2,0.3,0.3,0.6,0.4c0.1,0.1,0.6,0.2,1.4,0.4c1.1,0.3,1.9,0.5,2.3,0.7
			c0.4,0.2,0.8,0.5,1,0.8c0.3,0.4,0.4,0.8,0.4,1.3c0,0.5-0.2,1-0.5,1.5c-0.3,0.5-0.8,0.8-1.3,1.1c-0.6,0.3-1.2,0.4-2,0.4
			c-1.2,0-2.1-0.2-2.8-0.7C250.3,152.3,249.9,151.6,249.7,150.6"/>
		<path class="st46" d="M260.6,147.8h5.2c-0.1-0.8-0.3-1.4-0.6-1.8c-0.5-0.6-1.2-0.9-2-0.9c-0.7,0-1.3,0.3-1.8,0.7
			C260.9,146.3,260.6,147,260.6,147.8 M265.8,150.3l1.6,0.2c-0.3,1-0.8,1.7-1.4,2.2c-0.7,0.5-1.6,0.8-2.7,0.8
			c-1.4,0-2.5-0.4-3.3-1.2c-0.8-0.8-1.2-2-1.2-3.5c0-1.6,0.4-2.8,1.2-3.7c0.8-0.9,1.9-1.3,3.1-1.3c1.2,0,2.3,0.4,3.1,1.3
			c0.8,0.8,1.2,2,1.2,3.6c0,0.1,0,0.2,0,0.4h-7c0.1,1,0.3,1.8,0.9,2.4s1.2,0.8,2,0.8c0.6,0,1.1-0.1,1.5-0.4
			C265.2,151.5,265.5,151,265.8,150.3"/>
		<path class="st46" d="M272.8,151.9l0.2,1.4c-0.5,0.1-0.9,0.1-1.2,0.1c-0.6,0-1-0.1-1.3-0.3c-0.3-0.2-0.5-0.4-0.7-0.7
			c-0.1-0.3-0.2-0.9-0.2-1.9v-5.4h-1.2V144h1.2v-2.3l1.6-1v3.3h1.6v1.2h-1.6v5.5c0,0.5,0,0.8,0.1,0.9c0.1,0.1,0.1,0.2,0.3,0.3
			c0.1,0.1,0.3,0.1,0.5,0.1C272.3,152,272.5,152,272.8,151.9"/>
		<line class="st47" x1="73.7" y1="172.5" x2="109.7" y2="172.5"/>
		<path class="st46" d="M127.8,173.5h4.4l-1.4-3.6c-0.4-1.1-0.7-2-0.9-2.7c-0.2,0.8-0.4,1.7-0.7,2.5L127.8,173.5 M124.1,178.8
			l4.9-12.9h1.8l5.3,12.9h-1.9l-1.5-3.9h-5.4l-1.4,3.9H124.1"/>
		<path class="st46" d="M138.8,174.2c0,1.2,0.2,2.1,0.7,2.7c0.5,0.6,1.1,0.8,1.8,0.8c0.7,0,1.3-0.3,1.8-0.9c0.5-0.6,0.8-1.5,0.8-2.8
			c0-1.2-0.3-2.1-0.7-2.7c-0.5-0.6-1.1-0.9-1.7-0.9c-0.7,0-1.3,0.3-1.8,1C139,172.1,138.8,173,138.8,174.2 M137.3,182.4v-12.9h1.4
			v1.2c0.3-0.5,0.7-0.8,1.2-1.1c0.4-0.2,0.9-0.4,1.5-0.4c0.8,0,1.5,0.2,2.1,0.6c0.6,0.4,1.1,1,1.4,1.7c0.3,0.8,0.5,1.6,0.5,2.4
			c0,1-0.2,1.8-0.5,2.6c-0.3,0.8-0.8,1.4-1.5,1.8c-0.6,0.4-1.3,0.6-2.1,0.6c-0.5,0-1-0.1-1.4-0.3c-0.4-0.2-0.8-0.5-1-0.8v4.5H137.3"
			/>
		<path class="st46" d="M148.4,174.2c0,1.2,0.3,2.1,0.8,2.7c0.5,0.6,1.2,0.9,2,0.9c0.8,0,1.4-0.3,2-0.9c0.5-0.6,0.8-1.5,0.8-2.7
			c0-1.2-0.3-2-0.8-2.6c-0.5-0.6-1.2-0.9-2-0.9c-0.8,0-1.5,0.3-2,0.9C148.6,172.1,148.4,173,148.4,174.2 M146.7,174.2
			c0-1.7,0.5-3,1.4-3.9c0.8-0.7,1.8-1,2.9-1c1.3,0,2.3,0.4,3.1,1.3c0.8,0.8,1.2,2,1.2,3.5c0,1.2-0.2,2.2-0.5,2.8
			c-0.4,0.7-0.9,1.2-1.6,1.6c-0.7,0.4-1.4,0.6-2.3,0.6c-1.3,0-2.4-0.4-3.2-1.2C147.1,176.9,146.7,175.7,146.7,174.2"/>
		<rect x="157.3" y="165.9" class="st46" width="1.6" height="12.9"/>
		<rect x="161.3" y="165.9" class="st46" width="1.6" height="12.9"/>
		<path class="st46" d="M166.4,174.2c0,1.2,0.3,2.1,0.8,2.7c0.5,0.6,1.2,0.9,2,0.9c0.8,0,1.4-0.3,2-0.9c0.5-0.6,0.8-1.5,0.8-2.7
			c0-1.2-0.3-2-0.8-2.6c-0.5-0.6-1.2-0.9-2-0.9c-0.8,0-1.5,0.3-2,0.9C166.6,172.1,166.4,173,166.4,174.2 M164.7,174.2
			c0-1.7,0.5-3,1.4-3.9c0.8-0.7,1.8-1,2.9-1c1.3,0,2.3,0.4,3.1,1.3c0.8,0.8,1.2,2,1.2,3.5c0,1.2-0.2,2.2-0.5,2.8
			c-0.4,0.7-0.9,1.2-1.6,1.6c-0.7,0.4-1.4,0.6-2.3,0.6c-1.3,0-2.4-0.4-3.2-1.2C165.1,176.9,164.7,175.7,164.7,174.2"/>
		<path class="st46" d="M174.7,176l1.6-0.2c0.1,0.6,0.3,1.1,0.7,1.4s1,0.5,1.7,0.5s1.3-0.1,1.6-0.4c0.3-0.3,0.5-0.6,0.5-1
			c0-0.4-0.2-0.6-0.5-0.8c-0.2-0.1-0.8-0.3-1.6-0.5c-1.2-0.3-2-0.5-2.4-0.8c-0.4-0.2-0.8-0.5-1-0.9c-0.2-0.4-0.3-0.8-0.3-1.3
			c0-0.4,0.1-0.8,0.3-1.2c0.2-0.4,0.4-0.6,0.8-0.9c0.3-0.2,0.6-0.3,1-0.4c0.4-0.1,0.9-0.2,1.4-0.2c0.7,0,1.4,0.1,1.9,0.3
			s1,0.5,1.2,0.8c0.3,0.4,0.4,0.8,0.5,1.4l-1.5,0.2c-0.1-0.5-0.3-0.8-0.6-1.1c-0.3-0.3-0.8-0.4-1.4-0.4c-0.7,0-1.3,0.1-1.6,0.4
			c-0.3,0.3-0.5,0.5-0.5,0.8c0,0.2,0.1,0.4,0.2,0.6c0.1,0.2,0.3,0.3,0.6,0.4c0.1,0.1,0.6,0.2,1.4,0.4c1.1,0.3,1.9,0.5,2.3,0.7
			c0.4,0.2,0.8,0.5,1,0.8c0.3,0.4,0.4,0.8,0.4,1.3c0,0.5-0.2,1-0.5,1.5s-0.8,0.8-1.3,1.1c-0.6,0.3-1.2,0.4-2,0.4
			c-1.2,0-2.1-0.2-2.8-0.7C175.3,177.8,174.9,177,174.7,176"/>
		<path class="st46" d="M190.4,175.4l1.6,0.2c-0.2,1.1-0.6,1.9-1.3,2.5c-0.7,0.6-1.6,0.9-2.6,0.9c-1.3,0-2.3-0.4-3.1-1.2
			c-0.8-0.8-1.2-2-1.2-3.6c0-1,0.2-1.9,0.5-2.6c0.3-0.8,0.8-1.3,1.5-1.7c0.7-0.4,1.4-0.6,2.2-0.6c1,0,1.8,0.3,2.5,0.8
			c0.6,0.5,1.1,1.2,1.2,2.2l-1.5,0.2c-0.1-0.6-0.4-1.1-0.8-1.4c-0.4-0.3-0.8-0.5-1.3-0.5c-0.8,0-1.5,0.3-2,0.9s-0.7,1.5-0.7,2.7
			c0,1.3,0.2,2.2,0.7,2.7c0.5,0.6,1.1,0.8,1.9,0.8c0.6,0,1.1-0.2,1.5-0.6S190.3,176.2,190.4,175.4"/>
		<path class="st46" d="M199.3,174.1c-0.6,0.2-1.4,0.4-2.6,0.6c-0.6,0.1-1.1,0.2-1.4,0.3c-0.3,0.1-0.5,0.3-0.6,0.5
			c-0.1,0.2-0.2,0.5-0.2,0.8c0,0.4,0.1,0.8,0.5,1.1c0.3,0.3,0.8,0.4,1.4,0.4s1.2-0.1,1.6-0.4c0.5-0.3,0.8-0.6,1.1-1.1
			c0.2-0.4,0.3-0.9,0.3-1.6V174.1 M199.4,177.7c-0.6,0.5-1.2,0.9-1.7,1.1c-0.5,0.2-1.1,0.3-1.7,0.3c-1,0-1.8-0.2-2.4-0.7
			c-0.6-0.5-0.8-1.1-0.8-1.9c0-0.5,0.1-0.9,0.3-1.2c0.2-0.4,0.5-0.7,0.8-0.9c0.3-0.2,0.7-0.4,1.1-0.5c0.3-0.1,0.8-0.1,1.4-0.2
			c1.3-0.1,2.2-0.3,2.8-0.5v-0.4c0-0.6-0.1-1.1-0.4-1.4c-0.4-0.4-1-0.5-1.8-0.5c-0.8,0-1.3,0.1-1.7,0.4c-0.4,0.3-0.6,0.7-0.8,1.4
			l-1.5-0.2c0.1-0.6,0.4-1.2,0.7-1.6c0.3-0.4,0.8-0.7,1.4-0.9s1.3-0.3,2.1-0.3c0.8,0,1.4,0.1,1.9,0.3c0.5,0.2,0.9,0.4,1.1,0.7
			c0.2,0.3,0.4,0.6,0.5,1.1c0.1,0.3,0.1,0.8,0.1,1.5v2.1c0,1.5,0,2.4,0.1,2.8c0.1,0.4,0.2,0.8,0.4,1.1h-1.7
			C199.6,178.5,199.5,178.1,199.4,177.7"/>
		<path class="st46" d="M204.8,174.2c0,1.2,0.2,2.1,0.7,2.7c0.5,0.6,1.1,0.8,1.8,0.8c0.7,0,1.3-0.3,1.8-0.9c0.5-0.6,0.8-1.5,0.8-2.8
			c0-1.2-0.3-2.1-0.7-2.7c-0.5-0.6-1.1-0.9-1.7-0.9c-0.7,0-1.3,0.3-1.8,1C205,172.1,204.8,173,204.8,174.2 M203.4,182.4v-12.9h1.4
			v1.2c0.3-0.5,0.7-0.8,1.2-1.1c0.4-0.2,0.9-0.4,1.5-0.4c0.8,0,1.5,0.2,2.1,0.6c0.6,0.4,1.1,1,1.4,1.7c0.3,0.8,0.5,1.6,0.5,2.4
			c0,1-0.2,1.8-0.5,2.6c-0.3,0.8-0.8,1.4-1.5,1.8c-0.6,0.4-1.3,0.6-2.1,0.6c-0.5,0-1-0.1-1.4-0.3c-0.4-0.2-0.8-0.5-1-0.8v4.5H203.4"
			/>
		<path class="st46" d="M214.6,173.3h5.2c-0.1-0.8-0.3-1.4-0.6-1.8c-0.5-0.6-1.2-0.9-2-0.9c-0.7,0-1.3,0.3-1.8,0.7
			C214.9,171.8,214.6,172.4,214.6,173.3 M219.8,175.8l1.6,0.2c-0.3,1-0.8,1.7-1.4,2.2c-0.7,0.5-1.6,0.8-2.7,0.8
			c-1.4,0-2.5-0.4-3.3-1.2c-0.8-0.8-1.2-2-1.2-3.5c0-1.6,0.4-2.8,1.2-3.7c0.8-0.9,1.9-1.3,3.1-1.3c1.2,0,2.3,0.4,3.1,1.3
			c0.8,0.8,1.2,2,1.2,3.6c0,0.1,0,0.2,0,0.4h-7c0.1,1,0.3,1.8,0.9,2.4s1.2,0.8,2,0.8c0.6,0,1.1-0.1,1.5-0.4
			C219.2,177,219.5,176.5,219.8,175.8"/>
		<path class="st46" d="M230.3,177.3h2.8c0.8,0,1.5-0.1,2-0.2c0.5-0.2,0.9-0.4,1.2-0.7c0.4-0.4,0.7-0.9,0.9-1.6
			c0.2-0.7,0.3-1.5,0.3-2.5c0-1.3-0.2-2.4-0.7-3.1c-0.4-0.7-1-1.2-1.6-1.5c-0.5-0.2-1.2-0.3-2.2-0.3h-2.7V177.3 M228.6,178.8v-12.9
			h4.4c1,0,1.7,0.1,2.3,0.2c0.7,0.2,1.4,0.5,1.9,0.9c0.7,0.6,1.2,1.3,1.5,2.2c0.3,0.9,0.5,1.9,0.5,3.1c0,1-0.1,1.9-0.3,2.6
			c-0.2,0.8-0.5,1.4-0.9,1.9c-0.4,0.5-0.8,0.9-1.2,1.2c-0.4,0.3-0.9,0.5-1.5,0.6c-0.6,0.1-1.3,0.2-2.1,0.2H228.6"/>
		<path class="st46" d="M247.3,174.1c-0.6,0.2-1.4,0.4-2.6,0.6c-0.6,0.1-1.1,0.2-1.4,0.3c-0.3,0.1-0.5,0.3-0.6,0.5
			c-0.1,0.2-0.2,0.5-0.2,0.8c0,0.4,0.1,0.8,0.5,1.1c0.3,0.3,0.8,0.4,1.4,0.4s1.2-0.1,1.6-0.4c0.5-0.3,0.8-0.6,1.1-1.1
			c0.2-0.4,0.3-0.9,0.3-1.6V174.1 M247.5,177.7c-0.6,0.5-1.2,0.9-1.7,1.1c-0.5,0.2-1.1,0.3-1.7,0.3c-1,0-1.8-0.2-2.4-0.7
			c-0.6-0.5-0.8-1.1-0.8-1.9c0-0.5,0.1-0.9,0.3-1.2c0.2-0.4,0.5-0.7,0.8-0.9c0.3-0.2,0.7-0.4,1.1-0.5c0.3-0.1,0.8-0.1,1.4-0.2
			c1.3-0.1,2.2-0.3,2.8-0.5v-0.4c0-0.6-0.1-1.1-0.4-1.4c-0.4-0.4-1-0.5-1.8-0.5c-0.8,0-1.3,0.1-1.7,0.4c-0.4,0.3-0.6,0.7-0.8,1.4
			l-1.5-0.2c0.1-0.6,0.4-1.2,0.7-1.6c0.3-0.4,0.8-0.7,1.4-0.9s1.3-0.3,2.1-0.3c0.8,0,1.4,0.1,1.9,0.3c0.5,0.2,0.9,0.4,1.1,0.7
			c0.2,0.3,0.4,0.6,0.5,1.1c0.1,0.3,0.1,0.8,0.1,1.5v2.1c0,1.5,0,2.4,0.1,2.8c0.1,0.4,0.2,0.8,0.4,1.1h-1.7
			C247.6,178.5,247.5,178.1,247.5,177.7"/>
		<path class="st46" d="M254.8,177.4l0.2,1.4c-0.5,0.1-0.9,0.1-1.2,0.1c-0.6,0-1-0.1-1.3-0.3c-0.3-0.2-0.5-0.4-0.7-0.7
			c-0.1-0.3-0.2-0.9-0.2-1.9v-5.4h-1.2v-1.2h1.2v-2.3l1.6-1v3.3h1.6v1.2h-1.6v5.5c0,0.5,0,0.8,0.1,0.9c0.1,0.1,0.1,0.2,0.3,0.3
			c0.1,0.1,0.3,0.1,0.5,0.1C254.3,177.5,254.5,177.4,254.8,177.4"/>
		<path class="st46" d="M262.3,174.1c-0.6,0.2-1.4,0.4-2.6,0.6c-0.6,0.1-1.1,0.2-1.4,0.3c-0.3,0.1-0.5,0.3-0.6,0.5
			c-0.1,0.2-0.2,0.5-0.2,0.8c0,0.4,0.1,0.8,0.5,1.1s0.8,0.4,1.4,0.4s1.2-0.1,1.6-0.4c0.5-0.3,0.8-0.6,1.1-1.1
			c0.2-0.4,0.3-0.9,0.3-1.6V174.1 M262.5,177.7c-0.6,0.5-1.2,0.9-1.7,1.1c-0.5,0.2-1.1,0.3-1.7,0.3c-1,0-1.8-0.2-2.4-0.7
			c-0.6-0.5-0.8-1.1-0.8-1.9c0-0.5,0.1-0.9,0.3-1.2c0.2-0.4,0.5-0.7,0.8-0.9c0.3-0.2,0.7-0.4,1.1-0.5c0.3-0.1,0.8-0.1,1.4-0.2
			c1.3-0.1,2.2-0.3,2.8-0.5v-0.4c0-0.6-0.1-1.1-0.4-1.4c-0.4-0.4-1-0.5-1.8-0.5c-0.8,0-1.3,0.1-1.7,0.4c-0.4,0.3-0.6,0.7-0.8,1.4
			l-1.5-0.2c0.1-0.6,0.4-1.2,0.7-1.6c0.3-0.4,0.8-0.7,1.4-0.9s1.3-0.3,2.1-0.3c0.8,0,1.4,0.1,1.9,0.3c0.5,0.2,0.9,0.4,1.1,0.7
			c0.2,0.3,0.4,0.6,0.5,1.1c0.1,0.3,0.1,0.8,0.1,1.5v2.1c0,1.5,0,2.4,0.1,2.8c0.1,0.4,0.2,0.8,0.4,1.1h-1.7
			C262.6,178.5,262.5,178.1,262.5,177.7"/>
		<path class="st46" d="M265.8,176l1.6-0.2c0.1,0.6,0.3,1.1,0.7,1.4s1,0.5,1.7,0.5s1.3-0.1,1.6-0.4c0.3-0.3,0.5-0.6,0.5-1
			c0-0.4-0.2-0.6-0.5-0.8c-0.2-0.1-0.8-0.3-1.6-0.5c-1.2-0.3-2-0.5-2.4-0.8c-0.5-0.2-0.8-0.5-1-0.9c-0.2-0.4-0.3-0.8-0.3-1.3
			c0-0.4,0.1-0.8,0.3-1.2c0.2-0.4,0.5-0.6,0.8-0.9c0.3-0.2,0.6-0.3,1-0.4c0.4-0.1,0.9-0.2,1.4-0.2c0.7,0,1.4,0.1,1.9,0.3
			c0.6,0.2,1,0.5,1.2,0.8c0.3,0.4,0.4,0.8,0.5,1.4l-1.5,0.2c-0.1-0.5-0.3-0.8-0.6-1.1c-0.3-0.3-0.8-0.4-1.4-0.4
			c-0.7,0-1.3,0.1-1.6,0.4c-0.3,0.3-0.5,0.5-0.5,0.8c0,0.2,0.1,0.4,0.2,0.6c0.1,0.2,0.3,0.3,0.6,0.4c0.1,0.1,0.6,0.2,1.4,0.4
			c1.1,0.3,1.9,0.5,2.3,0.7c0.4,0.2,0.8,0.5,1,0.8c0.3,0.4,0.4,0.8,0.4,1.3c0,0.5-0.2,1-0.5,1.5s-0.8,0.8-1.3,1.1
			c-0.6,0.3-1.2,0.4-2,0.4c-1.2,0-2.1-0.2-2.8-0.7C266.3,177.8,265.9,177,265.8,176"/>
		<path class="st46" d="M276.6,173.3h5.2c-0.1-0.8-0.3-1.4-0.6-1.8c-0.5-0.6-1.2-0.9-2-0.9c-0.7,0-1.3,0.3-1.8,0.7
			C276.9,171.8,276.6,172.4,276.6,173.3 M281.8,175.8l1.6,0.2c-0.3,1-0.8,1.7-1.4,2.2c-0.7,0.5-1.6,0.8-2.7,0.8
			c-1.4,0-2.5-0.4-3.3-1.2c-0.8-0.8-1.2-2-1.2-3.5c0-1.6,0.4-2.8,1.2-3.7c0.8-0.9,1.9-1.3,3.1-1.3c1.2,0,2.3,0.4,3.1,1.3
			c0.8,0.8,1.2,2,1.2,3.6c0,0.1,0,0.2,0,0.4h-7c0.1,1,0.3,1.8,0.9,2.4s1.2,0.8,2,0.8c0.6,0,1.1-0.1,1.5-0.4
			C281.2,177,281.5,176.5,281.8,175.8"/>
		<path class="st46" d="M288.9,177.4l0.2,1.4c-0.5,0.1-0.9,0.1-1.2,0.1c-0.6,0-1-0.1-1.3-0.3c-0.3-0.2-0.5-0.4-0.7-0.7
			c-0.1-0.3-0.2-0.9-0.2-1.9v-5.4h-1.2v-1.2h1.2v-2.3l1.6-1v3.3h1.6v1.2h-1.6v5.5c0,0.5,0,0.8,0.1,0.9c0.1,0.1,0.1,0.2,0.3,0.3
			c0.1,0.1,0.3,0.1,0.5,0.1C288.3,177.5,288.6,177.4,288.9,177.4"/>
		<line class="st48" x1="73.7" y1="198" x2="109.7" y2="198"/>
		<path class="st46" d="M127.2,202.8h2.8c0.8,0,1.5-0.1,2-0.2c0.5-0.2,0.9-0.4,1.2-0.7c0.4-0.4,0.7-0.9,0.9-1.6
			c0.2-0.7,0.3-1.5,0.3-2.5c0-1.3-0.2-2.4-0.7-3.1c-0.4-0.7-1-1.2-1.6-1.5c-0.5-0.2-1.2-0.3-2.2-0.3h-2.7V202.8 M125.5,204.3v-12.9
			h4.4c1,0,1.7,0.1,2.3,0.2c0.7,0.2,1.4,0.5,1.9,0.9c0.7,0.6,1.2,1.3,1.5,2.2c0.3,0.9,0.5,1.9,0.5,3.1c0,1-0.1,1.9-0.3,2.6
			c-0.2,0.8-0.5,1.4-0.9,1.9c-0.4,0.5-0.8,0.9-1.2,1.2c-0.4,0.3-0.9,0.5-1.5,0.6c-0.6,0.1-1.3,0.2-2.1,0.2H125.5"/>
		<path class="st46" d="M139.4,199.6c0,1.2,0.3,2.1,0.8,2.7c0.5,0.6,1.2,0.9,2,0.9c0.8,0,1.4-0.3,2-0.9c0.5-0.6,0.8-1.5,0.8-2.7
			c0-1.2-0.3-2-0.8-2.6c-0.5-0.6-1.2-0.9-2-0.9c-0.8,0-1.5,0.3-2,0.9C139.6,197.5,139.4,198.4,139.4,199.6 M137.7,199.6
			c0-1.7,0.5-3,1.4-3.9c0.8-0.7,1.8-1,2.9-1c1.3,0,2.3,0.4,3.1,1.3c0.8,0.8,1.2,2,1.2,3.5c0,1.2-0.2,2.2-0.5,2.8
			c-0.4,0.7-0.9,1.2-1.6,1.6c-0.7,0.4-1.4,0.6-2.3,0.6c-1.3,0-2.4-0.4-3.2-1.2C138.1,202.4,137.7,201.2,137.7,199.6"/>
		<path class="st46" d="M149.4,199.6c0,1.2,0.3,2.1,0.8,2.7c0.5,0.6,1.2,0.9,2,0.9c0.8,0,1.4-0.3,2-0.9c0.5-0.6,0.8-1.5,0.8-2.7
			c0-1.2-0.3-2-0.8-2.6c-0.5-0.6-1.2-0.9-2-0.9c-0.8,0-1.5,0.3-2,0.9C149.6,197.5,149.4,198.4,149.4,199.6 M147.7,199.6
			c0-1.7,0.5-3,1.4-3.9c0.8-0.7,1.8-1,2.9-1c1.3,0,2.3,0.4,3.1,1.3c0.8,0.8,1.2,2,1.2,3.5c0,1.2-0.2,2.2-0.5,2.8
			c-0.4,0.7-0.9,1.2-1.6,1.6c-0.7,0.4-1.4,0.6-2.3,0.6c-1.3,0-2.4-0.4-3.2-1.2C148.1,202.4,147.7,201.2,147.7,199.6"/>
		<path class="st46" d="M158.3,204.3v-9.3h1.4v1.3c0.3-0.5,0.7-0.8,1.2-1.1c0.5-0.3,1-0.4,1.7-0.4c0.7,0,1.2,0.1,1.7,0.4
			c0.4,0.3,0.8,0.7,0.9,1.2c0.7-1.1,1.7-1.6,2.9-1.6c0.9,0,1.6,0.3,2.1,0.8c0.5,0.5,0.8,1.3,0.8,2.4v6.4h-1.6v-5.9
			c0-0.6-0.1-1.1-0.2-1.4s-0.3-0.5-0.6-0.7c-0.3-0.2-0.6-0.3-0.9-0.3c-0.7,0-1.2,0.2-1.6,0.7c-0.4,0.4-0.6,1.1-0.6,2.1v5.4h-1.6
			v-6.1c0-0.7-0.1-1.2-0.4-1.6c-0.3-0.3-0.7-0.5-1.3-0.5c-0.4,0-0.9,0.1-1.2,0.4c-0.4,0.2-0.6,0.6-0.8,1c-0.2,0.4-0.3,1.1-0.3,1.9
			v4.8H158.3"/>
		<path class="st46" d="M180.2,202.8h2.8c0.8,0,1.5-0.1,2-0.2c0.5-0.2,0.9-0.4,1.2-0.7c0.4-0.4,0.7-0.9,0.9-1.6
			c0.2-0.7,0.3-1.5,0.3-2.5c0-1.3-0.2-2.4-0.7-3.1c-0.4-0.7-1-1.2-1.6-1.5c-0.5-0.2-1.2-0.3-2.2-0.3h-2.7V202.8 M178.5,204.3v-12.9
			h4.4c1,0,1.7,0.1,2.3,0.2c0.7,0.2,1.4,0.5,1.9,0.9c0.7,0.6,1.2,1.3,1.5,2.2c0.3,0.9,0.5,1.9,0.5,3.1c0,1-0.1,1.9-0.3,2.6
			c-0.2,0.8-0.5,1.4-0.9,1.9c-0.4,0.5-0.8,0.9-1.2,1.2c-0.4,0.3-0.9,0.5-1.5,0.6c-0.6,0.1-1.3,0.2-2.1,0.2H178.5"/>
		<path class="st46" d="M197.3,199.6c-0.6,0.2-1.4,0.4-2.6,0.6c-0.6,0.1-1.1,0.2-1.4,0.3c-0.3,0.1-0.5,0.3-0.6,0.5
			c-0.1,0.2-0.2,0.5-0.2,0.8c0,0.4,0.1,0.8,0.5,1.1c0.3,0.3,0.8,0.4,1.4,0.4s1.2-0.1,1.6-0.4c0.5-0.3,0.8-0.6,1.1-1.1
			c0.2-0.4,0.3-0.9,0.3-1.6V199.6 M197.4,203.1c-0.6,0.5-1.2,0.9-1.7,1.1c-0.5,0.2-1.1,0.3-1.7,0.3c-1,0-1.8-0.2-2.4-0.7
			c-0.6-0.5-0.8-1.1-0.8-1.9c0-0.5,0.1-0.9,0.3-1.2c0.2-0.4,0.5-0.7,0.8-0.9c0.3-0.2,0.7-0.4,1.1-0.5c0.3-0.1,0.8-0.1,1.4-0.2
			c1.3-0.1,2.2-0.3,2.8-0.5v-0.4c0-0.6-0.1-1.1-0.4-1.4c-0.4-0.4-1-0.5-1.8-0.5c-0.8,0-1.3,0.1-1.7,0.4c-0.4,0.3-0.6,0.7-0.8,1.4
			l-1.5-0.2c0.1-0.6,0.4-1.2,0.7-1.6c0.3-0.4,0.8-0.7,1.4-0.9c0.6-0.2,1.3-0.3,2.1-0.3c0.8,0,1.4,0.1,1.9,0.3
			c0.5,0.2,0.9,0.4,1.1,0.7c0.2,0.3,0.4,0.6,0.5,1.1c0.1,0.3,0.1,0.8,0.1,1.5v2.1c0,1.5,0,2.4,0.1,2.8c0.1,0.4,0.2,0.8,0.4,1.1h-1.7
			C197.6,204,197.5,203.6,197.4,203.1"/>
		<path class="st46" d="M204.8,202.9l0.2,1.4c-0.5,0.1-0.9,0.1-1.2,0.1c-0.6,0-1-0.1-1.3-0.3c-0.3-0.2-0.5-0.4-0.7-0.7
			c-0.1-0.3-0.2-0.9-0.2-1.9v-5.4h-1.2v-1.2h1.2v-2.3l1.6-1v3.3h1.6v1.2h-1.6v5.5c0,0.5,0,0.8,0.1,0.9c0.1,0.1,0.1,0.2,0.3,0.3
			c0.1,0.1,0.3,0.1,0.5,0.1C204.3,202.9,204.5,202.9,204.8,202.9"/>
		<path class="st46" d="M212.3,199.6c-0.6,0.2-1.4,0.4-2.6,0.6c-0.6,0.1-1.1,0.2-1.4,0.3c-0.3,0.1-0.5,0.3-0.6,0.5
			c-0.1,0.2-0.2,0.5-0.2,0.8c0,0.4,0.1,0.8,0.5,1.1c0.3,0.3,0.8,0.4,1.4,0.4s1.2-0.1,1.6-0.4c0.5-0.3,0.8-0.6,1.1-1.1
			c0.2-0.4,0.3-0.9,0.3-1.6V199.6 M212.4,203.1c-0.6,0.5-1.2,0.9-1.7,1.1c-0.5,0.2-1.1,0.3-1.7,0.3c-1,0-1.8-0.2-2.4-0.7
			c-0.6-0.5-0.8-1.1-0.8-1.9c0-0.5,0.1-0.9,0.3-1.2c0.2-0.4,0.5-0.7,0.8-0.9c0.3-0.2,0.7-0.4,1.1-0.5c0.3-0.1,0.8-0.1,1.4-0.2
			c1.3-0.1,2.2-0.3,2.8-0.5v-0.4c0-0.6-0.1-1.1-0.4-1.4c-0.4-0.4-1-0.5-1.8-0.5c-0.8,0-1.3,0.1-1.7,0.4c-0.4,0.3-0.6,0.7-0.8,1.4
			l-1.5-0.2c0.1-0.6,0.4-1.2,0.7-1.6c0.3-0.4,0.8-0.7,1.4-0.9c0.6-0.2,1.3-0.3,2.1-0.3c0.8,0,1.4,0.1,1.9,0.3
			c0.5,0.2,0.9,0.4,1.1,0.7c0.2,0.3,0.4,0.6,0.5,1.1c0.1,0.3,0.1,0.8,0.1,1.5v2.1c0,1.5,0,2.4,0.1,2.8c0.1,0.4,0.2,0.8,0.4,1.1h-1.7
			C212.6,204,212.5,203.6,212.4,203.1"/>
		<path class="st46" d="M215.7,201.5l1.6-0.2c0.1,0.6,0.3,1.1,0.7,1.4s1,0.5,1.7,0.5s1.3-0.1,1.6-0.4c0.3-0.3,0.5-0.6,0.5-1
			c0-0.4-0.2-0.6-0.5-0.8c-0.2-0.1-0.8-0.3-1.6-0.5c-1.2-0.3-2-0.5-2.4-0.8c-0.4-0.2-0.8-0.5-1-0.9c-0.2-0.4-0.3-0.8-0.3-1.3
			c0-0.4,0.1-0.8,0.3-1.2c0.2-0.4,0.4-0.6,0.8-0.9c0.3-0.2,0.6-0.3,1-0.4c0.4-0.1,0.9-0.2,1.4-0.2c0.7,0,1.4,0.1,1.9,0.3
			c0.6,0.2,1,0.5,1.2,0.8c0.3,0.4,0.4,0.8,0.5,1.4l-1.5,0.2c-0.1-0.5-0.3-0.8-0.6-1.1c-0.3-0.3-0.8-0.4-1.4-0.4
			c-0.7,0-1.3,0.1-1.6,0.4c-0.3,0.3-0.5,0.5-0.5,0.8c0,0.2,0.1,0.4,0.2,0.6c0.1,0.2,0.3,0.3,0.6,0.4c0.1,0.1,0.6,0.2,1.4,0.4
			c1.1,0.3,1.9,0.5,2.3,0.7c0.4,0.2,0.8,0.5,1,0.8c0.3,0.4,0.4,0.8,0.4,1.3c0,0.5-0.2,1-0.5,1.5s-0.8,0.8-1.3,1.1
			c-0.6,0.3-1.2,0.4-2,0.4c-1.2,0-2.1-0.2-2.8-0.7C216.3,203.2,215.9,202.5,215.7,201.5"/>
		<path class="st46" d="M226.5,198.7h5.2c-0.1-0.8-0.3-1.4-0.6-1.8c-0.5-0.6-1.2-0.9-2-0.9c-0.7,0-1.3,0.3-1.8,0.7
			C226.9,197.3,226.6,197.9,226.5,198.7 M231.7,201.3l1.6,0.2c-0.3,1-0.8,1.7-1.4,2.2c-0.7,0.5-1.6,0.8-2.7,0.8
			c-1.4,0-2.5-0.4-3.3-1.2c-0.8-0.8-1.2-2-1.2-3.5c0-1.6,0.4-2.8,1.2-3.7c0.8-0.9,1.9-1.3,3.1-1.3c1.2,0,2.3,0.4,3.1,1.3
			c0.8,0.8,1.2,2,1.2,3.6c0,0.1,0,0.2,0,0.4h-7c0.1,1,0.3,1.8,0.9,2.4s1.2,0.8,2,0.8c0.6,0,1.1-0.1,1.5-0.4
			C231.2,202.4,231.5,202,231.7,201.3"/>
		<path class="st46" d="M238.8,202.9l0.2,1.4c-0.5,0.1-0.9,0.1-1.2,0.1c-0.6,0-1-0.1-1.3-0.3c-0.3-0.2-0.5-0.4-0.7-0.7
			c-0.1-0.3-0.2-0.9-0.2-1.9v-5.4h-1.2v-1.2h1.2v-2.3l1.6-1v3.3h1.6v1.2h-1.6v5.5c0,0.5,0,0.8,0.1,0.9c0.1,0.1,0.1,0.2,0.3,0.3
			c0.1,0.1,0.3,0.1,0.5,0.1C238.3,202.9,238.5,202.9,238.8,202.9"/>
	</g>
</g>
</svg>
